<svg width="24" height="24" viewBox="0 0 24 24" fill="none" xmlns="http://www.w3.org/2000/svg">
<path d="M16 12.7439V20H19V8.5C19 6.01472 16.9853 4 14.5 4C13.5749 4 12.715 4.27914 12 4.75777V12.2422C12.715 12.7209 13.5749 13 14.5 13C15.026 13 15.5308 12.9098 16 12.7439ZM16 12.7439V11" stroke="black" stroke-width="2"/>
<path d="M5 21V14H7.25C8.2165 14 9 14.7835 9 15.75C9 16.7165 8.2165 17.5 7.25 17.5H5.5" stroke="black" stroke-width="2"/>
<path d="M9.00175 21.0001V20.5001C9.00175 18.879 8.61316 17.502 6.38281 17.502" stroke="black" stroke-width="2"/>
</svg>
