<svg width="24" height="24" viewBox="0 0 24 24" fill="none" xmlns="http://www.w3.org/2000/svg">
<path d="M4.34784 6.56821L2 7.41875L4.3064 10.8175L3.70909 12.0924L4.06146 13.0766C4.43936 14.1321 5.61088 14.6708 6.65815 14.2707L10.25 12.8986L10.4326 15.5204L13.25 14.4997L15.75 10.9061L19.9899 9.37013C20.7644 9.08956 21.2803 8.35404 21.2803 7.53031C21.2803 6.6311 20.6674 5.84763 19.7947 5.63108L17.8511 5.14884C17.4596 5.05168 17.0487 5.07486 16.6707 5.21586C15.0634 5.8154 10.539 7.50106 8.60086 8.20317C8.04343 8.40511 7.42468 8.35018 6.91195 8.05323L4.34784 6.56821Z" stroke="black" stroke-width="2" stroke-linecap="square"/>
<path d="M3 19H21" stroke="black" stroke-width="2" stroke-linecap="square"/>
</svg>
