<svg width="24" height="24" viewBox="0 0 24 24" fill="none" xmlns="http://www.w3.org/2000/svg">
<path d="M7 12.7439V20H10V8.5C10 6.01472 7.98528 4 5.5 4C4.57493 4 3.71505 4.27914 3 4.75777V12.2422C3.71505 12.7209 4.57493 13 5.5 13C6.02595 13 6.53083 12.9098 7 12.7439ZM7 12.7439V11" stroke="black" stroke-width="2"/>
<path d="M17 12.7439V20H14V8.5C14 6.01472 16.0147 4 18.5 4C19.4251 4 20.285 4.27914 21 4.75777V12.2422C20.285 12.7209 19.4251 13 18.5 13C17.974 13 17.4692 12.9098 17 12.7439ZM17 12.7439V11" stroke="black" stroke-width="2"/>
</svg>
