<svg width="24" height="24" viewBox="0 0 24 24" fill="none" xmlns="http://www.w3.org/2000/svg">
<path d="M3 17H2V18H3V17ZM5.5 18H6.5V16H5.5V18ZM3 4V3H2V4H3ZM21 4H22V3H21V4ZM21 17V18H22V17H21ZM18.5 16H17.5V18H18.5V16ZM3 17V18H5.5V17V16H3V17ZM3 17H4V4H3H2V17H3ZM3 4V5H21V4V3H3V4ZM21 4H20V17H21H22V4H21ZM21 17V16H18.5V17V18H21V17Z" fill="black"/>
<path d="M12.0001 15L12.781 14.3753L12.0001 13.3992L11.2192 14.3753L12.0001 15ZM8.00005 20L7.21918 19.3753L5.91943 21H8.00005V20ZM16.0001 20V21H18.0807L16.781 19.3753L16.0001 20ZM12.0001 15L11.2192 14.3753L7.21918 19.3753L8.00005 20L8.78092 20.6247L12.781 15.6247L12.0001 15ZM8.00005 20V21H16.0001V20V19H8.00005V20ZM16.0001 20L16.781 19.3753L12.781 14.3753L12.0001 15L11.2192 15.6247L15.2192 20.6247L16.0001 20Z" fill="black"/>
</svg>
