<svg width="24" height="24" viewBox="0 0 24 24" fill="none" xmlns="http://www.w3.org/2000/svg">
<path d="M8 20L12 15L16 20H8Z" stroke="black" stroke-width="2" stroke-linecap="round"/>
<path d="M19.0715 4.92893C15.1663 1.02369 8.83418 1.02369 4.92893 4.92893C1.14851 8.70935 1.02768 14.764 4.56643 18.6898L5.83669 17.102C3.22906 13.959 3.39783 9.28816 6.34299 6.34299C9.46719 3.2188 14.5333 3.2188 17.6574 6.34299L17.9407 6.64182C20.6103 9.59648 20.6849 14.0632 18.1638 17.102L19.434 18.6898C22.8586 14.8907 22.8558 9.09798 19.426 5.30198L19.0715 4.92893Z" fill="black"/>
<path d="M16.8781 15.495C18.5081 13.2244 18.3618 10.0732 16.4376 7.96203L16.2423 7.75792C13.9724 5.48798 10.3369 5.41693 7.98162 7.54503L7.75798 7.75792C5.65017 9.86574 5.43874 13.1499 7.12219 15.495L8.44667 13.8394C7.6667 12.3336 7.90903 10.435 9.17205 9.17199L9.32146 9.02941C10.8916 7.61114 13.3151 7.65886 14.8282 9.17199L14.9581 9.30773C16.1072 10.5682 16.3061 12.3867 15.5536 13.8394L16.8781 15.495Z" fill="black"/>
</svg>
