<svg width="24" height="24" viewBox="0 0 24 24" fill="none" xmlns="http://www.w3.org/2000/svg">
<path d="M3 19H21" stroke="black" stroke-width="2" stroke-linecap="square"/>
<path d="M6.53876 3.43706L4.07745 3L4.37583 7.09403L3.21977 7.89901L3.03264 8.92687C2.83195 10.0292 3.57798 11.0809 4.68621 11.2579L8.48719 11.8651L7.33311 14.2255L10.2867 14.75L14.253 12.889L18.6978 13.6783C19.5098 13.8224 20.3252 13.4436 20.7375 12.7307C21.1876 11.9524 21.0484 10.9681 20.4002 10.3446L18.9565 8.95607C18.6657 8.6763 18.2979 8.49108 17.8995 8.42422C16.2059 8.13994 11.4395 7.33808 9.40771 6.97729C8.82334 6.87352 8.31438 6.51679 8.01849 6.00359L6.53876 3.43706Z" stroke="black" stroke-width="2" stroke-linecap="round"/>
</svg>
