<svg width="24" height="24" viewBox="0 0 24 24" fill="none" xmlns="http://www.w3.org/2000/svg">
<path d="M2 11H1V13H2V11ZM22 13H23V11H22V13ZM12 19C8.13401 19 5 15.866 5 12H3C3 16.9706 7.02944 21 12 21V19ZM5 12C5 8.13401 8.13401 5 12 5V3C7.02944 3 3 7.02944 3 12H5ZM15 12C15 13.6569 13.6569 15 12 15V17C14.7614 17 17 14.7614 17 12H15ZM12 15C10.3431 15 9 13.6569 9 12H7C7 14.7614 9.23858 17 12 17V15ZM9 12C9 10.3431 10.3431 9 12 9V7C9.23858 7 7 9.23858 7 12H9ZM12 9C13.6569 9 15 10.3431 15 12H17C17 9.23858 14.7614 7 12 7V9ZM4 11H2V13H4V11ZM12 5C14.9361 5 17.4524 6.80802 18.4915 9.37522L20.3454 8.62478C19.011 5.32832 15.7786 3 12 3V5ZM18.5628 14.4413C17.5714 17.1051 15.0058 19 12 19V21C15.8681 21 19.1639 18.5602 20.4372 15.1389L18.5628 14.4413ZM16 13H22V11H16V13Z" fill="black"/>
</svg>
