<svg width="24" height="24" viewBox="0 0 24 24" fill="none" xmlns="http://www.w3.org/2000/svg">
<path d="M17.7426 6.2302L20 7.5V10M20 14V16.5L17.7426 17.7698M14.1791 19.7743L12 21L9.82092 19.7743M6.25741 17.7698L4 16.5V14M4 10V7.5L6.25741 6.23021M9.82093 4.22573L12 3L14.1791 4.22573M12 18V20.5M12 6V3.5M17.4019 9L19.5 7.78868M6.59808 15L4.5 16.2113M17.4019 15L19.5 16.2113M6.59808 9L4.5 7.78868M12 12V14M12 12L10.2679 11M12 12L13.7321 11" stroke="black" stroke-width="2" stroke-linecap="square"/>
</svg>
