<svg width="24" height="24" viewBox="0 0 24 24" fill="none" xmlns="http://www.w3.org/2000/svg">
<path d="M8 21H9V19H8V21ZM4 20H3V21H4V20ZM20 20V21H21V20H20ZM16 19H15V21H16V19ZM5 16V15H3V16H5ZM3 8V9H5V8H3ZM4 4V3H3V4H4ZM8 5H9V3H8V5ZM16 3H15V5H16V3ZM20 4H21V3H20V4ZM21 16V15H19V16H21ZM19 8V9H21V8H19ZM12 8L12.4961 7.13176L12 6.84825L11.5039 7.13176L12 8ZM8.5 10L8.00386 9.13176L7.5 9.41968V10H8.5ZM8.5 14H7.5V14.5803L8.00386 14.8682L8.5 14ZM12 16L11.5039 16.8682L12 17.1518L12.4961 16.8682L12 16ZM15.5 14L15.9961 14.8682L16.5 14.5803V14H15.5ZM15.5 10H16.5V9.41968L15.9961 9.13176L15.5 10ZM8 19H4V21H8V19ZM20 19H16V21H20V19ZM5 20V16H3V20H5ZM5 8V4H3V8H5ZM4 5H8V3H4V5ZM16 5H20V3H16V5ZM19 16V20H21V16H19ZM19 4V8H21V4H19ZM11.5039 7.13176L8.00386 9.13176L8.99614 10.8682L12.4961 8.86824L11.5039 7.13176ZM7.5 10V14H9.5V10H7.5ZM8.00386 14.8682L11.5039 16.8682L12.4961 15.1318L8.99614 13.1318L8.00386 14.8682ZM12.4961 16.8682L15.9961 14.8682L15.0039 13.1318L11.5039 15.1318L12.4961 16.8682ZM16.5 14V10H14.5V14H16.5ZM15.9961 9.13176L12.4961 7.13176L11.5039 8.86824L15.0039 10.8682L15.9961 9.13176ZM12.4961 11.1318L9.99614 9.70319L9.00386 11.4397L11.5039 12.8682L12.4961 11.1318ZM11 12V15H13V12H11ZM14.0035 9.70197L11.5035 11.132L12.4965 12.868L14.9965 11.438L14.0035 9.70197Z" fill="black"/>
</svg>
