<svg width="24" height="24" viewBox="0 0 24 24" fill="none" xmlns="http://www.w3.org/2000/svg">
<path d="M9.99609 18.5C9.99609 19.8807 8.65295 21 6.99609 21C5.33924 21 3.99609 19.8807 3.99609 18.5C3.99609 17.1193 5.33924 16 6.99609 16C8.65295 16 9.99609 17.1193 9.99609 18.5Z" stroke="black" stroke-width="2"/>
<path d="M19.9961 15.5C19.9961 16.8807 18.6529 18 16.9961 18C15.3392 18 13.9961 16.8807 13.9961 15.5C13.9961 14.1193 15.3392 13 16.9961 13C18.6529 13 19.9961 14.1193 19.9961 15.5Z" stroke="black" stroke-width="2"/>
<path d="M9.99609 6L19.9961 3M19.9961 3L10 6L9.99609 18.5M19.9961 3V15.5" stroke="black" stroke-width="2"/>
</svg>
