<svg width="24" height="24" viewBox="0 0 24 24" fill="none" xmlns="http://www.w3.org/2000/svg">
<path d="M5 5V4H3V5H5ZM4 9H3V10H4V9ZM8 10H9V8H8V10ZM12 5C15.2603 5 18.0024 7.2299 18.7795 10.2493L20.7164 9.75074C19.7174 5.8692 16.195 3 12 3V5ZM5.50845 9.37522C6.54763 6.80802 9.06387 5 12 5V3C8.22137 3 4.98895 5.32832 3.65458 8.62478L5.50845 9.37522ZM3 5V9H5V5H3ZM4 10H8V8H4V10Z" fill="black"/>
<path d="M9.50244 21H7.42676V14.2462H7.33789C6.7666 14.6207 6.00488 15.1094 5.38281 15.541V13.6938C6.04932 13.2241 6.77295 12.7607 7.45215 12.3354H9.50244V21Z" fill="black"/>
<path d="M10.8101 16.9375V16.3853C10.8101 13.8843 12.0669 12.1831 14.2568 12.1831C16.4658 12.1831 17.6592 13.8652 17.6592 16.3853V16.9375C17.6592 19.2798 16.5229 21.1587 14.2124 21.1587C12.0098 21.1587 10.8101 19.4385 10.8101 16.9375ZM12.9111 16.3916V16.9312C12.9111 18.6577 13.4443 19.4829 14.2378 19.4829C15.0249 19.4829 15.5645 18.645 15.5645 16.9312V16.3916C15.5645 14.6777 15.0249 13.8589 14.2378 13.8589C13.4443 13.8589 12.9111 14.665 12.9111 16.3916Z" fill="black"/>
</svg>
