<svg width="24" height="24" viewBox="0 0 24 24" fill="none" xmlns="http://www.w3.org/2000/svg">
<path d="M21 8H22V7H21V8ZM21 20V21H22V20H21ZM3 20H2V21H3V20ZM3 8V7H2V8H3ZM17 7V6H15V7H17ZM15 20V21H17V20H15ZM8.0022 4V3H7.0022V4H8.0022ZM16.0022 4H17.0022V3H16.0022V4ZM20 8V20H22V8H20ZM4 20V8H2V20H4ZM3 9H7.9978V7H3V9ZM7.9978 9H21V7H7.9978V9ZM21 19H7.9978V21H21V19ZM7.9978 19H3V21H7.9978V19ZM6.9978 8V20H8.9978V8H6.9978ZM15 7V20H17V7H15ZM9.0022 7V4H7.0022V7H9.0022ZM8.0022 5H16.0022V3H8.0022V5ZM15.0022 4V7H17.0022V4H15.0022Z" fill="black"/>
</svg>
