<svg width="24" height="24" viewBox="0 0 24 24" fill="none" xmlns="http://www.w3.org/2000/svg">
<path d="M21.5 5.5H2.5V18.5H21.5V5.5Z" stroke="black" stroke-width="2"/>
<path d="M12 14C13.1046 14 14 13.1046 14 12C14 10.8954 13.1046 10 12 10C10.8954 10 10 10.8954 10 12C10 13.1046 10.8954 14 12 14Z" stroke="black" stroke-width="2"/>
<path d="M21 9C19.3431 9 18 7.65685 18 6" stroke="black" stroke-width="2" stroke-linejoin="round"/>
<path d="M6 6C6 7.65685 4.65685 9 3 9" stroke="black" stroke-width="2" stroke-linejoin="round"/>
<path d="M18 18C18 16.3431 19.3431 15 21 15" stroke="black" stroke-width="2" stroke-linejoin="round"/>
<path d="M6 18C6 16.3431 4.65685 15 3 15" stroke="black" stroke-width="2" stroke-linejoin="round"/>
</svg>
