<svg width="24" height="24" viewBox="0 0 24 24" fill="none" xmlns="http://www.w3.org/2000/svg">
<path d="M7.36803 4.75127C7.96248 4.74024 8.55607 4.80112 9.13587 4.93259C9.62404 5.03906 10.0875 5.23718 10.5017 5.51643C10.8842 5.7941 11.1868 6.16742 11.3793 6.59889C11.6004 7.12946 11.7071 7.70063 11.6923 8.27516C11.7175 8.90601 11.5562 9.53029 11.2286 10.0702C10.884 10.5801 10.4076 10.9874 9.85009 11.2488C10.6067 11.4525 11.2658 11.9193 11.7087 12.5651C12.1339 13.2494 12.3476 14.0438 12.3231 14.8488C12.3371 15.4907 12.2042 16.1272 11.9347 16.71C11.6855 17.2184 11.3206 17.6615 10.8692 18.0037C10.4045 18.3422 9.88162 18.5927 9.32645 18.7426C8.75072 18.9017 8.15596 18.9816 7.55861 18.9801H1V4.75127H7.36803ZM6.9896 10.5063C7.45666 10.5255 7.91643 10.3858 8.2937 10.1101C8.47438 9.94941 8.61493 9.74873 8.70412 9.5241C8.79331 9.29947 8.82866 9.05711 8.80735 8.81639C8.81944 8.53525 8.76341 8.25534 8.644 8.00047C8.54271 7.79754 8.38522 7.62793 8.19024 7.51182C7.99276 7.384 7.77089 7.2985 7.53865 7.2607C7.28666 7.21193 7.03024 7.18975 6.77361 7.19451H3.9712V10.519H6.9896V10.5063ZM7.15295 16.5641C7.43541 16.5679 7.71729 16.5374 7.9924 16.4734C8.24382 16.4179 8.48226 16.3148 8.69482 16.1697C8.90306 16.0246 9.0713 15.8294 9.18397 15.6022C9.31462 15.3124 9.37464 14.9958 9.35912 14.6784C9.38745 14.3891 9.34909 14.0972 9.247 13.825C9.14491 13.5528 8.98179 13.3076 8.77014 13.1082C8.32156 12.7781 7.77182 12.6146 7.21557 12.6458H3.9712V16.5641H7.15295Z" fill="black"/>
<path d="M16.5548 16.5113C16.788 16.7272 17.0627 16.8935 17.3623 17.0001C17.6618 17.1067 17.9799 17.1514 18.2972 17.1314C18.8003 17.1441 19.2936 16.9912 19.7012 16.6962C20.0327 16.4809 20.2838 16.1622 20.4154 15.7896H22.7849C22.5324 16.8502 21.9159 17.7888 21.0425 18.4423C20.2046 18.9979 19.2144 19.2792 18.2092 19.2474C17.4918 19.2568 16.7798 19.122 16.1156 18.8512C15.5147 18.6008 14.9758 18.2224 14.5365 17.7424C14.0989 17.2394 13.7627 16.6567 13.5464 16.0263C13.3036 15.3216 13.1848 14.5802 13.1952 13.835C13.1908 13.1024 13.3136 12.3745 13.5582 11.6837C13.8868 10.712 14.5151 9.86923 15.353 9.27636C16.1909 8.6835 17.1952 8.37103 18.2219 8.38379C18.9799 8.36797 19.7295 8.54518 20.4 8.89873C21.006 9.23073 21.5288 9.69567 21.9291 10.2586C22.3386 10.8493 22.632 11.5122 22.794 12.2123C22.9716 12.964 23.0349 13.7381 22.9818 14.5086H15.9241C15.8669 15.2326 16.093 15.9505 16.5548 16.5113ZM19.6513 11.0999C19.4538 10.9025 19.2162 10.7498 18.9546 10.6519C18.693 10.554 18.4135 10.5132 18.1348 10.5324C17.7651 10.5183 17.398 10.6001 17.0694 10.7699C16.8088 10.9132 16.5788 11.106 16.3924 11.3374C16.2271 11.5544 16.104 11.8004 16.0294 12.0627C15.9621 12.2814 15.9201 12.5071 15.9041 12.7354H20.2756C20.2375 12.1403 20.0206 11.5706 19.6531 11.1008L19.6513 11.0999Z" fill="black"/>
<path d="M20.8183 5.70117H15.3406V7.10003H20.8183V5.70117Z" fill="black"/>
</svg>
