<svg width="24" height="24" viewBox="0 0 24 24" fill="none" xmlns="http://www.w3.org/2000/svg">
<path d="M10 5V4H9V5H10ZM14 5H15V4H14V5ZM14 9V10H15V9H14ZM10 9H9V10H10V9ZM18 15V14H17V15H18ZM22 15H23V14H22V15ZM22 19V20H23V19H22ZM18 19H17V20H18V19ZM2 15V14H1V15H2ZM6 15H7V14H6V15ZM6 19V20H7V19H6ZM2 19H1V20H2V19ZM9.5 8H10.5V6H9.5V8ZM9.81225 8.34838L10.7622 8.03613L10.1378 6.13613L9.18775 6.44838L9.81225 8.34838ZM14.5 6H13.5V8H14.5V6ZM14.8122 6.44838L13.8622 6.13613L13.2378 8.03613L14.1878 8.34838L14.8122 6.44838ZM3.01727 14.4384L2.95572 15.4366L4.95193 15.5597L5.01348 14.5616L3.01727 14.4384ZM18.9865 14.5616L19.0481 15.5597L21.0443 15.4366L20.9827 14.4384L18.9865 14.5616ZM3 7V9C4.10457 9 5 8.10457 5 7H3ZM3 7H1C1 8.10457 1.89543 9 3 9V7ZM3 7V5C1.89543 5 1 5.89543 1 7H3ZM3 7H5C5 5.89543 4.10457 5 3 5V7ZM21 7V9C22.1046 9 23 8.10457 23 7H21ZM21 7H19C19 8.10457 19.8954 9 21 9V7ZM21 7V5C19.8954 5 19 5.89543 19 7H21ZM21 7H23C23 5.89543 22.1046 5 21 5V7ZM10 6H14V4H10V6ZM13 5V9H15V5H13ZM14 8H10V10H14V8ZM18 16H22V14H18V16ZM21 15V19H23V15H21ZM22 18H18V20H22V18ZM19 19V15H17V19H19ZM5 15V19H7V15H5ZM6 18H2V20H6V18ZM3 19V15H1V19H3ZM3 8H9.5V6H3V8ZM9 5V9H11V5H9ZM14.5 8H21V6H14.5V8ZM5.01348 14.5616C5.19276 11.6543 7.14918 9.22369 9.81225 8.34838L9.18775 6.44838C5.76553 7.5732 3.24815 10.6944 3.01727 14.4384L5.01348 14.5616ZM14.1878 8.34838C16.8508 9.22369 18.8072 11.6543 18.9865 14.5616L20.9827 14.4384C20.7519 10.6944 18.2345 7.5732 14.8122 6.44838L14.1878 8.34838ZM2 16H6V14H2V16Z" fill="black"/>
</svg>
