<svg width="24" height="24" viewBox="0 0 24 24" fill="none" xmlns="http://www.w3.org/2000/svg">
<path d="M20.5 12C20.5 16.6944 16.6944 20.5 12 20.5C9.59119 20.5 7.4164 19.498 5.8697 17.8881L3.5 19.75V12C3.5 7.30558 7.30558 3.5 12 3.5C14.4088 3.5 16.5836 4.50199 18.1303 6.11191L20.5 4.25V12Z" stroke="black" stroke-width="2"/>
<path d="M12 15.5C13.933 15.5 15.5 13.933 15.5 12C15.5 10.067 13.933 8.5 12 8.5C10.067 8.5 8.5 10.067 8.5 12C8.5 13.933 10.067 15.5 12 15.5Z" stroke="black" stroke-width="2"/>
</svg>
