<svg width="24" height="24" viewBox="0 0 24 24" fill="none" xmlns="http://www.w3.org/2000/svg">
<path d="M19 21V22H20V21H19ZM19 3H20V2H19V3ZM19 17V18H20V17H19ZM9 6H8V8H9V7V6ZM15 8H16V6H15V7V8ZM9 10H8V12H9V11V10ZM12 12H13V10H12V11V12ZM7 21V22H19V21V20H7V21ZM19 21H20V3H19H18V21H19ZM19 3V2H7V3V4H19V3ZM7 3V2C5.34315 2 4 3.34315 4 5H5H6C6 4.44771 6.44771 4 7 4V3ZM5 5H4V19H5H6V5H5ZM7 21V20C6.44771 20 6 19.5523 6 19H5H4C4 20.6569 5.34315 22 7 22V21ZM7 21V22H10V21V20H7V21ZM5 19H6C6 18.4477 6.44771 18 7 18V17V16C5.34315 16 4 17.3431 4 19H5ZM7 17V18H19V17V16H7V17ZM19 17H20V12H19H18V17H19ZM9 7V8H15V7V6H9V7ZM9 11V12H12V11V10H9V11Z" fill="black"/>
</svg>
