<svg width="24" height="24" viewBox="0 0 24 24" fill="none" xmlns="http://www.w3.org/2000/svg">
<path d="M5 3V2H4V3H5ZM19 3H20V2H19V3ZM19 21L18.5039 21.8682L20 22.7232V21H19ZM12 17L12.4961 16.1318L12 15.8482L11.5039 16.1318L12 17ZM5 21H4V22.7232L5.49614 21.8682L5 21ZM4 13V14H6V13H4ZM6 19V18H4V19H6ZM20 14V13H18V14H20ZM18 8V9H20V8H18ZM5 4H19V2H5V4ZM19.4961 20.1318L12.4961 16.1318L11.5039 17.8682L18.5039 21.8682L19.4961 20.1318ZM11.5039 16.1318L4.50386 20.1318L5.49614 21.8682L12.4961 17.8682L11.5039 16.1318ZM6 13V3H4V13H6ZM6 21V19H4V21H6ZM18 14V21H20V14H18ZM18 3V8H20V3H18Z" fill="black"/>
<path d="M1.66969 14.0561L0.72583 14.3865L1.38653 16.2742L2.33039 15.9439L1.66969 14.0561ZM22.3304 8.94384L23.2742 8.61349L22.6135 6.72577L21.6696 7.05612L22.3304 8.94384ZM2.33039 15.9439L22.3304 8.94384L21.6696 7.05612L1.66969 14.0561L2.33039 15.9439Z" fill="black"/>
</svg>
