<svg width="24" height="24" viewBox="0 0 24 24" fill="none" xmlns="http://www.w3.org/2000/svg">
<path d="M5 5.5L9 3L12 4L15 3L19 5.5V9L21 10.5V14.5L19 16V18.5L15 21L12 20L9 21L5 18.5V16L3 14.5V10.5L5 9V5.5Z" stroke="black" stroke-width="2" stroke-linecap="square"/>
<path d="M12 4.5V8L15 11M12 19.5V16L9 13" stroke="black" stroke-width="2" stroke-linecap="square"/>
<path d="M9 14C9.55228 14 10 13.5523 10 13C10 12.4477 9.55228 12 9 12C8.44772 12 8 12.4477 8 13C8 13.5523 8.44772 14 9 14Z" stroke="black" stroke-width="2"/>
<path d="M15 12C15.5523 12 16 11.5523 16 11C16 10.4477 15.5523 10 15 10C14.4477 10 14 10.4477 14 11C14 11.5523 14.4477 12 15 12Z" stroke="black" stroke-width="2"/>
</svg>
