<svg width="24" height="24" viewBox="0 0 24 24" fill="none" xmlns="http://www.w3.org/2000/svg">
<path d="M6.5 8C7.60457 8 8.5 7.10457 8.5 6C8.5 4.89543 7.60457 4 6.5 4C5.39543 4 4.5 4.89543 4.5 6C4.5 7.10457 5.39543 8 6.5 8Z" stroke="black" stroke-width="2"/>
<path d="M6.5 20C7.60457 20 8.5 19.1046 8.5 18C8.5 16.8954 7.60457 16 6.5 16C5.39543 16 4.5 16.8954 4.5 18C4.5 19.1046 5.39543 20 6.5 20Z" stroke="black" stroke-width="2"/>
<path d="M17.5 8C18.6046 8 19.5 7.10457 19.5 6C19.5 4.89543 18.6046 4 17.5 4C16.3954 4 15.5 4.89543 15.5 6C15.5 7.10457 16.3954 8 17.5 8Z" stroke="black" stroke-width="2"/>
<path d="M6.5 8V16" stroke="black" stroke-width="2" stroke-linecap="square" stroke-linejoin="round"/>
<path d="M17.5 8V12H6.5V16" stroke="black" stroke-width="2" stroke-linecap="square"/>
</svg>
