<svg width="24" height="24" viewBox="0 0 24 24" fill="none" xmlns="http://www.w3.org/2000/svg">
<path d="M4.00195 4.00003V3.00003H3.00195V4.00003H4.00195ZM20.002 4H21.002V3H20.002V4ZM20.002 18.0357V19.0357H21.002V18.0357H20.002ZM4.00195 18.0358H3.00195V19.0358H4.00195V18.0358ZM11.9977 20.5358L11.3553 21.3021L11.9939 21.8375L12.6357 21.3058L11.9977 20.5358ZM15.0153 18.0358V17.0358H14.6548L14.3773 17.2657L15.0153 18.0358ZM9.01526 18.0358L9.65766 17.2694L9.37894 17.0358H9.01526V18.0358ZM10.9998 11.9141V12.9141H12.9998V11.9141H10.9998ZM13 15V14H11V15H13ZM11 15.01V16.01H13V15.01H11ZM4.00195 5.00003L20.002 5V3L4.00195 3.00003V5.00003ZM19.002 4V18.0357H21.002V4H19.002ZM5.00195 18.0358V4.00003H3.00195V18.0358H5.00195ZM20.0019 17.0357L15.0153 17.0358V19.0358L20.002 19.0357L20.0019 17.0357ZM14.3773 17.2657L11.3597 19.7657L12.6357 21.3058L15.6532 18.8058L14.3773 17.2657ZM12.6401 19.7694L9.65766 17.2694L8.37286 18.8021L11.3553 21.3021L12.6401 19.7694ZM9.01526 17.0358H4.00195V19.0358H9.01526V17.0358ZM12.9998 11.9141C12.9998 11.8608 13.0085 11.832 13.0147 11.8162C13.0215 11.7987 13.0341 11.7751 13.0616 11.7424C13.1309 11.66 13.2339 11.583 13.4387 11.4438L12.3145 9.78969C11.9771 10.019 10.9998 10.6278 10.9998 11.9141H12.9998ZM13.4387 11.4438L13.4435 11.4406L12.3192 9.78651L12.3145 9.78969L13.4387 11.4438ZM13.4435 11.4406C13.8798 11.144 14.6234 10.5556 14.6234 9.42768H12.6234C12.6234 9.47489 12.6166 9.50037 12.6124 9.51261C12.6081 9.5253 12.6011 9.54027 12.586 9.56084C12.5488 9.61136 12.4764 9.67969 12.3192 9.78651L13.4435 11.4406ZM14.6234 9.42768C14.6234 8.04769 13.5134 6.91333 12.1234 6.91333V8.91333C12.3909 8.91333 12.6234 9.13426 12.6234 9.42768H14.6234ZM12.1234 6.91333C10.7334 6.91333 9.62341 8.04769 9.62341 9.42768H11.6234C11.6234 9.13426 11.8559 8.91333 12.1234 8.91333V6.91333ZM11 15V15.01H13V15H11Z" fill="black"/>
</svg>
