<svg width="24" height="24" viewBox="0 0 24 24" fill="none" xmlns="http://www.w3.org/2000/svg">
<path fill-rule="evenodd" clip-rule="evenodd" d="M4.00015 21.4144L21.4144 4.00015L20.0002 2.58594L10.837 11.7491C10.3468 11.1701 9.91044 10.544 9.5358 9.87866L11.1295 8.285L9.54403 3.00024H3V4.00024C3 8.33484 4.62228 12.2905 7.29279 15.2933L2.58594 20.0002L4.00015 21.4144ZM8.70977 13.8763L9.41857 13.1675C8.62432 12.2515 7.94706 11.2312 7.40992 10.1299L7.09725 9.48878L8.87054 7.71549L8.05597 5.00024H5.0328C5.25592 8.39002 6.60509 11.4722 8.70977 13.8763Z" fill="black"/>
<path d="M19.0001 18.9674C16.3236 18.7913 13.8388 17.9131 11.7282 16.5152L10.2885 17.955C13.0416 19.8746 16.3894 21.0002 20.0001 21.0002H21.0001V14.4562L15.7153 12.8708L14.1217 14.4644C14.0488 14.4234 13.9763 14.3816 13.9044 14.3391L12.451 15.7925C12.9068 16.0848 13.3806 16.3514 13.8705 16.5903L14.5116 16.903L16.2849 15.1297L19.0001 15.9443V18.9674Z" fill="black"/>
</svg>
