<svg width="24" height="24" viewBox="0 0 24 24" fill="none" xmlns="http://www.w3.org/2000/svg">
<path d="M7.5 7V8H8.03518L8.33205 7.5547L7.5 7ZM3 7V6H2V7H3ZM3 20H2V21H3V20ZM21 20V21H22V20H21ZM21 7H22V6H21V7ZM16.5 7L15.6679 7.5547L15.9648 8H16.5V7ZM14.5 4L15.3321 3.4453L15.0352 3H14.5V4ZM9.5 4V3H8.96482L8.66795 3.4453L9.5 4ZM7.5 6H3V8H7.5V6ZM2 7V20H4V7H2ZM3 21H21V19H3V21ZM22 20V7H20V20H22ZM21 6H16.5V8H21V6ZM17.3321 6.4453L15.3321 3.4453L13.6679 4.5547L15.6679 7.5547L17.3321 6.4453ZM14.5 3H9.5V5H14.5V3ZM8.66795 3.4453L6.66795 6.4453L8.33205 7.5547L10.3321 4.5547L8.66795 3.4453ZM14 13C14 14.1046 13.1046 15 12 15V17C14.2091 17 16 15.2091 16 13H14ZM12 15C10.8954 15 10 14.1046 10 13H8C8 15.2091 9.79086 17 12 17V15ZM10 13C10 11.8954 10.8954 11 12 11V9C9.79086 9 8 10.7909 8 13H10ZM12 11C13.1046 11 14 11.8954 14 13H16C16 10.7909 14.2091 9 12 9V11Z" fill="black"/>
</svg>
