<svg width="24" height="24" viewBox="0 0 24 24" fill="none" xmlns="http://www.w3.org/2000/svg">
<path d="M3.00003 6.9999V5.9999H2.00003V6.9999H3.00003ZM3.00003 19.9999H2.00003V20.9999H3.00003V19.9999ZM21 6.9999H22V5.9999H21V6.9999ZM16.5 6.9999L15.6679 7.5546L15.9648 7.9999H16.5V6.9999ZM14.5 3.9999L15.3321 3.4452L15.0352 2.9999H14.5V3.9999ZM9.50003 2.9999H8.50003V4.9999H9.50003V2.9999ZM20 14.9999V15.9999H22V14.9999H20ZM3.70714 2.29279L3.00003 1.58569L1.58582 2.9999L2.29292 3.70701L3.70714 2.29279ZM20.2929 21.707L21 22.4141L22.4142 20.9999L21.7071 20.2928L20.2929 21.707ZM10.6669 11.5089L11.412 10.842L10.0782 9.35177L9.33312 10.0187L10.6669 11.5089ZM14.9813 15.6668L15.6482 14.9217L14.1579 13.5879L13.491 14.333L14.9813 15.6668ZM7.00003 5.9999H3.00003V7.9999H7.00003V5.9999ZM2.00003 6.9999V19.9999H4.00003V6.9999H2.00003ZM3.00003 20.9999H20V18.9999H3.00003V20.9999ZM21 5.9999H16.5V7.9999H21V5.9999ZM17.3321 6.4452L15.3321 3.4452L13.6679 4.5546L15.6679 7.5546L17.3321 6.4452ZM14.5 2.9999H9.50003V4.9999H14.5V2.9999ZM22 14.9999V6.9999H20V14.9999H22ZM12 14.9999C10.8954 14.9999 10 14.1045 10 12.9999H8.00003C8.00003 15.2091 9.79089 16.9999 12 16.9999V14.9999ZM10 12.9999C10 12.4077 10.2562 11.8766 10.6669 11.5089L9.33312 10.0187C8.51638 10.7497 8.00003 11.8152 8.00003 12.9999H10ZM13.491 14.333C13.1233 14.7438 12.5922 14.9999 12 14.9999V16.9999C13.1848 16.9999 14.2503 16.4836 14.9813 15.6668L13.491 14.333ZM2.29292 3.70701L20.2929 21.707L21.7071 20.2928L3.70714 2.29279L2.29292 3.70701Z" fill="black"/>
</svg>
