<svg width="24" height="24" viewBox="0 0 24 24" fill="none" xmlns="http://www.w3.org/2000/svg">
<path d="M4.5 17H2V5H16.5L18.25 9.5L22 11V17H19.75" stroke="black" stroke-width="2"/>
<path d="M9.5 17H14.5" stroke="black" stroke-width="2"/>
<path d="M7 19C8.24264 19 9.25 17.9926 9.25 16.75C9.25 15.5074 8.24264 14.5 7 14.5C5.75736 14.5 4.75 15.5074 4.75 16.75C4.75 17.9926 5.75736 19 7 19Z" stroke="black" stroke-width="2"/>
<path d="M17 19C18.2426 19 19.25 17.9926 19.25 16.75C19.25 15.5074 18.2426 14.5 17 14.5C15.7574 14.5 14.75 15.5074 14.75 16.75C14.75 17.9926 15.7574 19 17 19Z" stroke="black" stroke-width="2"/>
<path d="M14.5 10H11.9167L12.3334 7L8.5 12H11.0833L10.6667 15L14.5 10Z" fill="black"/>
</svg>
