<svg width="24" height="24" viewBox="0 0 24 24" fill="none" xmlns="http://www.w3.org/2000/svg">
<path d="M12.0002 4.99693V2.99609M16 5.00016V3.00016M8.00018 5V2.99609M11.9999 21V19M16 21.0001V19.0001M7.99996 20.9995V18.9995M19 16.0003H21M19 7.99969H21M19 11.9998H21M3 11.9997H5M3 16.0003H5M3 7.99969H5M15.0012 12C15.0012 13.6575 13.6575 15.0012 12 15.0012C10.3424 15.0012 8.99872 13.6575 8.99872 12C8.99872 10.3425 10.3424 8.99875 12 8.99875C13.6575 8.99875 15.0012 10.3425 15.0012 12ZM4.99997 5H19V19H4.99997V5Z" stroke="black" stroke-width="2" stroke-linecap="square"/>
</svg>
