<svg width="24" height="24" viewBox="0 0 24 24" fill="none" xmlns="http://www.w3.org/2000/svg">
<path fill-rule="evenodd" clip-rule="evenodd" d="M4.41455 5.4838C9.06323 0.0735707 17.6827 1.14152 20.905 7.46127C18.6367 7.46205 15.0847 7.46065 13.161 7.46127C11.7657 7.46174 10.865 7.43002 9.88931 7.94361C8.74245 8.54735 7.877 9.6664 7.57497 10.9809L4.41455 5.4838Z" fill="black"/>
<path fill-rule="evenodd" clip-rule="evenodd" d="M8.67297 11.9993C8.67297 13.8329 10.1639 15.3247 11.9965 15.3247C13.829 15.3247 15.3199 13.833 15.3199 11.9993C15.3199 10.1657 13.829 8.67383 11.9965 8.67383C10.1639 8.67383 8.67297 10.1657 8.67297 11.9993Z" fill="black"/>
<path fill-rule="evenodd" clip-rule="evenodd" d="M13.2863 16.3521C11.4209 16.9064 9.23796 16.2916 8.04219 14.2276C7.12939 12.6521 4.71771 8.45081 3.62163 6.54053C-0.217376 12.4246 3.09133 20.4431 10.0609 21.8117L13.2863 16.3521Z" fill="black"/>
<path fill-rule="evenodd" clip-rule="evenodd" d="M15.0837 8.67383C16.6374 10.1188 16.9758 12.4588 15.9233 14.2732C15.1304 15.6402 12.5998 19.9114 11.3732 21.9796C18.5541 22.4223 23.7888 15.3846 21.4243 8.67383H15.0837Z" fill="black"/>
</svg>
