<svg width="24" height="24" viewBox="0 0 24 24" fill="none" xmlns="http://www.w3.org/2000/svg">
<path d="M12 3.01V3" stroke="black" stroke-width="2" stroke-linecap="round"/>
<path d="M12 21V21.01" stroke="black" stroke-width="2" stroke-linecap="round"/>
<path d="M15.4421 3.69479L15.446 3.68555" stroke="black" stroke-width="2" stroke-linecap="round"/>
<path d="M8.55779 20.3154L8.55396 20.3247" stroke="black" stroke-width="2" stroke-linecap="round"/>
<path d="M18.3604 5.64477L18.3675 5.6377" stroke="black" stroke-width="2" stroke-linecap="round"/>
<path d="M5.63953 18.3652L5.63245 18.3723" stroke="black" stroke-width="2" stroke-linecap="round"/>
<path d="M20.3102 8.5634L20.3195 8.55957" stroke="black" stroke-width="2" stroke-linecap="round"/>
<path d="M3.68966 15.4473L3.68042 15.4511" stroke="black" stroke-width="2" stroke-linecap="round"/>
<path d="M3.005 12.0049H2.995" stroke="black" stroke-width="2" stroke-linecap="round"/>
<path d="M20.995 12.0049H21.005" stroke="black" stroke-width="2" stroke-linecap="round"/>
<path d="M5.63976 5.64477L5.63269 5.6377" stroke="black" stroke-width="2" stroke-linecap="round"/>
<path d="M18.3606 18.3652L18.3677 18.3723" stroke="black" stroke-width="2" stroke-linecap="round"/>
<path d="M3.69003 8.56242L3.68079 8.55859" stroke="black" stroke-width="2" stroke-linecap="round"/>
<path d="M20.3105 15.4473L20.3197 15.4511" stroke="black" stroke-width="2" stroke-linecap="round"/>
<path d="M8.55778 3.69479L8.55396 3.68555" stroke="black" stroke-width="2" stroke-linecap="round"/>
<path d="M15.4421 20.3154L15.4459 20.3247" stroke="black" stroke-width="2" stroke-linecap="round"/>
</svg>
