<svg width="24" height="24" viewBox="0 0 24 24" fill="none" xmlns="http://www.w3.org/2000/svg">
<path d="M7 19C4.23858 19 2 16.7614 2 14C2 11.4673 3.88316 9.37436 6.32568 9.04508C7.13649 6.69118 9.37075 5 12 5C15.3137 5 18 7.68629 18 11C20.2091 11 22 12.7909 22 15C22 17.2091 20.2091 19 18 19H7Z" stroke="black" stroke-width="2" stroke-linecap="round"/>
<path d="M12 11.25V12.75L15 10.25L12 7.75V9.25C10.067 9.25 8.5 10.817 8.5 12.75C8.5 14.683 10.067 16.25 12 16.25C13.933 16.25 15.5 14.683 15.5 12.75H13.5C13.5 13.5784 12.8284 14.25 12 14.25C11.1716 14.25 10.5 13.5784 10.5 12.75C10.5 11.9216 11.1716 11.25 12 11.25Z" fill="black"/>
</svg>
