<svg width="24" height="24" viewBox="0 0 24 24" fill="none" xmlns="http://www.w3.org/2000/svg">
<path d="M14.4522 12.4919C15.0665 12.1774 15.7625 12 16.5 12C17.1163 12 17.7037 12.1239 18.2386 12.3482C19.8606 13.0282 21 14.631 21 16.5C21 18.9853 18.9853 21 16.5 21H9C5.68629 21 3 18.3137 3 15C3 11.6863 5.68629 9 9 9C9.72036 9 10.4111 9.12695 11.051 9.35969C12.5593 9.90829 13.7854 11.0447 14.4522 12.4919Z" stroke="black" stroke-width="2" stroke-linecap="square"/>
<path d="M18.4639 12C18.8042 11.4117 18.999 10.7286 18.999 10C18.999 7.79086 17.2081 6 14.999 6C13.1351 6 11.569 7.27477 11.125 9" stroke="black" stroke-width="2" stroke-linecap="square"/>
<path d="M15 2.5V2" stroke="black" stroke-width="2" stroke-linecap="square"/>
<path d="M10.0489 4.55033L9.69531 4.19678" stroke="black" stroke-width="2" stroke-linecap="square"/>
<path d="M19.9453 4.55033L20.2989 4.19678" stroke="black" stroke-width="2" stroke-linecap="square"/>
<path d="M23 9.5H22.5" stroke="black" stroke-width="2" stroke-linecap="square"/>
</svg>
