<svg width="24" height="24" viewBox="0 0 24 24" fill="none" xmlns="http://www.w3.org/2000/svg">
<path d="M12 21C16.9706 21 21 16.9706 21 12C21 7.02944 16.9706 3 12 3C7.02944 3 3 7.02944 3 12C3 16.9706 7.02944 21 12 21Z" stroke="black" stroke-width="2" stroke-linecap="square"/>
<path d="M7.75 11H6.75V13H7.75V11ZM10.75 13H11.75V11H10.75V13ZM12.25 16V15C10.9905 15 9.75 13.7865 9.75 12H8.75H7.75C7.75 14.6318 9.64347 17 12.25 17V16ZM8.75 12H9.75C9.75 10.2135 10.9905 9 12.25 9V8V7C9.64347 7 7.75 9.36818 7.75 12H8.75ZM12.25 8V9C12.9019 9 13.5211 9.30363 13.9909 9.8515L14.75 9.20058L15.5091 8.54966C14.7084 7.61576 13.5568 7 12.25 7V8ZM14.75 14.7994L13.9909 14.1485C13.5211 14.6964 12.9019 15 12.25 15V16V17C13.5568 17 14.7084 16.3842 15.5091 15.4503L14.75 14.7994ZM7.75 12V13H10.75V12V11H7.75V12Z" fill="black"/>
</svg>
