<svg width="24" height="24" viewBox="0 0 24 24" fill="none" xmlns="http://www.w3.org/2000/svg">
<path d="M12 21C16.9706 21 21 16.9706 21 12C21 7.02944 16.9706 3 12 3C7.02944 3 3 7.02944 3 12C3 16.9706 7.02944 21 12 21Z" stroke="black" stroke-width="2" stroke-linecap="square"/>
<path d="M14.2468 7.71155C13.7962 7.27131 13.1798 7 12.5 7C11.1193 7 10 8.11929 10 9.5C10 10.5862 10.6189 11.3559 10.8829 12M10.8829 12C10.9545 12.1746 11 12.34 11 12.5L9.5 16H14M10.8829 12H9M10.8829 12H14" stroke="black" stroke-width="2" stroke-linecap="square"/>
</svg>
