<svg width="24" height="24" viewBox="0 0 24 24" fill="none" xmlns="http://www.w3.org/2000/svg">
<path d="M3 19H2V20H3V19ZM3 5V4H2V5H3ZM12 19V20H13V19H12ZM21 5H22V4H21V5ZM20 10V11H22V10H20ZM4 19V5H2V19H4ZM12 18H3V20H12V18ZM20 5V10H22V5H20ZM3 6H12V4H3V6ZM12 6H21V4H12V6ZM13 19V5H11V19H13Z" fill="black"/>
<path d="M17.7071 14.2928L17 13.5857L15.5858 14.9999L16.2929 15.707L17.7071 14.2928ZM20.2929 19.707L21 20.4141L22.4142 18.9999L21.7071 18.2928L20.2929 19.707ZM16.2929 18.2928L15.5858 18.9999L17 20.4141L17.7071 19.707L16.2929 18.2928ZM21.7071 15.707L22.4142 14.9999L21 13.5857L20.2929 14.2928L21.7071 15.707ZM16.2929 15.707L18.2929 17.707L19.7071 16.2928L17.7071 14.2928L16.2929 15.707ZM18.2929 17.707L20.2929 19.707L21.7071 18.2928L19.7071 16.2928L18.2929 17.707ZM17.7071 19.707L19.7071 17.707L18.2929 16.2928L16.2929 18.2928L17.7071 19.707ZM19.7071 17.707L21.7071 15.707L20.2929 14.2928L18.2929 16.2928L19.7071 17.707Z" fill="black"/>
</svg>
