<svg width="24" height="24" viewBox="0 0 24 24" fill="none" xmlns="http://www.w3.org/2000/svg">
<path d="M3 5V4H2V5H3ZM21 5H22V4H21V5ZM3 19H2V20H3V19ZM21 12V13H22V12H21ZM11 20H12V18H11V20ZM3 6H21V4H3V6ZM4 19V12H2V19H4ZM4 12V5H2V12H4ZM20 5V12H22V5H20ZM3 13H21V11H3V13ZM11 18H3V20H11V18Z" fill="black"/>
<path d="M17.7071 16.2928L17 15.5857L15.5858 16.9999L16.2929 17.707L17.7071 16.2928ZM20.2929 21.707L21 22.4141L22.4142 20.9999L21.7071 20.2928L20.2929 21.707ZM16.2929 20.2928L15.5858 20.9999L17 22.4141L17.7071 21.707L16.2929 20.2928ZM21.7071 17.707L22.4142 16.9999L21 15.5857L20.2929 16.2928L21.7071 17.707ZM16.2929 17.707L18.2929 19.707L19.7071 18.2928L17.7071 16.2928L16.2929 17.707ZM18.2929 19.707L20.2929 21.707L21.7071 20.2928L19.7071 18.2928L18.2929 19.707ZM17.7071 21.707L19.7071 19.707L18.2929 18.2928L16.2929 20.2928L17.7071 21.707ZM19.7071 19.707L21.7071 17.707L20.2929 16.2928L18.2929 18.2928L19.7071 19.707Z" fill="black"/>
</svg>
