<svg width="24" height="24" viewBox="0 0 24 24" fill="none" xmlns="http://www.w3.org/2000/svg">
<path d="M13 7V6H11V7H13ZM11 8V9H13V8H11ZM13 16V15H11V16H13ZM11 17V18H13V17H11ZM20 12C20 16.4183 16.4183 20 12 20V22C17.5228 22 22 17.5228 22 12H20ZM12 20C7.58172 20 4 16.4183 4 12H2C2 17.5228 6.47715 22 12 22V20ZM4 12C4 7.58172 7.58172 4 12 4V2C6.47715 2 2 6.47715 2 12H4ZM12 4C16.4183 4 20 7.58172 20 12H22C22 6.47715 17.5228 2 12 2V4ZM11 7V8H13V7H11ZM11 16V17H13V16H11ZM12 14.5C10.6193 14.5 9.5 13.3807 9.5 12H7.5C7.5 14.4853 9.51472 16.5 12 16.5V14.5ZM9.5 12C9.5 10.6193 10.6193 9.5 12 9.5V7.5C9.51472 7.5 7.5 9.51472 7.5 12H9.5ZM12 9.5C12.9082 9.5 13.7044 9.98369 14.1435 10.7123L15.8565 9.6801C15.0707 8.37589 13.6381 7.5 12 7.5V9.5ZM14.1435 13.2877C13.7044 14.0163 12.9082 14.5 12 14.5V16.5C13.6381 16.5 15.0707 15.6241 15.8565 14.3199L14.1435 13.2877Z" fill="black"/>
</svg>
