<svg width="24" height="24" viewBox="0 0 24 24" fill="none" xmlns="http://www.w3.org/2000/svg">
<path d="M8 19.0001V20.0001H8.98197L8.99983 19.0183L8 19.0001ZM3 19.0001H2V20.0001H3V19.0001ZM3 5.00009V4.00009H2V5.00009H3ZM21 5.00009H22V4.00009H21V5.00009ZM21 19.0001V20.0001H22V19.0001H21ZM16 19.0001L15.0002 19.0183L15.018 20.0001H16V19.0001ZM9 17.0001H8V19.0001H9V17.0001ZM15 19.0001H16V17.0001H15V19.0001ZM9.88859 4.89124C9.82847 4.34224 9.33468 3.94592 8.78568 4.00603C8.23667 4.06615 7.84035 4.55994 7.90047 5.10894L9.88859 4.89124ZM16.0995 5.10894C16.1596 4.55994 15.7633 4.06615 15.2143 4.00603C14.6653 3.94592 14.1715 4.34224 14.1114 4.89124L16.0995 5.10894ZM8 18.0001H3V20.0001H8V18.0001ZM3 6.00009H21V4.00009H3V6.00009ZM21 18.0001H16V20.0001H21V18.0001ZM20 5.00009V14.0001H22V5.00009H20ZM20 14.0001V19.0001H22V14.0001H20ZM4 19.0001V14.0001H2V19.0001H4ZM4 14.0001V5.00009H2V14.0001H4ZM9 19.0001H15V17.0001H9V19.0001ZM16.9998 18.9819C16.9777 17.7675 17.3894 16.6923 18.0664 15.9713C18.7272 15.2677 19.6787 14.8559 20.8867 14.9937L21.1133 13.0065C19.2737 12.7968 17.6989 13.441 16.6085 14.6022C15.5343 15.7462 14.9697 17.3447 15.0002 19.0183L16.9998 18.9819ZM8.99983 19.0183C9.03029 17.3447 8.46574 15.7462 7.39152 14.6022C6.30107 13.441 4.72629 12.7968 2.88672 13.0065L3.11328 14.9937C4.32129 14.8559 5.27279 15.2677 5.93359 15.9713C6.61061 16.6923 7.02227 17.7675 7.00017 18.9819L8.99983 19.0183ZM3.26306 14.9649C5.86568 14.2552 7.74506 13.1402 8.85303 11.3836C9.95123 9.6425 10.1699 7.46048 9.88859 4.89124L7.90047 5.10894C8.16117 7.4897 7.90819 9.13268 7.16142 10.3166C6.42442 11.485 5.08552 12.395 2.73694 13.0353L3.26306 14.9649ZM21.2631 13.0353C18.9145 12.395 17.5756 11.485 16.8386 10.3166C16.0918 9.13268 15.8388 7.4897 16.0995 5.10894L14.1114 4.89124C13.8301 7.46048 14.0488 9.6425 15.147 11.3836C16.2549 13.1402 18.1343 14.2552 20.7369 14.9649L21.2631 13.0353Z" fill="black"/>
</svg>
