<svg width="24" height="24" viewBox="0 0 24 24" fill="none" xmlns="http://www.w3.org/2000/svg">
<path d="M12.0001 2V6M21.0001 11.0001H17.0001M7 11.0001H3M12.0001 16.127V20M7.00002 5.99996L8.46458 7.46445M17 5.99995L15.5357 7.46447M15.6255 14.6253L17 16" stroke="black" stroke-width="2" stroke-linecap="square"/>
<path d="M8.46449 14.5356C6.11614 16.5363 4.79728 19.017 4 22.0001" stroke="black" stroke-width="2" stroke-linecap="square"/>
<path d="M13 11C13 11.5523 12.5523 12 12 12C11.4477 12 11 11.5523 11 11C11 10.4477 11.4477 10 12 10C12.5523 10 13 10.4477 13 11Z" stroke="black" stroke-width="2" stroke-linecap="square"/>
</svg>
