<svg width="24" height="24" viewBox="0 0 24 24" fill="none" xmlns="http://www.w3.org/2000/svg">
<path d="M8.97971 6.78637L6.04527 6.16263L3.34241 18.8785L13.1239 20.9576L15.8268 8.24175L12.8923 7.61801M8.97971 6.78637L9.81136 2.87378L13.724 3.70542L12.8923 7.61801M8.97971 6.78637L12.8923 7.61801M8.42922 11.781L9.58458 13.5601M9.58458 13.5601L10.74 15.3392M9.58458 13.5601L11.3637 12.4048M9.58458 13.5601L7.80549 14.7155" stroke="black" stroke-width="2" stroke-linecap="square"/>
<path d="M16.5 5H16.51M19 3.75H19.01M21.5 2.5H21.51M21.5 5H21.51M21.5 7.5H21.51M19 6.25H19.01" stroke="black" stroke-width="2" stroke-linecap="round"/>
</svg>
