<svg width="24" height="24" viewBox="0 0 24 24" fill="none" xmlns="http://www.w3.org/2000/svg">
<path d="M12 16C14.2091 16 16 14.2091 16 12C16 9.79086 14.2091 8 12 8C9.79086 8 8 9.79086 8 12C8 14.2091 9.79086 16 12 16Z" stroke="black" stroke-width="2"/>
<path d="M15 15L17.75 17.75" stroke="black" stroke-width="2"/>
<path d="M8.5 3.70591C9.57589 3.25134 10.7586 3 12 3C13.2414 3 14.4241 3.25134 15.5 3.70591M15.5 20.2941C14.4241 20.7487 13.2414 21 12 21C10.7586 21 9.57589 20.7487 8.5 20.2941M3.70591 15.5C3.25134 14.4241 3 13.2414 3 12C3 10.7586 3.25134 9.57589 3.70591 8.5M20.2941 8.5C20.7487 9.57589 21 10.7586 21 12C21 13.2414 20.7487 14.4241 20.2941 15.5" stroke="black" stroke-width="2"/>
</svg>
