<svg width="24" height="24" viewBox="0 0 24 24" fill="none" xmlns="http://www.w3.org/2000/svg">
<path d="M19 19C20.6569 19 22 17.6569 22 16C22 14.3431 20.6569 13 19 13C17.3431 13 16 14.3431 16 16C16 17.6569 17.3431 19 19 19Z" stroke="black" stroke-width="2"/>
<path d="M19 10C16.027 10 13.559 12.1623 13.083 15H10" stroke="black" stroke-width="2" stroke-linecap="square"/>
<path d="M9 16C9 17.6569 7.65685 19 6 19C4.34315 19 3 17.6569 3 16" stroke="black" stroke-width="2"/>
<path d="M13 5H15L17 10" stroke="black" stroke-width="2" stroke-linecap="square"/>
<path d="M10 15H2V9H10V15Z" stroke="black" stroke-width="2" stroke-linecap="square"/>
</svg>
