<svg width="24" height="24" viewBox="0 0 24 24" fill="none" xmlns="http://www.w3.org/2000/svg">
<path d="M1.51953 12.3236L9.6763 8.52002L13.4799 16.6768L5.3231 20.4804L1.51953 12.3236Z" stroke="black" stroke-width="2"/>
<path d="M15.4062 3.01392L21.9841 5.40806L19.59 11.9859L13.0121 9.59176L15.4062 3.01392Z" stroke="black" stroke-width="2"/>
<path d="M6.41045 13.3518C6.64386 13.8523 6.4273 14.4473 5.92676 14.6807C5.42622 14.9141 4.83124 14.6976 4.59784 14.197C4.36443 13.6965 4.58099 13.1015 5.08153 12.8681C5.58207 12.6347 6.17705 12.8513 6.41045 13.3518Z" fill="black"/>
<path d="M10.3987 14.8032C10.6321 15.3037 10.4156 15.8987 9.91504 16.1321C9.4145 16.3655 8.81952 16.1489 8.58612 15.6484C8.35271 15.1479 8.56927 14.5529 9.06981 14.3195C9.57035 14.0861 10.1653 14.3026 10.3987 14.8032Z" fill="black"/>
<path d="M18.4392 7.84205C18.2504 8.36103 17.6765 8.62861 17.1575 8.43972C16.6386 8.25083 16.371 7.67699 16.5599 7.15801C16.7488 6.63903 17.3226 6.37144 17.8416 6.56034C18.3606 6.74923 18.6281 7.32307 18.4392 7.84205Z" fill="black"/>
</svg>
