<svg width="24" height="24" viewBox="0 0 24 24" fill="none" xmlns="http://www.w3.org/2000/svg">
<path d="M21 10V5H3V19H12" stroke="black" stroke-width="2" stroke-linecap="square"/>
<path d="M21 5.63635L12 11L3 5.63635" stroke="black" stroke-width="2"/>
<path d="M21.5985 15.5L21.0005 15.8453M16.4024 18.5L17.0005 18.1547M21.5985 18.5L21.0005 18.1547M16.4023 15.5L17.0005 15.8453M19.0005 20V19.25M19.0005 14V14.75M21.0005 17C21.0005 16.6356 20.9031 16.294 20.7328 15.9998C20.387 15.4021 19.7407 15 19.0005 15C18.2603 15 17.614 15.4021 17.2681 15.9999C17.0979 16.2941 17.0005 16.6357 17.0005 17C17.0005 17.3644 17.0979 17.706 17.2681 18.0002C17.614 18.5979 18.2603 19 19.0005 19C19.7407 19 20.387 18.5979 20.7328 18.0002C20.9031 17.706 21.0005 17.3644 21.0005 17Z" stroke="black" stroke-width="2" stroke-linecap="square"/>
</svg>
