<svg width="24" height="24" viewBox="0 0 24 24" fill="none" xmlns="http://www.w3.org/2000/svg">
<path d="M21 12C21 16.9706 16.9706 21 12 21C7.02944 21 3 16.9706 3 12C3 7.02944 7.02944 3 12 3C16.9706 3 21 7.02944 21 12Z" stroke="black" stroke-width="2" stroke-linecap="square"/>
<path d="M7.5 12V11H5.5V12H7.5ZM17.5 12H16.5C16.5 14.4853 14.4853 16.5 12 16.5V17.5V18.5C15.5899 18.5 18.5 15.5899 18.5 12H17.5ZM12 17.5V16.5C9.51472 16.5 7.5 14.4853 7.5 12H6.5H5.5C5.5 15.5899 8.41015 18.5 12 18.5V17.5Z" fill="black"/>
<path d="M10 9C10 9.27614 9.77614 9.5 9.5 9.5C9.22386 9.5 9 9.27614 9 9C9 8.72386 9.22386 8.5 9.5 8.5C9.77614 8.5 10 8.72386 10 9Z" stroke="black" stroke-width="2" stroke-linecap="square"/>
<path d="M15 9C15 9.27614 14.7761 9.5 14.5 9.5C14.2239 9.5 14 9.27614 14 9C14 8.72386 14.2239 8.5 14.5 8.5C14.7761 8.5 15 8.72386 15 9Z" stroke="black" stroke-width="2" stroke-linecap="square"/>
<path d="M9.39844 9H9.59844" stroke="black" stroke-width="2" stroke-linecap="square"/>
<path d="M14.3984 9H14.5984" stroke="black" stroke-width="2" stroke-linecap="square"/>
</svg>
