<svg width="24" height="24" viewBox="0 0 24 24" fill="none" xmlns="http://www.w3.org/2000/svg">
<path d="M21 12C21 16.9706 16.9706 21 12 21C7.02944 21 3 16.9706 3 12C3 7.02944 7.02944 3 12 3C16.9706 3 21 7.02944 21 12Z" stroke="black" stroke-width="2"/>
<path d="M9.3512 12.1293C11.249 10.6234 11.5267 9.18006 10.9644 8.29901C10.6914 7.87124 10.2309 7.61139 9.73854 7.59286C9.30505 7.57655 8.86465 7.74768 8.52071 8.12281C8.06921 7.88794 7.59683 7.87775 7.19507 8.04135C6.73873 8.22716 6.39488 8.62884 6.28465 9.12419C6.05761 10.1444 6.81225 11.4056 9.11063 12.1717L9.2424 12.2157L9.3512 12.1293Z" fill="black"/>
<path d="M14.8913 12.1717C17.1897 11.4057 17.9443 10.1444 17.7173 9.12418C17.6071 8.62883 17.2632 8.22715 16.8069 8.04134C16.4051 7.87775 15.9327 7.88793 15.4812 8.1228C15.1373 7.74767 14.6969 7.57654 14.2634 7.59286C13.771 7.61139 13.3105 7.87124 13.0375 8.29901C12.4752 9.18006 12.753 10.6234 14.6508 12.1293L14.7596 12.2157L14.8913 12.1717Z" fill="black"/>
<path d="M11.999 18C14.2081 18 15.999 16.2092 15.999 14C13.3162 14.2765 10.6817 14.2765 7.9989 14C7.9989 16.2092 9.78976 18 11.999 18Z" fill="black"/>
</svg>
