<svg width="24" height="24" viewBox="0 0 24 24" fill="none" xmlns="http://www.w3.org/2000/svg">
<path d="M21 12C21 16.9706 16.9706 21 12 21C7.02944 21 3 16.9706 3 12C3 7.02944 7.02944 3 12 3C16.9706 3 21 7.02944 21 12Z" stroke="black" stroke-width="2" stroke-linecap="square"/>
<path d="M7.25 10.5C7.25 10.5 7.70833 10.8 8.625 10.8C9.54167 10.8 10 10.5 10 10.5" stroke="black" stroke-width="2" stroke-linecap="square"/>
<path d="M14 10.5C14 10.5 14.4583 10.8 15.375 10.8C16.2917 10.8 16.75 10.5 16.75 10.5" stroke="black" stroke-width="2" stroke-linecap="square"/>
<path d="M10 15.5C11.3863 16.0333 12.6137 16.0333 14 15.5" stroke="black" stroke-width="2" stroke-linecap="square"/>
</svg>
