<svg width="24" height="24" viewBox="0 0 24 24" fill="none" xmlns="http://www.w3.org/2000/svg">
<path d="M18.4626 16.8758L18.2801 17.8591L20.2466 18.2239L20.429 17.2407L18.4626 16.8758ZM12.0007 3V4C15.8667 4 19.0007 7.13401 19.0007 11H20.0007H21.0007C21.0007 6.02944 16.9712 2 12.0007 2V3ZM20.0007 11H19.0007C19.0007 13.0079 18.8159 14.9718 18.4626 16.8758L19.4458 17.0583L20.429 17.2407C20.8045 15.217 21.0007 13.1309 21.0007 11H20.0007ZM8.50003 3.80456L8.93817 4.70346C9.86204 4.25315 10.9004 4 12.0007 4V3V2C10.5901 2 9.25275 2.32521 8.06189 2.90565L8.50003 3.80456Z" fill="black"/>
<path d="M15.8428 14C15.9442 13.0138 15.9961 12.013 15.9961 11C15.9961 8.79086 14.2052 7 11.9961 7C9.78696 7 7.9961 8.79086 7.9961 11C7.9961 12.7998 7.76967 14.5468 7.34375 16.214" stroke="black" stroke-width="2"/>
<path d="M13.3934 20.3586L13.0593 21.3011L14.9443 21.9694L15.2785 21.0269L13.3934 20.3586ZM15.0429 18.3991L14.0758 18.1447C13.8783 18.8955 13.6503 19.6339 13.3934 20.3586L14.3359 20.6927L15.2785 21.0269C15.5539 20.25 15.7982 19.4584 16.01 18.6536L15.0429 18.3991ZM15.5658 16.0001L14.5806 15.8289C14.4444 16.6125 14.2757 17.385 14.0758 18.1447L15.0429 18.3991L16.01 18.6536C16.2242 17.8391 16.4051 17.0112 16.5511 16.1713L15.5658 16.0001Z" fill="black"/>
<path d="M2.5517 14.7887L2.3158 15.7605L4.25936 16.2323L4.49526 15.2605L2.5517 14.7887ZM4.00266 11.0001H3.00266C3.00266 12.3066 2.84629 13.5751 2.5517 14.7887L3.52348 15.0246L4.49526 15.2605C4.82705 13.8936 5.00266 12.4667 5.00266 11.0001H4.00266ZM4.00266 11.0001H5.00266C5.00266 9.13555 5.73036 7.44309 6.91923 6.18774L6.19316 5.50012L5.46709 4.8125C3.94047 6.42448 3.00266 8.60386 3.00266 11.0001H4.00266Z" fill="black"/>
<path d="M12.0011 11C12.0011 13.7604 11.5537 16.4163 10.7275 18.8992C10.5149 19.5381 10.2772 20.1655 10.0156 20.7803" stroke="black" stroke-width="2" stroke-linecap="square"/>
<path d="M5.47494 18.6645L5.09143 19.5881L6.93851 20.3551L7.32201 19.4316L5.47494 18.6645ZM6.90548 17.6969L5.95763 17.3782C5.81115 17.8139 5.65006 18.2428 5.47494 18.6645L6.39848 19.048L7.32201 19.4316C7.51476 18.9674 7.69208 18.4952 7.85334 18.0156L6.90548 17.6969Z" fill="black"/>
</svg>
