<svg width="24" height="24" viewBox="0 0 24 24" fill="none" xmlns="http://www.w3.org/2000/svg">
<path d="M12 11V13" stroke="black" stroke-width="2" stroke-linecap="square"/>
<path d="M15.9979 13.1681C16.0002 13.1124 16.0013 13.0563 16.0013 13V11C16.0013 8.79086 14.2105 7 12.0013 7C11.3686 7 10.7702 7.14692 10.2383 7.40851" stroke="black" stroke-width="2" stroke-linecap="square"/>
<path d="M8.00347 10.8318C8.00116 10.8876 8 10.9436 8 10.9999V12.9999C8 15.2091 9.79086 16.9999 12 16.9999C12.6328 16.9999 13.2312 16.853 13.7631 16.5914" stroke="black" stroke-width="2" stroke-linecap="square"/>
<path d="M18.6991 16.8734C19.2106 15.8594 19.4987 14.7134 19.4987 13.5001V10.5001C19.4987 8.1738 18.4396 6.0949 16.7773 4.71924" stroke="black" stroke-width="2" stroke-linecap="square"/>
<path d="M4.5 11.2916V10.5C4.5 6.35786 7.85786 3 12 3C12.3798 3 12.7529 3.02823 13.1175 3.0827" stroke="black" stroke-width="2" stroke-linecap="square"/>
<path d="M15.9838 19.8566C14.8298 20.581 13.4647 20.9999 12.0017 20.9999C8.48521 20.9999 5.53396 18.5797 4.72266 15.3142" stroke="black" stroke-width="2" stroke-linecap="square"/>
</svg>
