<svg width="24" height="24" viewBox="0 0 24 24" fill="none" xmlns="http://www.w3.org/2000/svg">
<path d="M16.0007 13V17.5L11.5007 13H16.0007Z" fill="black"/>
<path d="M8.05078 11.0693V6.56934L12.5508 11.0693H8.05078Z" fill="black"/>
<path d="M8 21H9V19H8V21ZM4 20H3V21H4V20ZM20 20V21H21V20H20ZM16 19H15V21H16V19ZM5 16V15H3V16H5ZM3 8V9H5V8H3ZM4 4V3H3V4H4ZM8 5H9V3H8V5ZM16 3H15V5H16V3ZM20 4H21V3H20V4ZM21 16V15H19V16H21ZM19 8V9H21V8H19ZM8 19H4V21H8V19ZM20 19H16V21H20V19ZM5 20V16H3V20H5ZM5 8V4H3V8H5ZM4 5H8V3H4V5ZM16 5H20V3H16V5ZM19 16V20H21V16H19ZM19 4V8H21V4H19ZM12 14.625C10.5503 14.625 9.375 13.4497 9.375 12H7.375C7.375 14.5543 9.44568 16.625 12 16.625V14.625ZM12 9.375C13.4497 9.375 14.625 10.5503 14.625 12H16.625C16.625 9.44568 14.5543 7.375 12 7.375V9.375ZM13.7659 13.9642C13.2928 14.3757 12.6695 14.625 12 14.625V16.625C13.1692 16.625 14.2546 16.1898 15.0784 15.4733L13.7659 13.9642ZM10.0851 10.1759C10.5711 9.68221 11.257 9.375 12 9.375V7.375C10.703 7.375 9.50894 7.91032 8.65989 8.77273L10.0851 10.1759Z" fill="black"/>
</svg>
