<svg width="24" height="24" viewBox="0 0 24 24" fill="none" xmlns="http://www.w3.org/2000/svg">
<path d="M3.00001 4V3H2.00001V4H3.00001ZM10 4L10.8321 3.4453L10.5352 3H10V4ZM12 7L11.168 7.5547L11.4648 8H12V7ZM21 7H22V6H21V7ZM21 19V20H22V19H21ZM2.00001 9V10H4.00001V9H2.00001ZM13 18H12V20H13V18ZM3.00001 5H10V3H3.00001V5ZM9.16796 4.5547L11.168 7.5547L12.8321 6.4453L10.8321 3.4453L9.16796 4.5547ZM12 8H21V6H12V8ZM20 7V19H22V7H20ZM4.00001 9V4H2.00001V9H4.00001ZM13 20H21V18H13V20ZM8.12132 13.8787C9.29289 15.0503 9.29289 16.9497 8.12132 18.1213L9.53553 19.5355C11.4882 17.5829 11.4882 14.4171 9.53553 12.4645L8.12132 13.8787ZM8.12132 18.1213C6.94975 19.2929 5.05025 19.2929 3.87868 18.1213L2.46447 19.5355C4.41709 21.4882 7.58291 21.4882 9.53553 19.5355L8.12132 18.1213ZM3.87868 18.1213C2.70711 16.9497 2.70711 15.0503 3.87868 13.8787L2.46447 12.4645C0.511844 14.4171 0.511844 17.5829 2.46447 19.5355L3.87868 18.1213ZM3.87868 13.8787C5.05025 12.7071 6.94975 12.7071 8.12132 13.8787L9.53553 12.4645C7.58291 10.5118 4.41709 10.5118 2.46447 12.4645L3.87868 13.8787ZM9.53553 18.1213L3.87868 12.4645L2.46447 13.8787L8.12132 19.5355L9.53553 18.1213Z" fill="black"/>
</svg>
