<svg width="24" height="24" viewBox="0 0 24 24" fill="none" xmlns="http://www.w3.org/2000/svg">
<path d="M9 15H4V16.5C4 17.8807 5.11929 19 6.5 19C7.88071 19 9 17.8807 9 16.5V15Z" stroke="black" stroke-width="2"/>
<path d="M20 17H15V18.5C15 19.8807 16.1193 21 17.5 21C18.8807 21 20 19.8807 20 18.5V17Z" stroke="black" stroke-width="2"/>
<path d="M9.08109 12H3.91893C2.27513 9.3 2.66434 3 6.49987 3C10.3354 3 10.725 9.3 9.08109 12Z" stroke="black" stroke-width="2"/>
<path d="M20.0811 14H14.9189C13.2751 11.3 13.6643 5 17.4999 5C21.3354 5 21.7251 11.3 20.0811 14Z" stroke="black" stroke-width="2"/>
</svg>
