<svg width="24" height="24" viewBox="0 0 24 24" fill="none" xmlns="http://www.w3.org/2000/svg">
<path d="M15.5 9C15.5 9 15.2645 10.173 14.7188 10.7188C14.173 11.2645 13 11.5 13 11.5C13 11.5 14.173 11.7355 14.7188 12.2812C15.2645 12.827 15.5 14 15.5 14C15.5 14 15.7355 12.827 16.2812 12.2812C16.827 11.7355 18 11.5 18 11.5C18 11.5 16.827 11.2645 16.2812 10.7188C15.7355 10.173 15.5 9 15.5 9Z" fill="black"/>
<path d="M13 6C13 6 12.8116 6.93838 12.375 7.375C11.9384 7.81162 11 8 11 8C11 8 11.9384 8.18838 12.375 8.625C12.8116 9.06162 13 10 13 10C13 10 13.1884 9.06162 13.625 8.625C14.0616 8.18838 15 8 15 8C15 8 14.0616 7.81162 13.625 7.375C13.1884 6.93838 13 6 13 6Z" fill="black"/>
<path d="M7.41088 17.6187C5.3483 16.1652 4 13.7586 4 11.0357C4 6.59771 7.58172 3 12 3C16.4183 3 20 6.59771 20 11.0357C20 13.7586 18.6517 16.1652 16.5891 17.6187M7 18L6 21H18L17 18H7Z" stroke="black" stroke-width="2" stroke-linecap="square"/>
</svg>
