<svg width="24" height="24" viewBox="0 0 24 24" fill="none" xmlns="http://www.w3.org/2000/svg">
<path d="M21.002 5V4H19.002V5H21.002ZM20.002 9V10H21.002V9H20.002ZM16.002 8H15.002V10H16.002V8ZM12.002 3C7.80691 3 4.28456 5.8692 3.28552 9.75074L5.22239 10.2493C5.99952 7.2299 8.74157 5 12.002 5V3ZM20.3474 8.62478C19.013 5.32832 15.7806 3 12.002 3V5C14.9381 5 17.4543 6.80802 18.4935 9.37522L20.3474 8.62478ZM19.002 5V9H21.002V5H19.002ZM20.002 8H19.4205V10H20.002V8ZM19.4205 8H16.002V10H19.4205V8Z" fill="black"/>
<path d="M10.0024 21H7.92676V14.2462H7.83789C7.2666 14.6207 6.50488 15.1094 5.88281 15.541V13.6938C6.54932 13.2241 7.27295 12.7607 7.95215 12.3354H10.0024V21Z" fill="black"/>
<path d="M11.3101 16.9375V16.3853C11.3101 13.8843 12.5669 12.1831 14.7568 12.1831C16.9658 12.1831 18.1592 13.8652 18.1592 16.3853V16.9375C18.1592 19.2798 17.0229 21.1587 14.7124 21.1587C12.5098 21.1587 11.3101 19.4385 11.3101 16.9375ZM13.4111 16.3916V16.9312C13.4111 18.6577 13.9443 19.4829 14.7378 19.4829C15.5249 19.4829 16.0645 18.645 16.0645 16.9312V16.3916C16.0645 14.6777 15.5249 13.8589 14.7378 13.8589C13.9443 13.8589 13.4111 14.665 13.4111 16.3916Z" fill="black"/>
</svg>
