<svg width="24" height="24" viewBox="0 0 24 24" fill="none" xmlns="http://www.w3.org/2000/svg">
<path d="M21.5844 12.2271C21.5844 11.518 21.5208 10.8361 21.4026 10.1816H11.9844V14.0543H17.3662C17.1298 15.2998 16.4207 16.3543 15.3571 17.0634V19.5816H18.6026C20.4935 17.8361 21.5844 15.2725 21.5844 12.2271Z" fill="black"/>
<path d="M11.982 22.0001C14.682 22.0001 16.9456 21.1092 18.6002 19.5819L15.3547 17.0637C14.4638 17.6637 13.3274 18.0274 11.982 18.0274C9.38197 18.0274 7.17287 16.2728 6.38196 13.9092H3.05469V16.491C4.70014 19.7547 8.07288 22.0001 11.982 22.0001Z" fill="black"/>
<path d="M6.38437 13.8999C6.18437 13.2999 6.06619 12.6635 6.06619 11.9999C6.06619 11.3362 6.18437 10.6999 6.38437 10.0999V7.51807H3.0571C2.37528 8.86352 1.98438 10.3817 1.98438 11.9999C1.98438 13.6181 2.37528 15.1363 3.0571 16.4817L5.64801 14.4635L6.38437 13.8999Z" fill="black"/>
<path d="M11.982 5.98182C13.4547 5.98182 14.7638 6.49091 15.8092 7.47273L18.6729 4.60909C16.9365 2.99091 14.682 2 11.982 2C8.07288 2 4.70014 4.24546 3.05469 7.51819L6.38196 10.1C7.17287 7.73637 9.38197 5.98182 11.982 5.98182Z" fill="black"/>
</svg>
