<svg width="24" height="24" viewBox="0 0 24 24" fill="none" xmlns="http://www.w3.org/2000/svg">
<path d="M13 5V12M13 12V19M13 12H3M3 12V5M3 12V19" stroke="black" stroke-width="2" stroke-linecap="square"/>
<path d="M18 18.5L17.2526 17.8356L17 18.1198V18.5H18ZM18 19H17V20H18V19ZM22 20H23V18H22V20ZM18.2676 12L17.402 11.4993L17.3937 11.5136L17.3859 11.5282L18.2676 12ZM22 13H21V13.2396H22H23V13H22ZM18 19V20H22V19V18H18V19ZM21.4948 14.5683L20.7474 13.904L17.2526 17.8356L18 18.5L18.7474 19.1644L22.2422 15.2327L21.4948 14.5683ZM18 18.5H17V19H18H19V18.5H18ZM22 13.2396H21C21 13.4845 20.9101 13.7209 20.7474 13.904L21.4948 14.5683L22.2422 15.2327C22.7304 14.6835 23 13.9743 23 13.2396H22ZM20 11V12C20.5523 12 21 12.4477 21 13H22H23C23 11.3431 21.6569 10 20 10V11ZM18 13.2396C19 13.2396 19 13.2398 19 13.2399C19 13.2398 19 13.24 19 13.2399C19 13.2401 19 13.2407 19 13.2409C19 13.2413 19 13.2416 19 13.2419C19 13.2425 19 13.243 19 13.2432C19 13.2438 19 13.2439 19 13.2432C19 13.2417 19.0001 13.2376 19.0002 13.2315C19.0005 13.2192 19.0012 13.1982 19.0027 13.1703C19.0058 13.1139 19.012 13.0331 19.0244 12.9413C19.0521 12.7362 19.0991 12.5655 19.1493 12.4718L18.2676 12L17.3859 11.5282C17.1684 11.9345 17.0816 12.3836 17.0425 12.6733C17.0214 12.8289 17.0109 12.9642 17.0056 13.0621C17.003 13.1114 17.0016 13.1521 17.0008 13.1822C17.0005 13.1973 17.0002 13.2097 17.0001 13.2194C17.0001 13.2242 17 13.2283 17 13.2317C17 13.2334 17 13.2349 17 13.2362C17 13.2369 17 13.2375 17 13.238C17 13.2377 17 13.2383 17 13.238C17 13.2381 17 13.2392 17 13.2392C17 13.2394 17 13.2396 18 13.2396ZM18.2676 12L19.1332 12.5007C19.3076 12.1992 19.6311 12 20 12V11V10C18.8883 10 17.9192 10.6052 17.402 11.4993L18.2676 12Z" fill="black"/>
</svg>
