<svg width="24" height="24" viewBox="0 0 24 24" fill="none" xmlns="http://www.w3.org/2000/svg">
<path d="M17.0007 8V7.5C17.0007 6.67157 17.6723 6 18.5007 6C19.3291 6 20.0007 6.67157 20.0007 7.5V13.8292C20.0007 17.7895 16.7902 21 12.8299 21C10.1676 21 7.72435 19.525 6.48438 17.169M11.0007 5.5V11M11.0007 8V4.5C11.0007 3.67157 11.6723 3 12.5007 3C13.3291 3 14.0007 3.67157 14.0007 4.5V8.5M14.0007 8.5V5.5C14.0007 4.67157 14.6723 4 15.5007 4C16.3291 4 17.0007 4.67157 17.0007 5.5V12M14.0007 8.5V11.5" stroke="black" stroke-width="2" stroke-linecap="square"/>
<path d="M11 5.5C11 4.67157 10.3284 4 9.5 4C8.67157 4 8 4.67157 8 5.5V11L7.06174 10.2494C6.19921 9.55937 4.94063 9.69921 4.25061 10.5617L3.5 11.5L6.13158 16.5" stroke="black" stroke-width="2" stroke-linecap="square"/>
</svg>
