<svg width="24" height="24" viewBox="0 0 24 24" fill="none" xmlns="http://www.w3.org/2000/svg">
<path d="M8.2505 19.2735C7.27739 20.2466 5.69966 20.2466 4.72654 19.2735C3.75343 18.3004 3.75343 16.7226 4.72654 15.7495" stroke="black" stroke-width="2" stroke-linecap="square"/>
<path d="M10.9738 20.9999L3 13.0261L3.99673 12.0294H5.99018L7.98364 10.0359C9.27061 8.74896 11.1807 8.46494 12.7427 9.18386C13.1851 9.38745 13.5995 9.67148 13.964 10.0359C14.3285 10.4004 14.6125 10.8148 14.8161 11.2572C15.535 12.8192 15.251 14.7293 13.964 16.0163L11.9705 18.0098V20.0032L10.9738 20.9999Z" stroke="black" stroke-width="2" stroke-linecap="square"/>
<path d="M15.1484 11L20.0971 7.16869C21.206 6.31022 21.3097 4.67346 20.3181 3.68187C19.3265 2.69028 17.6898 2.79402 16.8313 3.90287L13 8.85164" stroke="black" stroke-width="2" stroke-linecap="square"/>
</svg>
