<svg width="24" height="24" viewBox="0 0 24 24" fill="none" xmlns="http://www.w3.org/2000/svg">
<path d="M18 13V19.9844C16.5341 20.6072 14.3894 21 12 21C9.61061 21 7.46589 20.6072 6 19.9844V13" stroke="black" stroke-width="2"/>
<path d="M20 11C20 12.1046 16.4183 13 12 13C7.58172 13 4 12.1046 4 11C4 9.89543 7.58172 9 12 9C16.4183 9 20 9.89543 20 11Z" stroke="black" stroke-width="2"/>
<path d="M9.00333 5.00333L9.005 5L9.00667 5.00333L9.01 5.005L9.00667 5.00667L9.005 5.01L9.00333 5.00667L9 5.005L9.00333 5.00333Z" stroke="black" stroke-width="2" stroke-linecap="square"/>
<path d="M13.75 3.75L14 3.25L14.25 3.75L14.75 4L14.25 4.25L14 4.75L13.75 4.25L13.25 4L13.75 3.75Z" stroke="black" stroke-width="2" stroke-linecap="square"/>
</svg>
