<svg width="24" height="24" viewBox="0 0 24 24" fill="none" xmlns="http://www.w3.org/2000/svg">
<path d="M10.5 15.75C10.5 17.5449 9.04493 19 7.25 19C5.45507 19 4 17.5449 4 15.75C4 13.9551 5.45507 12.5 7.25 12.5C9.04493 12.5 10.5 13.9551 10.5 15.75Z" stroke="black" stroke-width="2" stroke-linecap="round" stroke-linejoin="round"/>
<path d="M2.5 21L7.5 19" stroke="black" stroke-width="2" stroke-linejoin="round"/>
<path d="M1.5 15L4 14.5" stroke="black" stroke-width="2" stroke-linejoin="round"/>
<path d="M7.22266 16.75C7.77494 16.75 8.22266 16.3023 8.22266 15.75C8.22266 15.1977 7.77494 14.75 7.22266 14.75C6.67037 14.75 6.22266 15.1977 6.22266 15.75C6.22266 16.3023 6.67037 16.75 7.22266 16.75Z" fill="black"/>
<path d="M17.5 15.5L16.5 10H15.5C14.3954 10 13.5 10.8954 13.5 12V16.4845C13.5 17.8738 14.6262 19 16.0155 19C16.3356 19 16.6527 19.0611 16.9498 19.1799L21.5 21" stroke="black" stroke-width="2" stroke-linejoin="round"/>
<path d="M14.5 10V5C14.5 3.89543 15.3954 3 16.5 3H17.5L20.4443 14.7777L22.5 16" stroke="black" stroke-width="2"/>
<path d="M9.5 13V3H6.5L5 13.5" stroke="black" stroke-width="2"/>
</svg>
