<svg width="24" height="24" viewBox="0 0 24 24" fill="none" xmlns="http://www.w3.org/2000/svg">
<path d="M7 20C8.65685 20 10 18.6569 10 17C10 16.9232 9.99711 16.8471 9.99144 16.7717C9.87481 15.2215 8.58005 14 7 14C5.34315 14 4 15.3431 4 17C4 18.6569 5.34315 20 7 20Z" stroke="black" stroke-width="2" stroke-linecap="square"/>
<path d="M17 20C18.6569 20 20 18.6569 20 17C20 15.3431 18.6569 14 17 14C15.4201 14 14.1254 15.2213 14.0086 16.7713C14.0029 16.8468 14 16.9231 14 17C14 18.6569 15.3431 20 17 20Z" stroke="black" stroke-width="2" stroke-linecap="square"/>
<path d="M5.07031 10.5L5.99888 4H17.9989L18.9275 10.5" stroke="black" stroke-width="2" stroke-linecap="square"/>
<path d="M10.3398 16.5C11.3419 15.8333 12.6565 15.8333 13.6586 16.5" stroke="black" stroke-width="2" stroke-linecap="square"/>
<path d="M3 11H21" stroke="black" stroke-width="2" stroke-linecap="square"/>
</svg>
