<svg width="24" height="24" viewBox="0 0 24 24" fill="none" xmlns="http://www.w3.org/2000/svg">
<path d="M13.7163 0C14.219 0.510808 14.5328 1.06232 14.5431 1.8149C14.5565 2.80531 14.0258 4.18835 11.9334 5.83119C10.6562 6.84505 10.2788 7.67154 10.3084 8.3877C10.3385 9.11509 10.7862 9.76024 11.2482 10.4208L11.2514 10.4255C11.5175 10.806 11.7871 11.1914 11.9623 11.5897L11.8073 11.7022C10.8289 10.8267 9.97658 9.99343 9.49137 9.19348C9.24806 8.79236 9.09348 8.39402 9.06461 7.99832C9.03558 7.60052 9.13416 7.21189 9.38614 6.83384C9.8639 6.11146 10.6175 5.51597 11.3629 4.92692L11.3707 4.92076C12.1259 4.32403 12.8731 3.7325 13.3637 3.01156C14.0052 2.0687 13.9839 1.05989 13.7163 0Z" fill="black"/>
<path d="M13.08 11.0105C13.061 10.7776 12.9634 10.52 12.7267 10.2507C11.8711 9.26415 11.662 8.39389 11.8595 7.64291C12.0551 6.89919 12.6427 6.29911 13.3201 5.83231C13.9995 5.36414 14.7831 5.02047 15.3945 4.79417C15.7007 4.68085 15.9647 4.59659 16.1523 4.5406C16.2501 4.51142 16.3483 4.48337 16.4472 4.45794L16.4512 4.45692L16.4527 4.45654L16.5253 4.63649C15.4614 5.25034 14.7022 5.75841 14.1766 6.19628C13.6499 6.63496 13.3652 6.99709 13.2389 7.31696C13.1148 7.63139 13.1401 7.91451 13.2572 8.20832C13.399 8.56385 13.6742 8.93018 13.9797 9.37367C14.2866 9.7983 14.3537 10.2104 14.2736 10.588C14.1944 10.9615 13.9736 11.2915 13.7225 11.5625C13.4707 11.8341 13.1827 12.0526 12.959 12.2026C12.8341 12.2864 12.7058 12.3666 12.5725 12.4365L12.5702 12.4377L12.4641 12.2741L12.4662 12.2723C12.6655 12.1028 12.8346 11.8857 12.9483 11.6508C13.0395 11.4623 13.0992 11.2447 13.08 11.0105Z" fill="black"/>
<path d="M8.70633 14.0776L8.61579 13.9067C8.17824 14.054 7.86992 14.2068 7.68179 14.363C7.49338 14.5195 7.40371 14.7011 7.4728 14.89C7.53542 15.0611 7.71817 15.1983 7.95608 15.3084C8.19979 15.4212 8.52556 15.5165 8.91209 15.5903C11.1767 16.0228 13.5888 15.6868 15.7752 15.0355C15.3589 14.8967 14.9634 14.7442 14.6604 14.4077C12.8143 14.7823 11.0105 14.8759 9.13776 14.6922C8.73998 14.6514 8.20255 14.4785 8.705 14.0786L8.70633 14.0776Z" fill="black"/>
<path d="M18.0675 17.9915L18.1697 17.8272C18.4392 17.9489 18.6196 18.1071 18.6236 18.3121C18.642 19.2642 16.1579 19.5504 15.5998 19.6491C13.1364 20.0849 9.38058 20.2308 5.26457 19.5592C4.88691 19.4984 4.61642 19.4173 4.43911 19.3179C4.26175 19.2185 4.15646 19.0872 4.16449 18.9251C4.17192 18.775 4.2769 18.638 4.41153 18.5212C4.55001 18.4011 4.73915 18.2857 4.95362 18.1806C5.3831 17.9703 5.93073 17.7937 6.42211 17.7041C6.90914 17.6154 7.35589 17.595 7.6036 17.7673L7.86005 17.9457C7.20639 17.9461 6.50391 18.0587 5.91759 18.36C5.76602 18.4379 5.54193 18.5748 5.8001 18.6854C6.30016 18.9021 7.13276 19.0558 8.1468 19.1513C9.15761 19.2464 10.3383 19.2829 11.5276 19.27C13.91 19.2443 16.3112 19.0208 17.4481 18.6816C17.7512 18.589 17.9329 18.4928 18.0381 18.4061C18.1737 18.2943 18.2065 18.1257 18.0724 17.997L18.0697 17.9944L18.0675 17.9915Z" fill="black"/>
<path d="M9.56312 11.759L9.56059 11.7596C9.03507 11.8878 8.50645 12.0332 8.00594 12.2395C7.37619 12.4991 7.56962 12.6862 8.21302 12.7689C9.23273 12.9049 11.2509 12.8714 13.1398 12.7341C14.1704 12.6425 15.1992 12.5027 16.2183 12.3238L16.2227 12.323L16.2791 12.5092L16.2777 12.5099L16.2732 12.5119C16.1681 12.5586 16.064 12.6074 15.9607 12.6578C13.7287 13.7479 11.0061 13.6559 8.57289 13.5179C7.55042 13.4599 6.69954 13.3383 6.2332 13.1612C5.69215 12.9557 5.74248 12.573 6.23332 12.3316C7.13744 11.8969 7.96434 11.7051 8.56506 11.6224C8.88684 11.5781 9.21652 11.5482 9.54189 11.5656L9.54562 11.5658L9.54721 11.5659L9.56312 11.759Z" fill="black"/>
<path d="M18.4623 12.7497C18.5707 13.3804 18.113 14.3282 16.1948 15.3215C16.1948 15.3215 15.9162 15.6281 15.8474 15.697L16.1958 15.6064C17.494 15.2689 18.3578 14.7967 18.8804 14.2835C19.4043 13.769 19.5869 13.2106 19.5103 12.7138C19.2941 11.3117 17.0467 10.7929 16.3986 12.089C16.6362 11.9702 16.8182 11.8876 17.0843 11.8284C17.6562 11.718 18.3527 12.1117 18.4623 12.7497Z" fill="black"/>
<path d="M16.3628 20.0532C15.6875 20.178 14.9775 20.2729 14.256 20.3412C11.7375 20.5798 9.16964 20.5437 6.67188 20.1336C6.67188 20.1336 7.08604 20.4818 7.52011 20.6046C7.95418 20.7274 8.69168 20.8655 9.91576 20.9345C12.7052 21.1153 16.5919 20.956 18.4558 20.1045C19.0704 19.8238 19.4971 19.4501 19.536 18.9548L19.3447 18.915C19.2519 19.073 19.0597 19.182 18.907 19.2686L18.9047 19.2699C18.501 19.4988 17.7481 19.7967 16.3628 20.0532Z" fill="black"/>
<path d="M9.21509 16.3167L9.21406 16.3173L9.20907 16.3205C9.20452 16.3235 9.19772 16.328 9.18935 16.334C9.17249 16.3459 9.14987 16.3629 9.1267 16.3835C9.07592 16.4287 9.04018 16.4753 9.03224 16.5116C9.02921 16.5255 9.03048 16.5363 9.03701 16.5483C9.04464 16.5622 9.06379 16.585 9.11077 16.6114C9.20694 16.6656 9.39215 16.7199 9.72383 16.7539L9.72624 16.7542C11.3179 16.9574 12.1657 16.9257 13.917 16.5908C14.4113 16.7807 14.875 17.0392 15.3728 17.2226L15.1462 17.3194C13.1142 18.1878 10.8157 18.162 9.41903 17.8052C9.06925 17.7159 8.772 17.6048 8.54794 17.4792C8.32792 17.3558 8.16142 17.209 8.10171 17.0397C8.07071 16.9517 8.06958 16.8602 8.10244 16.7702C8.13466 16.682 8.19725 16.6014 8.28381 16.528C8.45539 16.3825 8.73768 16.2517 9.13749 16.1387L9.21509 16.3167Z" fill="black"/>
</svg>
