<svg width="24" height="24" viewBox="0 0 24 24" fill="none" xmlns="http://www.w3.org/2000/svg">
<path d="M9 7V11C7.6104 12.737 5 14.8797 5 17.2984C5 19.3428 6.65725 21 8.70156 21H15.2984C17.3428 21 19 19.3428 19 17.2984C19 14.8797 16.3896 12.737 15 11V7M9 7H15M9 7H8M15 7H16" stroke="black" stroke-width="2" stroke-linecap="square"/>
<path d="M18 16.1448C17.1058 16.3028 15.6047 16.5296 14.5 16.5002C12.5094 16.4471 11.4906 15.5533 9.5 15.5002C8.3953 15.4707 6.89418 15.6976 6 15.8555" stroke="black" stroke-width="2" stroke-linecap="square"/>
<path d="M10 4H10.01" stroke="black" stroke-width="2" stroke-linecap="round"/>
<path d="M14 2.5C14 2.77614 13.7761 3 13.5 3C13.2239 3 13 2.77614 13 2.5C13 2.22386 13.2239 2 13.5 2C13.7761 2 14 2.22386 14 2.5Z" stroke="black" stroke-width="2" stroke-linecap="square"/>
<path d="M13.3984 2.5H13.5984" stroke="black" stroke-width="2" stroke-linecap="square"/>
</svg>
