<svg width="24" height="24" viewBox="0 0 24 24" fill="none" xmlns="http://www.w3.org/2000/svg">
<path d="M20 4H21V3H20V4ZM20 20V21H21V20H20ZM4 20H3V21H4V20ZM4 4V3H3V4H4ZM19 4V20H21V4H19ZM20 19H4V21H20V19ZM5 20V4H3V20H5ZM4 5H20V3H4V5Z" fill="black"/>
<path d="M20 15.6699H21V13.6699H20V15.6699ZM4 13.6699H3V15.6699H4V13.6699ZM4 15.6699H20V13.6699H4V15.6699Z" fill="black"/>
<path d="M20 10.3301H21V8.33008H20V10.3301ZM4 8.33008H3V10.3301H4V8.33008ZM4 10.3301H20V8.33008H4V10.3301Z" fill="black"/>
</svg>
