<svg width="24" height="24" viewBox="0 0 24 24" fill="none" xmlns="http://www.w3.org/2000/svg">
<path d="M5.63604 5.63623C4.00736 7.26491 3 9.51491 3 12.0002C3 14.4855 4.00736 16.7355 5.63604 18.3642M8.46447 8.46466C7.55964 9.36948 7 10.6195 7 12.0002C7 13.3809 7.55964 14.6309 8.46447 15.5357M15.5355 15.5357C16.4404 14.6309 17 13.3809 17 12.0002C17 10.6195 16.4404 9.36948 15.5355 8.46466M18.364 18.3642C19.9926 16.7355 21 14.4855 21 12.0002C21 9.51491 19.9926 7.26491 18.364 5.63623M13 12.0002C13 12.5525 12.5523 13.0002 12 13.0002C11.4477 13.0002 11 12.5525 11 12.0002C11 11.4479 11.4477 11.0002 12 11.0002C12.5523 11.0002 13 11.4479 13 12.0002Z" stroke="black" stroke-width="2" stroke-linecap="square"/>
</svg>
