<svg width="24" height="24" viewBox="0 0 24 24" fill="none" xmlns="http://www.w3.org/2000/svg">
<path fill-rule="evenodd" clip-rule="evenodd" d="M18.0002 2.08582L21.9144 6.00003L6.00015 21.9142L2.08594 18L18.0002 2.08582ZM15.6644 7.25003L16.7502 8.33582L19.0859 6.00003L18.0002 4.91424L15.6644 7.25003ZM15.3359 9.75003L14.2502 8.66424L4.91436 18L6.00015 19.0858L15.3359 9.75003Z" fill="black"/>
<path d="M10.0002 2L11.0002 0L12.0002 2L14.0002 3L12.0002 4L11.0002 6L10.0002 4L8.00012 3L10.0002 2Z" fill="black"/>
<path d="M19.0002 13L20.0002 11L21.0002 13L23.0002 14L21.0002 15L20.0002 17L19.0002 15L17.0002 14L19.0002 13Z" fill="black"/>
<path d="M5.00012 7L6.00012 5L7.00012 7L9.00012 8L7.00012 9L6.00012 11L5.00012 9L3.00012 8L5.00012 7Z" fill="black"/>
</svg>
