<svg width="24" height="24" viewBox="0 0 24 24" fill="none" xmlns="http://www.w3.org/2000/svg">
<g clip-path="url(#clip0_648_11455)">
<mask id="mask0_648_11455" style="mask-type:luminance" maskUnits="userSpaceOnUse" x="0" y="0" width="24" height="24">
<path d="M24 0H0V24H24V0Z" fill="white"/>
</mask>
<g mask="url(#mask0_648_11455)">
<path d="M8.39951 4.50006H8.59951M15.3995 19.5001H15.5995M8.99952 4.50006C8.99952 4.77621 8.77566 5.00006 8.49952 5.00006C8.22337 5.00006 7.99952 4.77621 7.99952 4.50006C7.99952 4.22392 8.22337 4.00006 8.49952 4.00006C8.77566 4.00006 8.99952 4.22392 8.99952 4.50006ZM15.9995 19.5001C15.9995 19.7762 15.7757 20.0001 15.4995 20.0001C15.2234 20.0001 14.9995 19.7762 14.9995 19.5001C14.9995 19.2239 15.2234 19.0001 15.4995 19.0001C15.7757 19.0001 15.9995 19.2239 15.9995 19.5001ZM15.0045 2.47705L15.1654 2.96382L15.6699 3.05548L15.2567 3.359L15.3254 3.86707L14.909 3.56788L14.4471 3.79023L14.6029 3.3018L14.2487 2.93115L14.7614 2.92847L15.0045 2.47705ZM7.94666 19.4347L8.18972 19.8861L8.70241 19.8888L8.34819 20.2595L8.50407 20.7479L8.0421 20.5255L7.62575 20.8247L7.69445 20.3166L7.28125 20.0131L7.78569 19.9215L7.94666 19.4347Z" stroke="black" stroke-width="2" stroke-linecap="square"/>
<path d="M17.2217 8.46616L17.3089 7.46996L16.3127 7.38281L16.2255 8.379L17.2217 8.46616ZM15.6466 14.996L15.5595 15.9922L17.5518 16.1665L17.639 15.1703L15.6466 14.996ZM2.00001 9.1536L1.82636 8.16879L0.841553 8.34244L1.0152 9.32724L2.00001 9.1536ZM2.16861 15.8686L2.34226 16.8534L4.31187 16.5061L4.13822 15.5213L2.16861 15.8686ZM17.2217 8.46616L16.2255 8.379L15.6466 14.996L16.6428 15.0831L17.639 15.1703L18.2179 8.55331L17.2217 8.46616ZM17.2217 8.46616L17.1346 9.46235L19.8916 9.70356L19.9788 8.70737L20.0659 7.71117L17.3089 7.46996L17.2217 8.46616ZM19.5928 13.1187L19.68 12.1225L17.4743 11.9295L17.3872 12.9257L17.3 13.9219L19.5057 14.1149L19.5928 13.1187ZM21.9914 11.106L20.9952 11.0189C20.9368 11.6868 20.3479 12.1809 19.68 12.1225L19.5928 13.1187L19.5057 14.1149C21.274 14.2696 22.8329 12.9615 22.9876 11.1932L21.9914 11.106ZM19.9788 8.70737L19.8916 9.70356C20.5596 9.762 21.0537 10.3509 20.9952 11.0189L21.9914 11.106L22.9876 11.1932C23.1423 9.42481 21.8342 7.86588 20.0659 7.71117L19.9788 8.70737ZM2.00001 9.1536L1.0152 9.32724L2.16861 15.8686L3.15342 15.6949L4.13822 15.5213L2.98482 8.97995L2.00001 9.1536ZM2.00001 9.1536L2.17366 10.1385L4.8992 9.65782L4.72555 8.67301L4.5519 7.6882L1.82636 8.16879L2.00001 9.1536ZM5.49449 13.0339L5.32084 12.0491L3.14041 12.4336L3.31406 13.4184L3.4877 14.4032L5.66813 14.0187L5.49449 13.0339ZM7.29045 10.469L6.30564 10.6427C6.42207 11.303 5.98116 11.9327 5.32084 12.0491L5.49449 13.0339L5.66813 14.0187C7.41625 13.7105 8.5835 12.0435 8.27526 10.2954L7.29045 10.469ZM4.72555 8.67301L4.8992 9.65782C5.55952 9.54138 6.18921 9.9823 6.30564 10.6427L7.29045 10.469L8.27526 10.2954C7.96702 8.54721 6.30001 7.37996 4.5519 7.6882L4.72555 8.67301ZM15.2844 11.9918H14.2844C14.2844 13.2737 13.2452 14.3129 11.9633 14.3129V15.3129V16.3129C14.3498 16.3129 16.2844 14.3782 16.2844 11.9918H15.2844ZM11.9633 15.3129V14.3129C10.6814 14.3129 9.64221 13.2737 9.64221 11.9918H8.64221H7.64221C7.64221 14.3782 9.57684 16.3129 11.9633 16.3129V15.3129ZM8.64221 11.9918H9.64221C9.64221 10.7099 10.6814 9.67062 11.9633 9.67062V8.67062V7.67062C9.57684 7.67062 7.64221 9.60524 7.64221 11.9918H8.64221ZM11.9633 8.67062V9.67062C13.2452 9.67062 14.2844 10.7099 14.2844 11.9918H15.2844H16.2844C16.2844 9.60524 14.3498 7.67062 11.9633 7.67062V8.67062Z" fill="black"/>
</g>
</g>
<defs>
<clipPath id="clip0_648_11455">
<rect width="24" height="24" fill="white"/>
</clipPath>
</defs>
</svg>
