<svg width="24" height="24" viewBox="0 0 24 24" fill="none" xmlns="http://www.w3.org/2000/svg">
<path d="M4 12.5V3.5C9.43992 4.62129 14.5601 4.62129 20 3.5V12.5C20 16.9183 16.4183 20.5 12 20.5C7.58172 20.5 4 16.9183 4 12.5Z" stroke="black" stroke-width="2"/>
<path d="M8 13C11 14.1667 13 14.1667 16 13C13.5 17.6667 10.5 17.6667 8 13Z" fill="black"/>
<path d="M9.25 9.5C9.89156 9.5 10.3687 9.91118 10.4766 10.3975C10.192 10.2845 9.72726 10.1055 9.25 10.1055C8.77227 10.1055 8.30697 10.2845 8.02246 10.3975C8.13027 9.91109 8.60835 9.5 9.25 9.5Z" fill="black" stroke="black"/>
<path d="M16.5 10.6058C16.5 11.1421 16.2135 11.0298 15.7732 10.8572C15.4855 10.7444 15.132 10.6058 14.75 10.6058C14.368 10.6058 14.0145 10.7444 13.7268 10.8572C13.2865 11.0298 13 11.1421 13 10.6058C13 9.71896 13.7835 9 14.75 9C15.7165 9 16.5 9.71896 16.5 10.6058Z" fill="black"/>
</svg>
