<svg width="24" height="24" viewBox="0 0 24 24" fill="none" xmlns="http://www.w3.org/2000/svg">
<path d="M6.76859 18.8202C10.507 18.8202 13.5374 15.7688 13.5374 12.0049C13.5374 8.24108 10.5067 5.18994 6.76859 5.18994C3.03045 5.18994 0 8.24016 0 12.0049C0 15.7697 3.03022 18.8202 6.76859 18.8202Z" fill="black"/>
<path d="M17.5785 18.4204C19.4475 18.4204 20.9629 15.5483 20.9629 12.0051C20.9629 8.46285 19.4475 5.58984 17.5785 5.58984C15.7094 5.58984 14.1941 8.46285 14.1941 12.0051C14.1941 15.5474 15.7094 18.4204 17.5785 18.4204Z" fill="black"/>
<path d="M22.8097 17.7531C23.467 17.7531 24 15.1798 24 12.0052C24 8.83085 23.4675 6.25732 22.8099 6.25732C22.1523 6.25732 21.6193 8.83154 21.6193 12.0052C21.6193 15.1789 22.1523 17.7531 22.8097 17.7531Z" fill="black"/>
</svg>
