<svg width="24" height="24" viewBox="0 0 24 24" fill="none" xmlns="http://www.w3.org/2000/svg">
<path d="M17.9961 14C19.6529 14 20.9961 12.6569 20.9961 11C20.9961 9.34315 19.6529 8 17.9961 8" stroke="black" stroke-width="2"/>
<path d="M17.9961 19V3L2.99609 7.78571V14.2143L17.9961 19Z" stroke="black" stroke-width="2"/>
<path d="M13.7682 18.3332L14.1015 17.3904L12.2158 16.7239L11.8825 17.6668L13.7682 18.3332ZM9.99609 20V19C8.89152 19 7.99609 18.1046 7.99609 17H6.99609H5.99609C5.99609 19.2091 7.78695 21 9.99609 21V20ZM12.8254 18L11.8825 17.6668C11.6075 18.4449 10.8653 19 9.99609 19V20V21C11.7393 21 13.2196 19.8855 13.7682 18.3332L12.8254 18ZM6.99609 17H7.99609V15.5H6.99609H5.99609V17H6.99609Z" fill="black"/>
<path d="M7 6.5V15.5" stroke="black" stroke-width="2"/>
</svg>
