<svg width="24" height="24" viewBox="0 0 24 24" fill="none" xmlns="http://www.w3.org/2000/svg">
<path d="M14 10C15.6569 10 17 8.65685 17 7C17 5.34315 15.6569 4 14 4C12.3431 4 11 5.34315 11 7C11 8.65685 12.3431 10 14 10Z" stroke="black" stroke-width="2"/>
<path d="M12.8293 4C12.4175 2.83481 11.3062 2 10 2C8.34315 2 7 3.34315 7 5C7 6.65685 8.34315 8 10 8C10.4123 8 10.8051 7.91685 11.1626 7.76639" stroke="black" stroke-width="2"/>
<path d="M4 20.0002H5C5 20.0002 8.5967 21.2402 11 21.0002C13.5664 20.7438 17.728 18.3748 19.3363 17.408C19.754 17.1569 20 16.7051 20 16.2177C20 15.262 19.0787 14.5765 18.1633 14.8511L11 17.0002" stroke="black" stroke-width="2" stroke-linecap="square"/>
<path d="M4 14.5L7.91583 13.1947C8.30126 13.0662 8.70877 13.0174 9.11365 13.0511L14.0072 13.4589C14.2704 13.4809 14.4565 13.7262 14.4066 13.9856C14.1567 15.2852 13.2053 16.3384 11.9376 16.7187L11 17" stroke="black" stroke-width="2" stroke-linecap="square"/>
</svg>
