<svg width="24" height="24" viewBox="0 0 24 24" fill="none" xmlns="http://www.w3.org/2000/svg">
<path fill-rule="evenodd" clip-rule="evenodd" d="M19.5069 14.8742C19.0169 14.9568 18.5138 14.9999 18.001 14.9999C13.0304 14.9999 9.00098 10.9705 9.00098 5.99987C9.00098 5.48711 9.04402 4.98397 9.12668 4.49403C6.11019 5.65095 3.96875 8.5744 3.96875 11.998C3.96875 16.4352 7.56576 20.0322 12.0029 20.0322C15.4265 20.0322 18.35 17.8907 19.5069 14.8742ZM20.006 12.7085C19.3708 12.8981 18.6978 12.9999 18.001 12.9999C14.135 12.9999 11.001 9.86586 11.001 5.99987C11.001 5.30307 11.1028 4.63004 11.2924 3.99486C11.4622 3.42587 11.7024 2.88725 12.0029 2.38911C12.0897 2.24514 12.1816 2.10454 12.2783 1.96758C12.1868 1.96511 12.095 1.96387 12.0029 1.96387C11.261 1.96387 10.538 2.04438 9.84201 2.19713C5.33892 3.18545 1.96875 7.19816 1.96875 11.998C1.96875 17.5397 6.46119 22.0322 12.0029 22.0322C16.8028 22.0322 20.8155 18.662 21.8038 14.1588C21.9565 13.4629 22.037 12.7398 22.037 11.998C22.037 11.9059 22.0358 11.814 22.0333 11.7225C21.8963 11.8192 21.7557 11.9111 21.6117 11.998C21.1136 12.2985 20.575 12.5387 20.006 12.7085Z" fill="black"/>
<path d="M16.3344 5.33333L17.501 3L18.6677 5.33333L21.001 6.5L18.6677 7.66666L17.501 10L16.3344 7.66666L14.001 6.5L16.3344 5.33333Z" fill="black"/>
</svg>
