<svg width="24" height="24" viewBox="0 0 24 24" fill="none" xmlns="http://www.w3.org/2000/svg">
<path d="M19 15L16 5H14M7 7H10M11 11.5L8 7.5M16.5 9L5 15" stroke="black" stroke-width="2" stroke-linecap="square"/>
<path d="M19 19C21.2091 19 23 17.2091 23 15C23 12.7909 21.2091 11 19 11C16.7909 11 15 12.7909 15 15C15 17.2091 16.7909 19 19 19Z" stroke="black" stroke-width="2"/>
<path d="M5 19C7.20914 19 9 17.2091 9 15C9 12.7909 7.20914 11 5 11C2.79086 11 1 12.7909 1 15C1 17.2091 2.79086 19 5 19Z" stroke="black" stroke-width="2"/>
</svg>
