<svg width="24" height="24" viewBox="0 0 24 24" fill="none" xmlns="http://www.w3.org/2000/svg">
<path d="M15.5547 20.8321L16.3868 20.2773L15.2774 18.6132L14.4453 19.1679L15.5547 20.8321ZM12 22L11.4453 22.8321L12 23.2019L12.5547 22.8321L12 22ZM9.5547 19.1679L8.72265 18.6132L7.61325 20.2773L8.4453 20.8321L9.5547 19.1679ZM13 6V5H11V6H13ZM11 8V9H13V8H11ZM14.4453 19.1679L11.4453 21.1679L12.5547 22.8321L15.5547 20.8321L14.4453 19.1679ZM12.5547 21.1679L9.5547 19.1679L8.4453 20.8321L11.4453 22.8321L12.5547 21.1679ZM16 7V12H18V7H16ZM8 12V7H6V12H8ZM12 16C9.79086 16 8 14.2091 8 12H6C6 15.3137 8.68629 18 12 18V16ZM16 12C16 14.2091 14.2091 16 12 16V18C15.3137 18 18 15.3137 18 12H16ZM12 3C14.2091 3 16 4.79086 16 7H18C18 3.68629 15.3137 1 12 1V3ZM12 1C8.68629 1 6 3.68629 6 7H8C8 4.79086 9.79086 3 12 3V1ZM11 6V8H13V6H11Z" fill="black"/>
</svg>
