<svg width="24" height="24" viewBox="0 0 24 24" fill="none" xmlns="http://www.w3.org/2000/svg">
<path d="M14.4453 4.832L15.2774 5.3867L16.3868 3.7226L15.5547 3.1679L14.4453 4.832ZM12 1.99995L12.5547 1.1679L12 0.798096L11.4453 1.1679L12 1.99995ZM8.4453 3.1679L7.61325 3.7226L8.72265 5.3867L9.5547 4.832L8.4453 3.1679ZM13 10.9999V9.99995H11V10.9999H13ZM11 12.9999V13.9999H13V12.9999H11ZM15.5547 3.1679L12.5547 1.1679L11.4453 2.832L14.4453 4.832L15.5547 3.1679ZM11.4453 1.1679L8.4453 3.1679L9.5547 4.832L12.5547 2.832L11.4453 1.1679ZM16 11.9999V16.9999H18V11.9999H16ZM8 16.9999V11.9999H6V16.9999H8ZM12 20.9999C9.79086 20.9999 8 19.209 8 16.9999H6C6 20.3136 8.68629 22.9999 12 22.9999V20.9999ZM16 16.9999C16 19.209 14.2091 20.9999 12 20.9999V22.9999C15.3137 22.9999 18 20.3136 18 16.9999H16ZM12 7.99995C14.2091 7.99995 16 9.79081 16 11.9999H18C18 8.68624 15.3137 5.99995 12 5.99995V7.99995ZM12 5.99995C8.68629 5.99995 6 8.68624 6 11.9999H8C8 9.79081 9.79086 7.99995 12 7.99995V5.99995ZM11 10.9999V12.9999H13V10.9999H11Z" fill="black"/>
</svg>
