<svg width="24" height="24" viewBox="0 0 24 24" fill="none" xmlns="http://www.w3.org/2000/svg">
<path d="M3 3V2H2V3H3ZM15 3H16V2H15V3ZM14 9V10H16V9H14ZM3 15H2V16H3V15ZM9 16H10V14H9V16ZM9 9V8H8V9H9ZM21 9H22V8H21V9ZM9 21H8V22H9V21ZM21 21V22H22V21H21ZM6 10L6.5547 9.16795L6 8.79815L5.4453 9.16795L6 10ZM6.25 5.25C5.69772 5.25 5.25 5.69772 5.25 6.25C5.25 6.80228 5.69772 7.25 6.25 7.25V5.25ZM6.26 7.25C6.81228 7.25 7.26 6.80228 7.26 6.25C7.26 5.69772 6.81228 5.25 6.26 5.25V7.25ZM14 13.8001L14.5145 12.9426L13 12.034V13.8001H14ZM14 16.2001H13V17.9664L14.5145 17.0576L14 16.2001ZM16 15L16.5145 15.8575L17.9437 14.9999L16.5145 14.1425L16 15ZM2.9453 10.8346C2.48577 11.141 2.3616 11.7618 2.66795 12.2214C2.9743 12.6809 3.59517 12.8051 4.0547 12.4987L2.9453 10.8346ZM7.9453 12.4987C8.40483 12.8051 9.0257 12.6809 9.33205 12.2214C9.6384 11.7618 9.51423 11.141 9.0547 10.8346L7.9453 12.4987ZM3 4H15V2H3V4ZM14 3V9H16V3H14ZM3 16H9V14H3V16ZM9 10H21V8H9V10ZM9 22H21V20H9V22ZM20 9V21H22V9H20ZM5.5 6.25C5.5 5.83579 5.83579 5.5 6.25 5.5V7.5C6.94036 7.5 7.5 6.94036 7.5 6.25H5.5ZM6.25 5.5C6.66421 5.5 7 5.83579 7 6.25H5C5 6.94036 5.55964 7.5 6.25 7.5V5.5ZM7 6.25C7 6.66421 6.66421 7 6.25 7V5C5.55964 5 5 5.55964 5 6.25H7ZM6.25 7C5.83579 7 5.5 6.66421 5.5 6.25H7.5C7.5 5.55964 6.94036 5 6.25 5V7ZM6.25 7.25H6.26V5.25H6.25V7.25ZM13 13.8001V16.2001H15V13.8001H13ZM14.5145 17.0576L16.5145 15.8575L15.4855 14.1425L13.4855 15.3426L14.5145 17.0576ZM16.5145 14.1425L14.5145 12.9426L13.4855 14.6576L15.4855 15.8575L16.5145 14.1425ZM4.0547 12.4987L6.5547 10.8321L5.4453 9.16795L2.9453 10.8346L4.0547 12.4987ZM2 3V15H4V3H2ZM5.4453 10.8321L7.9453 12.4987L9.0547 10.8346L6.5547 9.16795L5.4453 10.8321ZM8 9V21H10V9H8Z" fill="black"/>
</svg>
