<svg width="24" height="24" viewBox="0 0 24 24" fill="none" xmlns="http://www.w3.org/2000/svg">
<path fill-rule="evenodd" clip-rule="evenodd" d="M5.98828 2H18.0083V4H16.9983C15.8937 4 14.9983 4.89543 14.9983 6V18.3508L11.9983 22.1008L8.99828 18.3508V6C8.99828 4.89543 8.10285 4 6.99828 4H5.98828V2ZM10.4632 4C10.8035 4.58835 10.9983 5.27143 10.9983 6V17.6492L11.9983 18.8992L12.9983 17.6492V6C12.9983 5.27143 13.1931 4.58835 13.5334 4H10.4632Z" fill="black"/>
<path fill-rule="evenodd" clip-rule="evenodd" d="M6.50015 18.0859L8.41436 20.0002L7.00015 21.4144L5.08594 19.5002L6.50015 18.0859Z" fill="black"/>
<path fill-rule="evenodd" clip-rule="evenodd" d="M4.50015 14.0859L6.41436 16.0002L5.00015 17.4144L3.08594 15.5002L4.50015 14.0859Z" fill="black"/>
<path fill-rule="evenodd" clip-rule="evenodd" d="M17.5002 18.0859L15.5859 20.0002L17.0002 21.4144L18.9144 19.5002L17.5002 18.0859Z" fill="black"/>
<path d="M17.5859 16L19 17.4141L20.9141 15.5L19.5 14.0859L17.5859 16Z" fill="black"/>
</svg>
