<svg width="24" height="24" viewBox="0 0 24 24" fill="none" xmlns="http://www.w3.org/2000/svg">
<path d="M12 17H20" stroke="black" stroke-width="2" stroke-linecap="square"/>
<path d="M12 7H20" stroke="black" stroke-width="2" stroke-linecap="square"/>
<path d="M6 9.5V4.5H5.35L4 5.5" stroke="black" stroke-width="2" stroke-linecap="square"/>
<path d="M3.99646 19.5H2.99646V20.5H3.99646V19.5ZM7.24646 20.5H8.24646V18.5H7.24646V20.5ZM3.99646 19.5V20.5H7.24646V19.5V18.5H3.99646V19.5ZM5.60748 14.5V15.5C5.76736 15.5 5.85087 15.5539 5.89648 15.6012C5.94725 15.6538 5.99646 15.7468 5.99646 15.889H6.99646H7.99646C7.99646 14.6036 7.03082 13.5 5.60748 13.5V14.5ZM6.99646 15.889H5.99646C5.99646 16.0234 5.95275 16.1494 5.79179 16.3244C5.60663 16.5256 5.33395 16.7183 4.94927 16.9698C4.61126 17.1908 4.13923 17.485 3.77501 17.8324C3.38847 18.2011 2.99646 18.7457 2.99646 19.5H3.99646H4.99646C4.99646 19.4885 4.99717 19.4786 5.00995 19.4544C5.0269 19.4222 5.0666 19.3644 5.15541 19.2796C5.35369 19.0905 5.63166 18.9132 6.04365 18.6438C6.40897 18.405 6.88629 18.0887 7.26363 17.6785C7.66517 17.2421 7.99646 16.6543 7.99646 15.889H6.99646ZM3.57806 15.4798L4.27808 16.194C4.72359 15.7573 5.19915 15.5 5.60748 15.5V14.5V13.5C4.4266 13.5 3.47076 14.1847 2.87805 14.7657L3.57806 15.4798Z" fill="black"/>
</svg>
