<svg width="24" height="24" viewBox="0 0 24 24" fill="none" xmlns="http://www.w3.org/2000/svg">
<path d="M21.9999 12.0123C21.9999 14.9762 20.7063 17.6412 18.6664 19.4843C16.1042 20.7297 13.716 19.8579 12.92 19.31C15.4325 18.762 17.348 15.6985 17.348 12.0123C17.348 8.3262 15.4325 5.26268 12.92 4.71474C13.716 4.1668 16.1042 3.29506 18.6664 4.54038C20.7063 6.38348 21.9999 9.04848 21.9999 12.0123Z" fill="black"/>
<path d="M8.71665 6.35866C7.62208 7.6538 6.90066 9.59652 6.8509 11.7634V12.2366C6.90066 14.4035 7.62208 16.3462 8.71665 17.6413C10.1595 19.5093 12.274 20.6799 14.6621 20.6799C16.1298 20.6799 17.498 20.2316 18.6672 19.4595C16.901 21.0535 14.5626 22 12.0003 22C11.8511 22 11.6769 22 11.5277 22C6.22899 21.7758 2 17.3923 2 12.0125C2 6.48318 6.47776 2 12.0003 2C12.0252 2 12.0252 2 12.0501 2C14.5875 2 16.9003 2.97136 18.6665 4.54046C17.4974 3.76837 16.1298 3.32005 14.6621 3.32005C12.274 3.32005 10.1346 4.51556 8.71665 6.35866Z" fill="black"/>
</svg>
