<svg width="24" height="24" viewBox="0 0 24 24" fill="none" xmlns="http://www.w3.org/2000/svg">
<path d="M10.7424 5.08581C14.9366 4.51215 19.3191 6.81687 22 12C21.4904 12.9851 20.9195 13.8662 20.3 14.6434" stroke="black" stroke-width="2" stroke-linecap="square"/>
<path d="M3.70714 2.29292L3.00003 1.58582L1.58582 3.00003L2.29292 3.70714L3.70714 2.29292ZM20.2929 21.7071L21 22.4142L22.4142 21L21.7071 20.2929L20.2929 21.7071ZM2.29292 3.70714L20.2929 21.7071L21.7071 20.2929L3.70714 2.29292L2.29292 3.70714Z" fill="black"/>
<path d="M10.3327 10.8948L10.8864 10.0621L9.22094 8.95471L8.66727 9.78744L10.3327 10.8948ZM14.2126 15.3328L15.0453 14.7791L13.938 13.1136L13.1052 13.6673L14.2126 15.3328ZM12 14C10.8954 14 10 13.1046 10 12H8C8 14.2092 9.79086 16 12 16V14ZM10 12C10 11.5897 10.1225 11.211 10.3327 10.8948L8.66727 9.78744C8.24565 10.4216 8 11.1836 8 12H10ZM13.1052 13.6673C12.789 13.8775 12.4103 14 12 14V16C12.8164 16 13.5785 15.7544 14.2126 15.3328L13.1052 13.6673Z" fill="black"/>
<path d="M6.12816 7C4.54597 8.16112 3.12355 9.8278 2 12.0001C5.4666 18.7023 11.7785 20.5916 16.8492 17.6681" stroke="black" stroke-width="2" stroke-linecap="square"/>
</svg>
