<svg width="24" height="24" viewBox="0 0 24 24" fill="none" xmlns="http://www.w3.org/2000/svg">
<path d="M10.7422 5.08581C14.9364 4.51215 19.3188 6.81687 21.9997 12C21.4902 12.9851 20.9192 13.8662 20.2997 14.6434" stroke="black" stroke-width="2" stroke-linecap="square"/>
<path d="M3 3L21 21" stroke="black" stroke-width="2" stroke-linecap="square"/>
<path d="M6.27513 6.89392C5.46987 7.46548 4.70438 8.1664 3.99669 8.99668C3.26216 9.85844 2.58989 10.8596 2 12C4.80095 17.4154 9.45939 19.6886 13.8198 18.8198C14.9097 18.6027 15.981 18.1892 17 17.5795" stroke="black" stroke-width="2" stroke-linecap="square"/>
<path d="M10.3408 9.50002C11.5061 8.72478 13.0939 8.851 14.1215 9.87868C15.1312 10.8884 15.2707 12.4387 14.5401 13.5978" stroke="black" stroke-width="2" stroke-linecap="square"/>
<path d="M4.5 9.5L13.3978 18.3978" stroke="black" stroke-width="2" stroke-linecap="square"/>
</svg>
