<svg width="24" height="24" viewBox="0 0 24 24" fill="none" xmlns="http://www.w3.org/2000/svg">
<path d="M4 4V3H3V4H4ZM4 20H3V21H4V20ZM20 4H21V3H20V4ZM18.2427 20.4853L17.5356 21.1924L18.2427 21.8995L18.9498 21.1924L18.2427 20.4853ZM10 4V3H8V4H10ZM9 9H8V10H9V9ZM15 9V10H16V9H15ZM16 4V3H14V4H16ZM3 4V20H5V4H3ZM4 21H13V19H4V21ZM4 5H20V3H4V5ZM19 4V10H21V4H19ZM18.9498 19.7782L16.8285 17.6569L15.4142 19.0711L17.5356 21.1924L18.9498 19.7782ZM19.6569 17.6569L17.5356 19.7782L18.9498 21.1924L21.0711 19.0711L19.6569 17.6569ZM19.6569 14.8284C20.4379 15.6095 20.4379 16.8758 19.6569 17.6569L21.0711 19.0711C22.6332 17.509 22.6332 14.9763 21.0711 13.4142L19.6569 14.8284ZM16.8285 14.8284C17.6095 14.0474 18.8758 14.0474 19.6569 14.8284L21.0711 13.4142C19.509 11.8521 16.9763 11.8521 15.4142 13.4142L16.8285 14.8284ZM16.8285 17.6569C16.0474 16.8758 16.0474 15.6095 16.8285 14.8284L15.4142 13.4142C13.8522 14.9763 13.8522 17.509 15.4142 19.0711L16.8285 17.6569ZM8 4V9H10V4H8ZM9 10H15V8H9V10ZM16 9V4H14V9H16Z" fill="black"/>
</svg>
