<svg width="24" height="24" viewBox="0 0 24 24" fill="none" xmlns="http://www.w3.org/2000/svg">
<path d="M4 4V3H3V4H4ZM4 20H3V21H4V20ZM20 4H21V3H20V4ZM10 4V3H8V4H10ZM9 9H8V10H9V9ZM15 9V10H16V9H15ZM16 4V3H14V4H16ZM21.3284 16.0858L22.0355 15.3787L20.6213 13.9645L19.9142 14.6716L21.3284 16.0858ZM15.6716 18.9142L14.9645 19.6213L16.3787 21.0355L17.0858 20.3284L15.6716 18.9142ZM17.0858 14.6716L16.3787 13.9645L14.9645 15.3787L15.6716 16.0858L17.0858 14.6716ZM19.9142 20.3284L20.6213 21.0355L22.0355 19.6213L21.3284 18.9142L19.9142 20.3284ZM3 4V20H5V4H3ZM4 21H13V19H4V21ZM4 5H20V3H4V5ZM19 4V12H21V4H19ZM8 4V9H10V4H8ZM9 10H15V8H9V10ZM16 9V4H14V9H16ZM19.9142 14.6716L17.7929 16.7929L19.2071 18.2071L21.3284 16.0858L19.9142 14.6716ZM17.7929 16.7929L15.6716 18.9142L17.0858 20.3284L19.2071 18.2071L17.7929 16.7929ZM15.6716 16.0858L17.7929 18.2071L19.2071 16.7929L17.0858 14.6716L15.6716 16.0858ZM17.7929 18.2071L19.9142 20.3284L21.3284 18.9142L19.2071 16.7929L17.7929 18.2071Z" fill="black"/>
</svg>
