<svg width="24" height="24" viewBox="0 0 24 24" fill="none" xmlns="http://www.w3.org/2000/svg">
<path d="M4 4V3H3V4H4ZM4 20H3V21H4V20ZM20 4H21V3H20V4ZM10 4V3H8V4H10ZM9 9H8V10H9V9ZM15 9V10H16V9H15ZM16 4V3H14V4H16ZM15 17.6667L14.2929 16.9596L14 17.2525V17.6667H15ZM15 20.0001H14V21.0001H15V20.0001ZM17.3333 20.0001V21.0001H17.7475L18.0404 20.7072L17.3333 20.0001ZM3 4V20H5V4H3ZM4 21H12V19H4V21ZM4 5H20V3H4V5ZM19 4V11H21V4H19ZM8 4V9H10V4H8ZM9 10H15V8H9V10ZM16 9V4H14V9H16ZM14 17.6667V20.0001H16V17.6667H14ZM15 21.0001H17.3333V19.0001H15V21.0001ZM15.7071 18.3738L19.2071 14.8738L17.7929 13.4596L14.2929 16.9596L15.7071 18.3738ZM20.1262 15.7929L16.6262 19.2929L18.0404 20.7072L21.5404 17.2072L20.1262 15.7929ZM20.1262 14.8738C20.38 15.1276 20.38 15.5391 20.1262 15.7929L21.5404 17.2072C22.5753 16.1723 22.5753 14.4945 21.5404 13.4596L20.1262 14.8738ZM19.2071 14.8738C19.4609 14.62 19.8724 14.62 20.1262 14.8738L21.5404 13.4596C20.5056 12.4248 18.8278 12.4248 17.7929 13.4596L19.2071 14.8738Z" fill="black"/>
</svg>
