<svg width="24" height="24" viewBox="0 0 24 24" fill="none" xmlns="http://www.w3.org/2000/svg">
<path d="M4 4V3H3V4H4ZM4 20H3V21H4V20ZM20 4H21V3H20V4ZM10 4V3H8V4H10ZM9 9H8V10H9V9ZM15 9V10H16V9H15ZM16 4V3H14V4H16ZM15 15L14.5071 14.1299L14 14.4172V15H15ZM18 21L17.5939 21.9138L18 22.0943L18.4061 21.9138L18 21ZM21 15H22V14.4172L21.4929 14.1299L21 15ZM3 4V20H5V4H3ZM4 21H12V19H4V21ZM4 5H20V3H4V5ZM19 4V11H21V4H19ZM8 4V9H10V4H8ZM9 10H15V8H9V10ZM16 9V4H14V9H16ZM14 15V17.7171H16V15H14ZM22 17.7171V15H20V17.7171H22ZM21.4929 14.1299C20.3418 13.4777 19.1922 13.1175 18 13.1175C16.8078 13.1175 15.6582 13.4777 14.5071 14.1299L15.4929 15.8701C16.4187 15.3456 17.2306 15.1175 18 15.1175C18.7694 15.1175 19.5813 15.3456 20.5071 15.8701L21.4929 14.1299ZM18.4061 21.9138C19.1269 21.5935 20.0209 21.1912 20.7196 20.5711C21.4708 19.9044 22 18.9865 22 17.7171H20C20 18.3453 19.7703 18.7395 19.3921 19.0752C18.9613 19.4575 18.3553 19.7478 17.5939 20.0862L18.4061 21.9138ZM14 17.7171C14 18.9865 14.5292 19.9044 15.2804 20.5711C15.9791 21.1912 16.8731 21.5935 17.5939 21.9138L18.4061 20.0862C17.6447 19.7478 17.0387 19.4575 16.6079 19.0752C16.2297 18.7395 16 18.3453 16 17.7171H14Z" fill="black"/>
</svg>
