<svg width="24" height="24" viewBox="0 0 24 24" fill="none" xmlns="http://www.w3.org/2000/svg">
<path d="M4 4V3H3V4H4ZM4 20H3V21H4V20ZM20 4H21V3H20V4ZM10 4V3H8V4H10ZM9 9H8V10H9V9ZM15 9V10H16V9H15ZM16 4V3H14V4H16ZM20.2929 21.7071L21 22.4142L22.4142 21L21.7071 20.2929L20.2929 21.7071ZM3 4V20H5V4H3ZM4 21H11V19H4V21ZM4 5H20V3H4V5ZM19 4V11H21V4H19ZM8 4V9H10V4H8ZM9 10H15V8H9V10ZM16 9V4H14V9H16ZM18.4142 18.4142C17.6332 19.1953 16.3668 19.1953 15.5858 18.4142L14.1716 19.8284C15.7337 21.3905 18.2663 21.3905 19.8284 19.8284L18.4142 18.4142ZM15.5858 18.4142C14.8047 17.6332 14.8047 16.3668 15.5858 15.5858L14.1716 14.1716C12.6095 15.7337 12.6095 18.2663 14.1716 19.8284L15.5858 18.4142ZM15.5858 15.5858C16.3668 14.8047 17.6332 14.8047 18.4142 15.5858L19.8284 14.1716C18.2663 12.6095 15.7337 12.6095 14.1716 14.1716L15.5858 15.5858ZM18.4142 15.5858C19.1953 16.3668 19.1953 17.6332 18.4142 18.4142L19.8284 19.8284C21.3905 18.2663 21.3905 15.7337 19.8284 14.1716L18.4142 15.5858ZM18.4142 19.8284L20.2929 21.7071L21.7071 20.2929L19.8284 18.4142L18.4142 19.8284Z" fill="black"/>
</svg>
