<svg width="24" height="24" viewBox="0 0 24 24" fill="none" xmlns="http://www.w3.org/2000/svg">
<path d="M4 4V3H3V4H4ZM4 20H3V21H4V20ZM20 4H21V3H20V4ZM10 4V3H8V4H10ZM9 9H8V10H9V9ZM15 9V10H16V9H15ZM16 4V3H14V4H16ZM15.4571 17.0429L14.75 16.3358L13.3358 17.75L14.0429 18.4571L15.4571 17.0429ZM16.5 19.5L15.7929 20.2071L16.5 20.9142L17.2071 20.2071L16.5 19.5ZM21.2071 16.2071L21.9142 15.5L20.5 14.0858L19.7929 14.7929L21.2071 16.2071ZM3 4V20H5V4H3ZM4 21H12V19H4V21ZM4 5H20V3H4V5ZM19 4V12H21V4H19ZM8 4V9H10V4H8ZM9 10H15V8H9V10ZM16 9V4H14V9H16ZM14.0429 18.4571L15.7929 20.2071L17.2071 18.7929L15.4571 17.0429L14.0429 18.4571ZM17.2071 20.2071L21.2071 16.2071L19.7929 14.7929L15.7929 18.7929L17.2071 20.2071Z" fill="black"/>
</svg>
