<svg width="24" height="24" viewBox="0 0 24 24" fill="none" xmlns="http://www.w3.org/2000/svg">
<path d="M12 21L11.0372 21.2701L11.6714 23.5309L12.8619 21.507L12 21ZM22 4L22.8619 4.50702L23.7484 3H22V4ZM2.49997 4V3H0.173462L1.77437 4.68812L2.49997 4ZM9.21797 11.084L10.1808 10.8138L10.114 10.5755L9.94357 10.3959L9.21797 11.084ZM21.4847 5.42887L22.3594 4.94412L21.3899 3.19481L20.5153 3.67956L21.4847 5.42887ZM12.8619 21.507L22.8619 4.50702L21.1381 3.49298L11.1381 20.493L12.8619 21.507ZM22 3H2.49997V5H22V3ZM1.77437 4.68812L8.49237 11.7721L9.94357 10.3959L3.22557 3.31188L1.77437 4.68812ZM8.25515 11.3541L11.0372 21.2701L12.9628 20.7299L10.1808 10.8138L8.25515 11.3541ZM10.1045 11.736L21.4847 5.42887L20.5153 3.67956L9.13498 9.98666L10.1045 11.736Z" fill="black"/>
</svg>
