<svg width="24" height="24" viewBox="0 0 24 24" fill="none" xmlns="http://www.w3.org/2000/svg">
<path d="M4.50003 20L3.50442 19.9064L3.40161 21H4.50003V20ZM14.5 6.5C14.5 7.88071 13.3807 9 12 9V11C14.4853 11 16.5 8.98528 16.5 6.5H14.5ZM12 9C10.6193 9 9.50003 7.88071 9.50003 6.5H7.50003C7.50003 8.98528 9.51475 11 12 11V9ZM9.50003 6.5C9.50003 5.11929 10.6193 4 12 4V2C9.51475 2 7.50003 4.01472 7.50003 6.5H9.50003ZM12 4C13.3807 4 14.5 5.11929 14.5 6.5H16.5C16.5 4.01472 14.4853 2 12 2V4ZM5.49564 20.0936C5.82127 16.6298 8.3774 14 12 14V12C7.24225 12 3.91668 15.5211 3.50442 19.9064L5.49564 20.0936ZM4.50003 21H15V19H4.50003V21ZM12 14C12.3019 14 12.5949 14.0181 12.8785 14.0528L13.1215 12.0676C12.756 12.0229 12.3819 12 12 12V14Z" fill="black"/>
<path fill-rule="evenodd" clip-rule="evenodd" d="M18 11C16.3431 11 15 12.3431 15 14C15 15.2107 15.7172 16.254 16.75 16.728V20.5L18 21.5L19.25 20.5V19.427L18.5 18.75L19.25 18V16.728C20.2828 16.254 21 15.2107 21 14C21 12.3431 19.6569 11 18 11ZM17 14C17 13.4477 17.4477 13 18 13C18.5523 13 19 13.4477 19 14C19 14.5523 18.5523 15 18 15C17.4477 15 17 14.5523 17 14Z" fill="black"/>
</svg>
