<svg width="24" height="24" viewBox="0 0 24 24" fill="none" xmlns="http://www.w3.org/2000/svg">
<path d="M20 20V4H4V20H20Z" stroke="black" stroke-width="2" stroke-linecap="square"/>
<path d="M16 9V15" stroke="black" stroke-width="2" stroke-linecap="square"/>
<path d="M8 11.125C8.48325 11.125 8.875 11.5168 8.875 12C8.875 12.4832 8.48325 12.875 8 12.875C7.51675 12.875 7.125 12.4832 7.125 12C7.125 11.5168 7.51675 11.125 8 11.125ZM12 11.125C12.4832 11.125 12.875 11.5168 12.875 12C12.875 12.4832 12.4832 12.875 12 12.875C11.5168 12.875 11.125 12.4832 11.125 12C11.125 11.5168 11.5168 11.125 12 11.125Z" fill="black" stroke="black" stroke-width="0.75"/>
</svg>
