<svg width="24" height="24" viewBox="0 0 24 24" fill="none" xmlns="http://www.w3.org/2000/svg">
<path fill-rule="evenodd" clip-rule="evenodd" d="M9.81814 3.17532C10.4418 3.06617 11.1506 3.00356 11.8928 3.00015C12.635 2.99674 13.4089 3.05252 14.1547 3.17532C15.333 3.36955 16.3256 4.24376 16.3256 5.40752V9.49655C16.3256 10.6956 15.3619 11.6787 14.1547 11.6787H9.81814C8.34576 11.6787 7.10586 12.929 7.10586 14.3463V16.3083H5.6131C4.35129 16.3083 3.61426 15.4024 3.30564 14.1311C2.88933 12.4232 2.90701 11.4025 3.30564 9.76682C3.65123 8.33981 4.75611 7.58967 6.01792 7.58967H11.989V7.04414H7.64731V5.40752C7.64731 4.16832 7.98088 3.49636 9.81814 3.17532ZM10.3596 5.13725C10.3596 4.68459 9.99335 4.31645 9.54489 4.31645C9.09482 4.31645 8.73019 4.68459 8.73019 5.13725C8.73019 5.58831 9.09482 5.95306 9.54489 5.95306C9.99335 5.95306 10.3596 5.58831 10.3596 5.13725Z" fill="black"/>
<path fill-rule="evenodd" clip-rule="evenodd" d="M16.8669 9.49624V7.58936H18.4962C19.7597 7.58936 20.3552 8.52409 20.6671 9.76651C21.1011 11.4921 21.1204 12.7857 20.6671 14.1308C20.2283 15.4374 19.758 16.308 18.4962 16.308H11.9888V16.8535H16.3254V18.4901C16.3254 19.7293 15.2476 20.3592 14.1546 20.6723C12.5102 21.1442 11.1923 21.0719 9.81792 20.6723C8.67024 20.3384 7.64709 19.6539 7.64709 18.4901V14.4011C7.64709 13.2245 8.63005 12.2189 9.81792 12.2189H14.1546C15.5996 12.2189 16.8669 10.9746 16.8669 9.49624ZM15.2425 18.7604C15.2425 18.3093 14.8779 17.9446 14.4278 17.9446C13.9794 17.9446 13.6131 18.3093 13.6131 18.7604C13.6131 19.213 13.9794 19.5812 14.4278 19.5812C14.8779 19.5812 15.2425 19.213 15.2425 18.7604Z" fill="black"/>
</svg>
