<svg width="24" height="24" viewBox="0 0 24 24" fill="none" xmlns="http://www.w3.org/2000/svg">
<path d="M5.5 4V3H4.5V4H5.5ZM5.5 7.5L6.16999 8.24237L6.5 7.94453V7.5H5.5ZM4 9.93505V10.935H4.69926L4.93926 10.2783L4 9.93505ZM2 9.93505V8.93505H1V9.93505H2ZM2 15H1V16H2V15ZM4 15L4.86571 14.4995L4.57693 14H4V15ZM6 17H7V16.4248L6.5028 16.1356L6 17ZM6 20H5V21H6V20ZM10 20V21H11V20H10ZM10 18V17H9V18H10ZM14 18H15V17H14V18ZM14 20H13V21H14V20ZM18 20V21H19V20H18ZM18 16.463L17.3322 15.7187L17 16.0167V16.463H18ZM9.474 6.00004L8.57494 6.43788L8.84871 7.00004H9.474V6.00004ZM23.597 11.4993L23.0963 10.6337L21.3651 11.6352L21.8658 12.5008L23.597 11.4993ZM20.4174 13.8137C19.9686 13.4918 19.3439 13.5947 19.022 14.0435C18.7001 14.4923 18.8029 15.117 19.2517 15.4389L20.4174 13.8137ZM4.5 4V7.5H6.5V4H4.5ZM4.83001 6.75763C3.93677 7.56378 3.42253 8.60172 3.06074 9.59184L4.93926 10.2783C5.25347 9.41837 5.62723 8.73222 6.16999 8.24237L4.83001 6.75763ZM4 8.93505H2V10.935H4V8.93505ZM1 9.93505V15H3V9.93505H1ZM2 16H4V14H2V16ZM3.13429 15.5006C3.74794 16.5619 4.44311 17.2513 5.4972 17.8644L6.5028 16.1356C5.74489 15.6947 5.30206 15.2542 4.86571 14.4995L3.13429 15.5006ZM5 17V20H7V17H5ZM6 21H10V19H6V21ZM11 20V18H9V20H11ZM10 19H14V17H10V19ZM13 18V20H15V18H13ZM14 21H18V19H14V21ZM19 20V16.463H17V20H19ZM18.6678 17.2074C20.0931 15.9287 21 14.0737 21 12H19C19 13.4763 18.3569 14.7994 17.3322 15.7187L18.6678 17.2074ZM21 12C21 8.13371 17.8663 5.00004 14 5.00004V7.00004C16.7617 7.00004 19 9.23829 19 12H21ZM14 5.00004H9.474V7.00004H14V5.00004ZM9.474 6.00004C10.3731 5.56221 10.3728 5.56167 10.3725 5.56113C10.3724 5.56093 10.3722 5.56038 10.372 5.55999C10.3716 5.55922 10.3712 5.55841 10.3708 5.55757C10.37 5.5559 10.3691 5.5541 10.3681 5.55217C10.3662 5.54832 10.364 5.54398 10.3615 5.53915C10.3566 5.52949 10.3505 5.51789 10.3433 5.50449C10.329 5.4777 10.3099 5.44362 10.286 5.40333C10.2382 5.32282 10.1703 5.21689 10.0799 5.09426C9.89951 4.84944 9.62653 4.53429 9.24068 4.22236C8.45581 3.58785 7.24328 3 5.5 3V5C6.75672 5 7.53119 5.41217 7.98332 5.77768C8.21597 5.96576 8.37399 6.15062 8.46994 6.28081C8.51775 6.34568 8.54942 6.39601 8.56658 6.42489C8.57513 6.43928 8.57997 6.44817 8.58132 6.45068C8.58199 6.45192 8.58177 6.45156 8.58071 6.44947C8.58017 6.44842 8.57942 6.44694 8.57846 6.44502C8.57798 6.44405 8.57745 6.44298 8.57686 6.44179C8.57657 6.44119 8.57626 6.44057 8.57594 6.43992C8.57578 6.43959 8.57553 6.43908 8.57545 6.43892C8.5752 6.4384 8.57494 6.43788 9.474 6.00004ZM21.999 13C21.999 13.5523 21.5512 14 20.999 14V16C22.6558 16 23.999 14.6569 23.999 13H21.999ZM21.8658 12.5008C21.9503 12.6468 21.999 12.8162 21.999 13H23.999C23.999 12.4553 23.8528 11.9416 23.597 11.4993L21.8658 12.5008ZM20.999 14C20.7805 14 20.5811 13.9311 20.4174 13.8137L19.2517 15.4389C19.7439 15.792 20.3486 16 20.999 16V14Z" fill="black"/>
<path d="M8.25 10.75H8.26M8.5 10.75C8.5 10.8881 8.38807 11 8.25 11C8.11193 11 8 10.8881 8 10.75C8 10.6119 8.11193 10.5 8.25 10.5C8.38807 10.5 8.5 10.6119 8.5 10.75Z" stroke="black" stroke-width="2" stroke-linecap="round"/>
</svg>
