<svg width="24" height="24" viewBox="0 0 24 24" fill="none" xmlns="http://www.w3.org/2000/svg">
<path d="M6.6438 4.86042C6.28263 4.34043 5.68107 4 5 4C3.89543 4 3 4.89543 3 6C3 6.64836 3.30852 7.22466 3.78675 7.59011C3.39991 8.88781 3 10.5742 3 12C3 13.4258 3.39991 15.1122 3.78675 16.4099C3.30852 16.7753 3 17.3516 3 18C3 19.1046 3.89543 20 5 20C5.6787 20 6.27844 19.6619 6.64002 19.145C8.16149 19.5515 10.2391 20 12 20C13.7609 20 15.8385 19.5515 17.36 19.145C17.7216 19.6619 18.3213 20 19 20C20.1046 20 21 19.1046 21 18C21 17.3516 20.6915 16.7753 20.2132 16.4099C20.6001 15.1122 21 13.4258 21 12C21 10.5742 20.6001 8.88781 20.2132 7.59011C20.6915 7.22466 21 6.64836 21 6C21 4.89543 20.1046 4 19 4C18.3189 4 17.7174 4.34043 17.3562 4.86042C15.8214 4.45249 13.7293 4 12 4C10.2707 4 8.17857 4.45249 6.6438 4.86042Z" stroke="black" stroke-width="2"/>
</svg>
