<svg width="24" height="24" viewBox="0 0 24 24" fill="none" xmlns="http://www.w3.org/2000/svg">
<path d="M10 9.5H14V10.125L10 13.875V14.5H14" stroke="black" stroke-width="2" stroke-linecap="square"/>
<path d="M6.6438 4.86042L5.82247 5.43088L6.22268 6.00707L6.90067 5.82686L6.6438 4.86042ZM3.78675 7.59011L4.74508 7.87579L4.94221 7.21451L4.39393 6.79554L3.78675 7.59011ZM3.78675 16.4099L4.39393 17.2045L4.94221 16.7855L4.74508 16.1242L3.78675 16.4099ZM6.64002 19.145L6.89814 18.1789L6.22182 17.9982L5.82058 18.5718L6.64002 19.145ZM17.36 19.145L18.1794 18.5718L17.7782 17.9982L17.1019 18.1789L17.36 19.145ZM20.2132 16.4099L19.2549 16.1242L19.0578 16.7855L19.6061 17.2045L20.2132 16.4099ZM20.2132 7.59011L19.6061 6.79554L19.0578 7.21451L19.2549 7.87579L20.2132 7.59011ZM17.3562 4.86042L17.0993 5.82686L17.7773 6.00707L18.1775 5.43088L17.3562 4.86042ZM7.46512 4.28995C6.92508 3.51243 6.02247 3 5 3V5C5.33968 5 5.64019 5.16844 5.82247 5.43088L7.46512 4.28995ZM5 3C3.34315 3 2 4.34315 2 6H4C4 5.44772 4.44772 5 5 5V3ZM2 6C2 6.97314 2.46443 7.83819 3.17958 8.38468L4.39393 6.79554C4.15261 6.61114 4 6.32359 4 6H2ZM2.82843 7.30444C2.43515 8.62372 2 10.424 2 12H4C4 10.7244 4.36467 9.1519 4.74508 7.87579L2.82843 7.30444ZM2 12C2 13.576 2.43515 15.3763 2.82843 16.6956L4.74508 16.1242C4.36467 14.8481 4 13.2756 4 12H2ZM4 18C4 17.6764 4.15261 17.3889 4.39393 17.2045L3.17958 15.6153C2.46443 16.1618 2 17.0269 2 18H4ZM5 19C4.44772 19 4 18.5523 4 18H2C2 19.6569 3.34315 21 5 21V19ZM5.82058 18.5718C5.63809 18.8327 5.33851 19 5 19V21C6.0189 21 6.9188 20.4911 7.45946 19.7182L5.82058 18.5718ZM6.38189 20.1111C7.92265 20.5228 10.1037 21 12 21V19C10.3746 19 8.40034 18.5802 6.89814 18.1789L6.38189 20.1111ZM12 21C13.8963 21 16.0773 20.5228 17.6181 20.1111L17.1019 18.1789C15.5997 18.5802 13.6254 19 12 19V21ZM16.5405 19.7182C17.0812 20.4911 17.9811 21 19 21V19C18.6615 19 18.3619 18.8327 18.1794 18.5718L16.5405 19.7182ZM19 21C20.6569 21 22 19.6569 22 18H20C20 18.5523 19.5523 19 19 19V21ZM22 18C22 17.0269 21.5356 16.1618 20.8204 15.6153L19.6061 17.2045C19.8474 17.3889 20 17.6764 20 18H22ZM21.1716 16.6956C21.5648 15.3763 22 13.576 22 12H20C20 13.2756 19.6353 14.8481 19.2549 16.1242L21.1716 16.6956ZM22 12C22 10.424 21.5648 8.62372 21.1716 7.30444L19.2549 7.87579C19.6353 9.1519 20 10.7244 20 12H22ZM20.8204 8.38468C21.5356 7.83819 22 6.97314 22 6H20C20 6.32359 19.8474 6.61114 19.6061 6.79554L20.8204 8.38468ZM22 6C22 4.34315 20.6569 3 19 3V5C19.5523 5 20 5.44771 20 6H22ZM19 3C17.9775 3 17.0749 3.51243 16.5349 4.28995L18.1775 5.43088C18.3598 5.16844 18.6603 5 19 5V3ZM17.6131 3.89397C16.0623 3.48179 13.8657 3 12 3V5C13.5929 5 15.5806 5.42319 17.0993 5.82686L17.6131 3.89397ZM12 3C10.1343 3 7.93771 3.48179 6.38692 3.89397L6.90067 5.82686C8.41944 5.42319 10.4071 5 12 5V3Z" fill="black"/>
</svg>
