<svg width="24" height="24" viewBox="0 0 24 24" fill="none" xmlns="http://www.w3.org/2000/svg">
<path d="M13 12V11H11V12H13ZM13.0604 8.4392C13.6467 9.02551 13.6462 9.97556 13.0608 10.5605L14.4744 11.9753C15.8421 10.6088 15.8416 8.392 14.4747 7.02504L13.0604 8.4392ZM13.0608 10.5605C12.474 11.1467 11.5239 11.1461 10.9395 10.5611L9.52459 11.9746C10.8914 13.3429 13.108 13.3405 14.4744 11.9753L13.0608 10.5605ZM10.9395 10.5611C10.3533 9.97432 10.3539 9.024 10.9389 8.43955L9.52528 7.02469C8.15713 8.3916 8.15958 10.6082 9.52459 11.9746L10.9395 10.5611ZM10.9389 8.43955C11.5254 7.85352 12.4748 7.85356 13.0604 8.4392L14.4747 7.02504C13.1072 5.6574 10.8919 5.65935 9.52528 7.02469L10.9389 8.43955ZM11 12V17H13V12H11ZM12 20C7.58172 20 4 16.4183 4 12H2C2 17.5228 6.47715 22 12 22V20ZM4 12C4 7.58172 7.58172 4 12 4V2C6.47715 2 2 6.47715 2 12H4ZM12 4C16.4183 4 20 7.58172 20 12H22C22 6.47715 17.5228 2 12 2V4ZM20 12C20 16.4183 16.4183 20 12 20V22C17.5228 22 22 17.5228 22 12H20Z" fill="black"/>
</svg>
