<svg width="24" height="24" viewBox="0 0 24 24" fill="none" xmlns="http://www.w3.org/2000/svg">
<path d="M13 9V8H11V9H13ZM13.414 4.58562C14.1955 5.36726 14.195 6.634 13.4143 7.41403L14.8279 8.82889C16.3909 7.26728 16.3904 4.73375 14.8282 3.17146L13.414 4.58562ZM13.4143 7.41403C12.6322 8.19538 11.3654 8.19503 10.586 7.41472L9.171 8.82819C10.733 10.3918 13.2662 10.3892 14.8279 8.82889L13.4143 7.41403ZM10.586 7.41472C9.80462 6.63257 9.80497 5.36556 10.5853 4.58597L9.17169 3.17111C7.60823 4.73316 7.61087 7.26642 9.171 8.82819L10.586 7.41472ZM10.5853 4.58597C11.3671 3.80481 12.6331 3.80466 13.414 4.58562L14.8282 3.17146C13.2654 1.6085 10.7336 1.61064 9.17169 3.17111L10.5853 4.58597ZM11 9V17H13V9H11ZM20 17.5001C20 17.6089 19.9472 17.8217 19.6159 18.1263C19.2838 18.4317 18.7479 18.7527 18.0015 19.0429C16.515 19.621 14.3935 20.0001 12 20.0001V22.0001C14.577 22.0001 16.9555 21.5956 18.7264 20.9069C19.6087 20.5638 20.3909 20.1306 20.9696 19.5986C21.5491 19.0657 22 18.3577 22 17.5001H20ZM12 20.0001C9.60648 20.0001 7.48496 19.621 5.99849 19.0429C5.25207 18.7527 4.71624 18.4317 4.3841 18.1263C4.0528 17.8217 4 17.6089 4 17.5001H2C2 18.3577 2.45088 19.0657 3.03043 19.5986C3.60913 20.1306 4.39133 20.5638 5.27359 20.9069C7.04448 21.5956 9.42296 22.0001 12 22.0001V20.0001ZM4 17.5001C4 17.3225 4.17323 16.874 5.1647 16.338C6.08847 15.8387 7.46218 15.42 9.13617 15.1899L8.86383 13.2085C7.04225 13.4589 5.41595 13.9287 4.21362 14.5787C3.07898 15.192 2 16.1537 2 17.5001H4ZM14.8638 15.1899C16.5378 15.42 17.9115 15.8387 18.8353 16.338C19.8268 16.874 20 17.3225 20 17.5001H22C22 16.1537 20.921 15.192 19.7864 14.5787C18.584 13.9287 16.9578 13.4589 15.1362 13.2085L14.8638 15.1899Z" fill="black"/>
</svg>
