<svg width="24" height="24" viewBox="0 0 24 24" fill="none" xmlns="http://www.w3.org/2000/svg">
<path d="M12.5486 21.0025L12.8993 17.495C12.9526 16.9623 12.5342 16.5 11.9988 16.5C11.4634 16.5 11.0451 16.9623 11.0983 17.495L11.4491 21.0025C11.4773 21.2849 11.715 21.5 11.9988 21.5C12.2827 21.5 12.5203 21.2849 12.5486 21.0025Z" stroke="black" stroke-width="2"/>
<path d="M13 12C13 12.5523 12.5523 13 12 13C11.4477 13 11 12.5523 11 12C11 11.4477 11.4477 11 12 11C12.5523 11 13 11.4477 13 12Z" stroke="black" stroke-width="2"/>
<path d="M12 2C17.5228 2 22 6.47715 22 12C22 15.6988 19.9905 18.9263 17.0049 20.6562L16.2998 18.7441C18.5239 17.3232 20 14.835 20 12C20 7.58172 16.4183 4 12 4C7.58172 4 4 7.58172 4 12C4 14.8347 5.47553 17.3231 7.69922 18.7441L6.99414 20.6562C4.00897 18.9262 2 15.6985 2 12C2 6.47715 6.47715 2 12 2Z" fill="black"/>
<path d="M12 6C15.3137 6 18 8.68629 18 12C18 13.9685 17.0512 15.7145 15.5869 16.8086L14.8486 14.8057C15.5599 14.0836 16 13.0936 16 12C16 9.79086 14.2091 8 12 8C9.79086 8 8 9.79086 8 12C8 13.0934 8.43941 14.0836 9.15039 14.8057L8.41211 16.8086C6.94814 15.7145 6 13.9682 6 12C6 8.68629 8.68629 6 12 6Z" fill="black"/>
</svg>
