<svg width="24" height="24" viewBox="0 0 24 24" fill="none" xmlns="http://www.w3.org/2000/svg">
<path d="M20.0118 4V3H18.0118V4H20.0118ZM19.0118 8V9H20.0118V8H19.0118ZM15.0118 7H14.0118V9H15.0118V7ZM4 20V21H6V20H4ZM5 16V15H4V16H5ZM9 17H10V15H9V17ZM3 12V13H5V12H3ZM21 12V11H19V12H21ZM12 11C11.4477 11 11 11.4477 11 12C11 12.5523 11.4477 13 12 13V11ZM12.01 13C12.5623 13 13.01 12.5523 13.01 12C13.01 11.4477 12.5623 11 12.01 11V13ZM17.6989 7.84076L18.2974 8.64187L19.8996 7.44481L19.3011 6.64371L17.6989 7.84076ZM6.3011 16.1592L5.70258 15.3581L4.10037 16.5552L4.6989 17.3563L6.3011 16.1592ZM18.0118 4V8H20.0118V4H18.0118ZM19.0118 7H19V9H19.0118V7ZM19 7H15.0118V9H19V7ZM6 20V16H4V20H6ZM5 17H9V15H5V17ZM12 3C7.02944 3 3 7.02944 3 12H5C5 8.13401 8.13401 5 12 5V3ZM12 21C16.9706 21 21 16.9706 21 12H19C19 15.866 15.866 19 12 19V21ZM12 13H12.01V11H12V13ZM19.3011 6.64371C17.6475 4.43039 14.9596 3 12 3V5C14.3128 5 16.4132 6.11985 17.6989 7.84076L19.3011 6.64371ZM4.6989 17.3563C6.35253 19.5696 9.04038 21 12 21V19C9.68717 19 7.58684 17.8801 6.3011 16.1592L4.6989 17.3563Z" fill="black"/>
</svg>
