<svg width="24" height="24" viewBox="0 0 24 24" fill="none" xmlns="http://www.w3.org/2000/svg">
<path d="M19 3H5V20.6L7.33333 19L9.66667 21L12 19L14.3333 21L16.6667 19L19 20.6V3Z" stroke="black" stroke-width="2" stroke-linecap="square"/>
<path d="M9 8H9.01M9.25 8C9.25 8.13807 9.13807 8.25 9 8.25C8.86193 8.25 8.75 8.13807 8.75 8C8.75 7.86193 8.86193 7.75 9 7.75C9.13807 7.75 9.25 7.86193 9.25 8Z" stroke="black" stroke-width="2" stroke-linecap="round"/>
<path d="M15 14H15.01M15.25 14C15.25 14.1381 15.1381 14.25 15 14.25C14.8619 14.25 14.75 14.1381 14.75 14C14.75 13.8619 14.8619 13.75 15 13.75C15.1381 13.75 15.25 13.8619 15.25 14Z" stroke="black" stroke-width="2" stroke-linecap="round"/>
<path d="M15.9571 8.45701L16.6642 7.7499L15.25 6.33569L14.5429 7.04279L15.9571 8.45701ZM14.5429 7.04279L8.04285 13.5428L9.45707 14.957L15.9571 8.45701L14.5429 7.04279Z" fill="black"/>
</svg>
