<svg width="24" height="24" viewBox="0 0 24 24" fill="none" xmlns="http://www.w3.org/2000/svg">
<path d="M21.9864 6.1644L22.1508 5.178L20.178 4.84921L20.0136 5.8356L21.9864 6.1644ZM19.5 15V16H20.3471L20.4864 15.1644L19.5 15ZM6 15L5.01361 15.1644L5.15287 16H6V15ZM4 3L4.98639 2.8356L4.84713 2H4V3ZM2 2H1V4H2V2ZM11.2071 3.79289L10.5 3.08579L9.08579 4.5L9.79289 5.20711L11.2071 3.79289ZM16.2071 5.20711L16.9142 4.5L15.5 3.08579L14.7929 3.79289L16.2071 5.20711ZM9.79289 8.79289L9.08579 9.5L10.5 10.9142L11.2071 10.2071L9.79289 8.79289ZM14.7929 10.2071L15.5 10.9142L16.9142 9.5L16.2071 8.79289L14.7929 10.2071ZM20.0136 5.8356L18.5136 14.8356L20.4864 15.1644L21.9864 6.1644L20.0136 5.8356ZM19.5 14H6V16H19.5V14ZM4 2H2V4H4V2ZM9.79289 5.20711L12.2929 7.70711L13.7071 6.29289L11.2071 3.79289L9.79289 5.20711ZM13.7071 7.70711L16.2071 5.20711L14.7929 3.79289L12.2929 6.29289L13.7071 7.70711ZM12.2929 6.29289L9.79289 8.79289L11.2071 10.2071L13.7071 7.70711L12.2929 6.29289ZM12.2929 7.70711L14.7929 10.2071L16.2071 8.79289L13.7071 6.29289L12.2929 7.70711ZM8 19V21C9.10457 21 10 20.1046 10 19H8ZM8 19H6C6 20.1046 6.89543 21 8 21V19ZM8 19V17C6.89543 17 6 17.8954 6 19H8ZM8 19H10C10 17.8954 9.10457 17 8 17V19ZM17 19V21C18.1046 21 19 20.1046 19 19H17ZM17 19H15C15 20.1046 15.8954 21 17 21V19ZM17 19V17C15.8954 17 15 17.8954 15 19H17ZM17 19H19C19 17.8954 18.1046 17 17 17V19ZM3.01361 3.1644L5.01361 15.1644L6.98639 14.8356L4.98639 2.8356L3.01361 3.1644Z" fill="black"/>
</svg>
