<svg width="24" height="24" viewBox="0 0 24 24" fill="none" xmlns="http://www.w3.org/2000/svg">
<path d="M14.0038 16C15.1063 16 16 16.8937 16 17.9962C16 20.2335 13.5523 19.9924 12.0076 19.9924C12.0076 18.4477 11.7665 16 14.0038 16Z" stroke="black" stroke-width="2" stroke-linecap="square"/>
<path d="M14.3574 15.4999C15.8324 13.4711 17.0821 12.2524 19.2073 11.1411C19.6776 10.8952 20.2503 10.9997 20.6255 11.3749C21.0008 11.7501 21.1052 12.3229 20.8593 12.7931C19.748 14.9183 18.5293 16.1681 16.5005 17.643" stroke="black" stroke-width="2" stroke-linecap="square"/>
<path d="M4.50039 4V8H8.50049M3.55859 13C3.88938 15.8226 5.60308 18.2224 8.00391 19.5038M18.875 7C17.3295 4.87867 14.8259 3.5 12.0004 3.5C9.05601 3.5 6.46129 4.99708 4.93591 7.27156" stroke="black" stroke-width="2" stroke-linecap="square"/>
</svg>
