<svg width="24" height="24" viewBox="0 0 24 24" fill="none" xmlns="http://www.w3.org/2000/svg">
<path d="M18.3226 17.7204H8.52906C8.52906 19.5234 7.06748 20.985 5.26453 20.985C3.46158 20.985 2 19.5234 2 17.7204C2 16.5849 2.57973 15.5849 3.45936 15" stroke="black" stroke-width="2" stroke-linecap="round" stroke-linejoin="round"/>
<path d="M18.3226 18.8087C18.9235 18.8087 19.4107 18.3215 19.4107 17.7205C19.4107 17.1195 18.9235 16.6323 18.3226 16.6323C17.7216 16.6323 17.2344 17.1195 17.2344 17.7205C17.2344 18.3215 17.7216 18.8087 18.3226 18.8087Z" stroke="black"/>
<path d="M5.37126 17.768L10.2681 9.28654C8.70665 8.38507 8.17168 6.38851 9.07315 4.82711C9.97463 3.26571 11.9712 2.73074 13.5326 3.63221C14.5159 4.19996 15.0922 5.20207 15.1589 6.25627" stroke="black" stroke-width="2" stroke-linecap="round" stroke-linejoin="round"/>
<path d="M4.4288 17.224C4.12831 17.7444 4.30664 18.4099 4.8271 18.7104C5.34757 19.0109 6.01309 18.8326 6.31358 18.3121C6.61407 17.7917 6.43574 17.1262 5.91528 16.8257C5.39481 16.5252 4.72929 16.7035 4.4288 17.224Z" stroke="black"/>
<path d="M11.856 6.55706L16.7528 15.0386C18.3142 14.1371 20.3108 14.6721 21.2122 16.2335C22.1137 17.7949 21.5787 19.7914 20.0173 20.6929C19.034 21.2606 17.878 21.2586 16.9317 20.7893" stroke="black" stroke-width="2" stroke-linecap="round" stroke-linejoin="round"/>
<path d="M12.7985 6.01289C12.498 5.49243 11.8324 5.3141 11.312 5.61459C10.7915 5.91508 10.6132 6.5806 10.9137 7.10107C11.2142 7.62154 11.8797 7.79986 12.4002 7.49937C12.9206 7.19888 13.0989 6.53336 12.7985 6.01289Z" stroke="black"/>
</svg>
