<svg width="24" height="24" viewBox="0 0 24 24" fill="none" xmlns="http://www.w3.org/2000/svg">
<path d="M14.1413 6.51074H10.0757C9.92859 6.51074 9.80422 6.56959 9.70124 6.69798L6.78577 10.3088C6.35781 10.8438 6.25082 11.3386 6.25082 12.0474V15.7386C5.30129 18.3999 4.69947 20.2054 4.25813 21.837C4.23139 21.9413 4.27151 21.9975 4.36512 21.9975H4.80646C4.8867 21.9975 4.96694 21.9574 4.99369 21.8905C8.32375 13.4115 11.948 9.21224 14.2216 6.69798C14.3152 6.59099 14.2751 6.51074 14.1413 6.51074Z" fill="black"/>
<path d="M14.2617 2.35137C13.9889 2.45703 13.7267 2.63623 13.6064 2.73921C12.4027 3.76899 11.6003 4.58479 10.838 5.38721C10.7444 5.48083 10.7845 5.57444 10.9182 5.57444H15.4252C15.8398 5.57444 16.0805 5.81517 16.0805 6.22975V11.3118C16.0805 11.4455 16.1875 11.4856 16.2677 11.3653L18.9826 7.82123C19.4239 7.24616 19.5577 7.0723 19.678 6.26988C19.8385 5.09299 19.7449 3.28754 19.0361 2.53861C18.4075 1.86992 15.5723 1.84317 14.2617 2.35137Z" fill="black"/>
<path d="M14.9437 7.52713C12.1486 10.6432 9.96874 13.9197 7.9493 17.865C7.89848 17.964 7.96268 18.0522 8.08304 18.0121L12.2556 16.7282C12.7264 16.5838 12.9912 16.3939 13.2185 16.0194L15.0775 12.9568C15.1176 12.8766 15.131 12.783 15.131 12.7161V7.60737C15.131 7.47363 15.0374 7.42014 14.9437 7.52713Z" fill="black"/>
</svg>
