<svg width="24" height="24" viewBox="0 0 24 24" fill="none" xmlns="http://www.w3.org/2000/svg">
<path d="M5.5 19C6.88071 19 8 17.8807 8 16.5C8 15.1193 6.88071 14 5.5 14C4.11929 14 3 15.1193 3 16.5C3 17.8807 4.11929 19 5.5 19Z" stroke="black" stroke-width="2"/>
<path d="M18.5 19C19.8807 19 21 17.8807 21 16.5C21 15.1193 19.8807 14 18.5 14C17.1193 14 16 15.1193 16 16.5C16 17.8807 17.1193 19 18.5 19Z" stroke="black" stroke-width="2"/>
<path d="M18.25 13.75L16.5 5H14" stroke="black" stroke-width="2" stroke-linecap="square"/>
<path d="M8.5 16.5H15.5" stroke="black" stroke-width="2" stroke-linecap="square"/>
</svg>
