<svg width="24" height="24" viewBox="0 0 24 24" fill="none" xmlns="http://www.w3.org/2000/svg">
<path d="M9 2V1H8V2H9ZM15 2H16V1H15V2ZM12 6L11.2929 6.70711L12 7.41421L12.7071 6.70711L12 6ZM9 3H8V3.41421L8.29289 3.70711L9 3ZM15 3L15.7071 3.70711L16 3.41421V3H15ZM3.5 11H2.5V13H3.5V11ZM6 13H7V11H6V13ZM20.5 13H21.5V11H20.5V13ZM18 11H17V13H18V11ZM5.29288 17.2929L4.58579 18L6.00002 19.4142L6.70712 18.7071L5.29288 17.2929ZM8.46448 16.9497L9.17157 16.2426L7.75734 14.8284L7.05024 15.5355L8.46448 16.9497ZM18.7071 6.70713L19.4142 6.00004L18 4.5858L17.2929 5.2929L18.7071 6.70713ZM15.5355 7.0502L14.8284 7.7573L16.2426 9.17153L16.9497 8.46444L15.5355 7.0502ZM6.7071 5.2929L5.99998 4.5858L4.58579 6.00004L5.2929 6.70713L6.7071 5.2929ZM7.05026 8.46444L7.75738 9.17153L9.17157 7.7573L8.46446 7.0502L7.05026 8.46444ZM17.2929 18.7071L18 19.4142L19.4142 18L18.7071 17.2929L17.2929 18.7071ZM16.9498 15.5355L16.2427 14.8284L14.8284 16.2426L15.5355 16.9497L16.9498 15.5355ZM11 20.5V21.5H13V20.5H11ZM13 18V17H11V18H13ZM20 12C20 16.4183 16.4183 20 12 20V22C17.5228 22 22 17.5228 22 12H20ZM12 20C7.58172 20 4 16.4183 4 12H2C2 17.5228 6.47715 22 12 22V20ZM4 12C4 8.50686 6.2394 5.53417 9.36389 4.4442L8.70512 2.5558C4.80243 3.91725 2 7.63006 2 12H4ZM14.6361 4.4442C17.7606 5.53417 20 8.50686 20 12H22C22 7.63006 19.1976 3.91725 15.2949 2.5558L14.6361 4.4442ZM9 3H15V1H9V3ZM12.7071 5.29289L9.70711 2.29289L8.29289 3.70711L11.2929 6.70711L12.7071 5.29289ZM10 3V2H8V3H10ZM14 2V3H16V2H14ZM14.2929 2.29289L11.2929 5.29289L12.7071 6.70711L15.7071 3.70711L14.2929 2.29289ZM3.5 13H6V11H3.5V13ZM20.5 11H18V13H20.5V11ZM6.70712 18.7071L8.46448 16.9497L7.05024 15.5355L5.29288 17.2929L6.70712 18.7071ZM17.2929 5.2929L15.5355 7.0502L16.9497 8.46444L18.7071 6.70713L17.2929 5.2929ZM5.2929 6.70713L7.05026 8.46444L8.46446 7.0502L6.7071 5.2929L5.2929 6.70713ZM18.7071 17.2929L16.9498 15.5355L15.5355 16.9497L17.2929 18.7071L18.7071 17.2929ZM13 20.5V18H11V20.5H13ZM13 12C13 12.5523 12.5523 13 12 13V15C13.6569 15 15 13.6569 15 12H13ZM12 13C11.4477 13 11 12.5523 11 12H9C9 13.6569 10.3431 15 12 15V13ZM11 12C11 11.4477 11.4477 11 12 11V9C10.3431 9 9 10.3431 9 12H11ZM12 11C12.5523 11 13 11.4477 13 12H15C15 10.3431 13.6569 9 12 9V11Z" fill="black"/>
</svg>
