<svg width="24" height="24" viewBox="0 0 24 24" fill="none" xmlns="http://www.w3.org/2000/svg">
<path d="M7.5 12.5L14.5 5.5L18.5 9.5L11.5 16.5" stroke="black" stroke-width="2" stroke-linecap="square"/>
<path d="M7 17L5 19" stroke="black" stroke-width="2" stroke-linecap="square"/>
<path d="M8.5 11.5L5.75 8.75M5.75 8.75L3 6L5.25 3.75L7.5 1.5L10.25 4.25M5.75 8.75L8 6.5L10.25 4.25M13 7L10.25 4.25" stroke="black" stroke-width="2" stroke-linecap="square"/>
<path d="M12.5 15.5L15.25 18.25M15.25 18.25L18 21L22.5 16.5L19.75 13.75M15.25 18.25L19.75 13.75M17 11L19.75 13.75" stroke="black" stroke-width="2" stroke-linecap="square"/>
<path d="M9.82872 19.8283C11.3908 18.2662 11.3908 15.7336 9.82872 14.1715C8.26662 12.6094 5.73397 12.6094 4.17188 14.1715L9.82872 19.8283Z" stroke="black" stroke-width="2"/>
</svg>
