<svg width="24" height="24" viewBox="0 0 24 24" fill="none" xmlns="http://www.w3.org/2000/svg">
<path d="M3 7V5H5M14 5H15M9 5H10M19 5H21V7M10 19H9M5 19H3V17M3 13V11" stroke="black" stroke-width="2" stroke-linecap="square"/>
<path d="M18.5 17C19.3284 17 20 16.3284 20 15.5C20 14.6716 19.3284 14 18.5 14C17.6716 14 17 14.6716 17 15.5C17 16.3284 17.6716 17 18.5 17Z" stroke="black" stroke-width="2"/>
<path d="M18.5 20C20.9853 20 23 17.9853 23 15.5C23 13.0147 20.9853 11 18.5 11C16.0147 11 14 13.0147 14 15.5C14 17.9853 16.0147 20 18.5 20Z" stroke="black" stroke-width="2"/>
<path d="M18 15.5H19" stroke="black"/>
</svg>
