<svg width="24" height="24" viewBox="0 0 24 24" fill="none" xmlns="http://www.w3.org/2000/svg">
<path d="M7.58617 4.58455L8.2921 5.29284L8.29283 5.2921L7.58617 4.58455ZM17.9563 5.00049H18.9563V3.00049H17.9563V5.00049ZM7 15.5001C8 15.5001 8 15.5001 8 15.5C8 15.4999 8 15.5001 8 15.5C8 15.4998 8 15.499 8 15.4988C8 15.4986 8 15.499 8 15.4988C8 15.4985 8 15.4975 8 15.4972C8 15.4968 8 15.4965 8 15.4961C8 15.4957 8 15.4953 8 15.4949C8 15.4944 8 15.494 8 15.4935C8 15.493 8 15.4925 8 15.4919C8 15.4914 8 15.4908 8 15.4902C8 15.4896 8 15.489 8 15.4884C8 15.4877 8 15.4871 8 15.4863C8 15.4856 8 15.4849 8 15.4842C8 15.4834 8 15.4826 8 15.4818C8 15.481 8 15.4802 8 15.4793C8 15.4785 8 15.4776 8 15.4767C8 15.4758 8 15.4748 8 15.4739C8 15.4729 8 15.4719 8 15.4709C8 15.4699 8 15.4688 8 15.4678C8 15.4667 8 15.4656 8 15.4645C8 15.4634 8 15.4622 8 15.4611C8 15.4599 8 15.4587 8 15.4575C8 15.4563 8 15.455 8 15.4538C8 15.4525 8 15.4512 8 15.4499C8 15.4485 8 15.4472 8 15.4458C8 15.4445 8 15.4431 8 15.4416C8 15.4402 8 15.4388 8 15.4373C8 15.4358 8 15.4343 8 15.4328C8 15.4313 8 15.4297 8 15.4282C8 15.4266 8 15.425 8 15.4234C8 15.4217 8 15.4201 8 15.4184C8 15.4168 8 15.4151 8 15.4133C8 15.4116 8 15.4099 8 15.4081C8 15.4063 8 15.4045 8 15.4027C8 15.4009 8 15.3991 8 15.3972C8 15.3953 8 15.3934 8 15.3915C8 15.3896 8 15.3877 8 15.3857C8 15.3837 8 15.3818 8 15.3797C8 15.3777 8 15.3757 8 15.3736C8 15.3716 8 15.3695 8 15.3674C8 15.3653 8 15.3631 8 15.361C8 15.3588 8 15.3567 8 15.3545C8 15.3523 8 15.35 8 15.3478C8 15.3455 8 15.3433 8 15.341C8 15.3387 8 15.3363 8 15.334C8 15.3317 8 15.3293 8 15.3269C8 15.3245 8 15.3221 8 15.3197C8 15.3172 8 15.3148 8 15.3123C8 15.3098 8 15.3073 8 15.3048C8 15.3022 8 15.2997 8 15.2971C8 15.2945 8 15.2919 8 15.2893C8 15.2867 8 15.284 8 15.2814C8 15.2787 8 15.276 8 15.2733C8 15.2706 8 15.2679 8 15.2651C8 15.2623 8 15.2596 8 15.2568C8 15.254 8 15.2511 8 15.2483C8 15.2454 8 15.2426 8 15.2397C8 15.2368 8 15.2339 8 15.2309C8 15.228 8 15.225 8 15.2221C8 15.2191 8 15.2161 8 15.2131C8 15.21 8 15.207 8 15.2039C8 15.2008 8 15.1978 8 15.1946C8 15.1915 8 15.1884 8 15.1852C8 15.1821 8 15.1789 8 15.1757C8 15.1725 8 15.1693 8 15.166C8 15.1628 8 15.1595 8 15.1562C8 15.153 8 15.1497 8 15.1463C8 15.143 8 15.1396 8 15.1363C8 15.1329 8 15.1295 8 15.1261C8 15.1227 8 15.1192 8 15.1158C8 15.1123 8 15.1089 8 15.1054C8 15.1019 8 15.0983 8 15.0948C8 15.0913 8 15.0877 8 15.0841C8 15.0805 8 15.0769 8 15.0733C8 15.0697 8 15.066 8 15.0624C8 15.0587 8 15.055 8 15.0513C8 15.0476 8 15.0439 8 15.0401C8 15.0364 8 15.0326 8 15.0288C8 15.025 8 15.0212 8 15.0174C8 15.0136 8 15.0097 8 15.0059C8 15.002 8 14.9981 8 14.9942C8 14.9903 8 14.9863 8 14.9824C8 14.9784 8 14.9745 8 14.9705C8 14.9665 8 14.9625 8 14.9585C8 14.9544 8 14.9504 8 14.9463C8 14.9422 8 14.9381 8 14.934C8 14.9299 8 14.9258 8 14.9217C8 14.9175 8 14.9133 8 14.9091C8 14.905 8 14.9008 8 14.8965C8 14.8923 8 14.8881 8 14.8838C8 14.8795 8 14.8752 8 14.8709C8 14.8666 8 14.8623 8 14.858C8 14.8536 8 14.8493 8 14.8449C8 14.8405 8 14.8361 8 14.8317C8 14.8273 8 14.8228 8 14.8184C8 14.8139 8 14.8094 8 14.805C8 14.8005 8 14.7959 8 14.7914C8 14.7869 8 14.7823 8 14.7778C8 14.7732 8 14.7686 8 14.764C8 14.7594 8 14.7548 8 14.7501C8 14.7455 8 14.7408 8 14.7362C8 14.7315 8 14.7268 8 14.7221C8 14.7174 8 14.7126 8 14.7079C8 14.7031 8 14.6983 8 14.6936C8 14.6888 8 14.684 8 14.6791C8 14.6743 8 14.6695 8 14.6646C8 14.6598 8 14.6549 8 14.65C8 14.6451 8 14.6402 8 14.6352C8 14.6303 8 14.6254 8 14.6204C8 14.6154 8 14.6104 8 14.6054C8 14.6004 8 14.5954 8 14.5904C8 14.5854 8 14.5803 8 14.5752C8 14.5702 8 14.5651 8 14.56C8 14.5549 8 14.5497 8 14.5446C8 14.5395 8 14.5343 8 14.5291C8 14.524 8 14.5188 8 14.5136C8 14.5084 8 14.5031 8 14.4979C8 14.4926 8 14.4874 8 14.4821C8 14.4768 8 14.4715 8 14.4662C8 14.4609 8 14.4556 8 14.4503C8 14.4449 8 14.4396 8 14.4342C8 14.4288 8 14.4234 8 14.418C8 14.4126 8 14.4072 8 14.4017C8 14.3963 8 14.3908 8 14.3854C8 14.3799 8 14.3744 8 14.3689C8 14.3634 8 14.3579 8 14.3523C8 14.3468 8 14.3412 8 14.3357C8 14.3301 8 14.3245 8 14.3189C8 14.3133 8 14.3077 8 14.3021C8 14.2964 8 14.2908 8 14.2851C8 14.2795 8 14.2738 8 14.2681C8 14.2624 8 14.2567 8 14.2509C8 14.2452 8 14.2395 8 14.2337C8 14.228 8 14.2222 8 14.2164C8 14.2106 8 14.2048 8 14.199C8 14.1932 8 14.1873 8 14.1815C8 14.1756 8 14.1698 8 14.1639C8 14.158 8 14.1521 8 14.1462C8 14.1403 8 14.1344 8 14.1284C8 14.1225 8 14.1165 8 14.1106C8 14.1046 8 14.0986 8 14.0926C8 14.0866 8 14.0806 8 14.0746C8 14.0686 8 14.0625 8 14.0565C8 14.0504 8 14.0443 8 14.0382C8 14.0322 8 14.0261 8 14.0199C8 14.0138 8 14.0077 8 14.0016C8 13.9954 8 13.9893 8 13.9831C8 13.9769 8 13.9707 8 13.9645C8 13.9583 8 13.9521 8 13.9459C8 13.9397 8 13.9334 8 13.9272C8 13.9209 8 13.9146 8 13.9083C8 13.9021 8 13.8958 8 13.8895C8 13.8831 8 13.8768 8 13.8705C8 13.8641 8 13.8578 8 13.8514C8 13.8451 8 13.8387 8 13.8323C8 13.8259 8 13.8195 8 13.8131C8 13.8067 8 13.8002 8 13.7938C8 13.7873 8 13.7809 8 13.7744C8 13.7679 8 13.7615 8 13.755C8 13.7485 8 13.7419 8 13.7354C8 13.7289 8 13.7224 8 13.7158C8 13.7093 8 13.7027 8 13.6961C8 13.6896 8 13.683 8 13.6764C8 13.6698 8 13.6631 8 13.6565C8 13.6499 8 13.6433 8 13.6366C8 13.63 8 13.6233 8 13.6166C8 13.6099 8 13.6033 8 13.5966C8 13.5899 8 13.5831 8 13.5764C8 13.5697 8 13.563 8 13.5562C8 13.5495 8 13.5427 8 13.5359C8 13.5291 8 13.5224 8 13.5156C8 13.5088 8 13.5019 8 13.4951C8 13.4883 8 13.4815 8 13.4746C8 13.4678 8 13.4609 8 13.4541C8 13.4472 8 13.4403 8 13.4334C8 13.4265 8 13.4196 8 13.4127C8 13.4058 8 13.3989 8 13.3919C8 13.385 8 13.378 8 13.3711C8 13.3641 8 13.3571 8 13.3502C8 13.3432 8 13.3362 8 13.3292C8 13.3222 8 13.3151 8 13.3081C8 13.3011 8 13.2941 8 13.287C8 13.28 8 13.2729 8 13.2658C8 13.2587 8 13.2517 8 13.2446C8 13.2375 8 13.2304 8 13.2233C8 13.2161 8 13.209 8 13.2019C8 13.1947 8 13.1876 8 13.1804C8 13.1733 8 13.1661 8 13.1589C8 13.1518 8 13.1446 8 13.1374C8 13.1302 8 13.123 8 13.1157C8 13.1085 8 13.1013 8 13.0941C8 13.0868 8 13.0796 8 13.0723C8 13.065 8 13.0578 8 13.0505C8 13.0432 8 13.0359 8 13.0286C8 13.0213 8 13.014 8 13.0067C8 12.9994 8 12.992 8 12.9847C8 12.9774 8 12.97 8 12.9627C8 12.9553 8 12.9479 8 12.9405C8 12.9332 8 12.9258 8 12.9184C8 12.911 8 12.9036 8 12.8962C8 12.8888 8 12.8813 8 12.8739C8 12.8665 8 12.859 8 12.8516C8 12.8441 8 12.8366 8 12.8292C8 12.8217 8 12.8142 8 12.8067C8 12.7993 8 12.7918 8 12.7842C8 12.7767 8 12.7692 8 12.7617C8 12.7542 8 12.7466 8 12.7391C8 12.7316 8 12.724 8 12.7164C8 12.7089 8 12.7013 8 12.6937C8 12.6862 8 12.6786 8 12.671C8 12.6634 8 12.6558 8 12.6482C8 12.6406 8 12.633 8 12.6253C8 12.6177 8 12.6101 8 12.6024C8 12.5948 8 12.5871 8 12.5795C8 12.5718 8 12.5642 8 12.5565C8 12.5488 8 12.5411 8 12.5334C8 12.5257 8 12.518 8 12.5103C8 12.5026 8 12.4949 8 12.4872C8 12.4795 8 12.4717 8 12.464C8 12.4563 8 12.4485 8 12.4408C8 12.433 8 12.4253 8 12.4175C8 12.4097 8 12.4019 8 12.3942C8 12.3864 8 12.3786 8 12.3708C8 12.363 8 12.3552 8 12.3474C8 12.3396 8 12.3317 8 12.3239C8 12.3161 8 12.3083 8 12.3004C8 12.2926 8 12.2847 8 12.2769C8 12.269 8 12.2612 8 12.2533C8 12.2454 8 12.2376 8 12.2297C8 12.2218 8 12.2139 8 12.206C8 12.1981 8 12.1902 8 12.1823C8 12.1744 8 12.1665 8 12.1586C8 12.1507 8 12.1427 8 12.1348C8 12.1269 8 12.1189 8 12.111C8 12.103 8 12.0951 8 12.0871C8 12.0792 8 12.0712 8 12.0632C8 12.0553 8 12.0473 8 12.0393C8 12.0313 8 12.0233 8 12.0153C8 12.0073 8 11.9993 8 11.9913C8 11.9833 8 11.9753 8 11.9673C8 11.9593 8 11.9513 8 11.9432C8 11.9352 8 11.9272 8 11.9191C8 11.9111 8 11.9031 8 11.895C8 11.887 8 11.8789 8 11.8708C8 11.8628 8 11.8547 8 11.8466C8 11.8386 8 11.8305 8 11.8224C8 11.8143 8 11.8062 8 11.7981C8 11.7901 8 11.782 8 11.7738C8 11.7657 8 11.7576 8 11.7495C8 11.7414 8 11.7333 8 11.7252C8 11.7171 8 11.7089 8 11.7008C8 11.6927 8 11.6845 8 11.6764C8 11.6682 8 11.6601 8 11.6519C8 11.6438 8 11.6356 8 11.6275C8 11.6193 8 11.6112 8 11.603C8 11.5948 8 11.5867 8 11.5785C8 11.5703 8 11.5621 8 11.5539C8 11.5458 8 11.5376 8 11.5294C8 11.5212 8 11.513 8 11.5048C8 11.4966 8 11.4884 8 11.4802C8 11.472 8 11.4637 8 11.4555C8 11.4473 8 11.4391 8 11.4309C8 11.4226 8 11.4144 8 11.4062C8 11.3979 8 11.3897 8 11.3815C8 11.3732 8 11.365 8 11.3567C8 11.3485 8 11.3402 8 11.332C8 11.3237 8 11.3155 8 11.3072C8 11.299 8 11.2907 8 11.2824C8 11.2742 8 11.2659 8 11.2576C8 11.2494 8 11.2411 8 11.2328C8 11.2245 8 11.2163 8 11.208C8 11.1997 8 11.1914 8 11.1831C8 11.1748 8 11.1665 8 11.1582C8 11.1499 8 11.1416 8 11.1333C8 11.125 8 11.1167 8 11.1084C8 11.1001 8 11.0918 8 11.0835C8 11.0752 8 11.0669 8 11.0586C8 11.0503 8 11.0419 8 11.0336C8 11.0253 8 11.017 8 11.0086C8 11.0003 8 10.992 8 10.9837C8 10.9753 8 10.967 8 10.9587C8 10.9503 8 10.942 8 10.9337C8 10.9253 8 10.917 8 10.9087C8 10.9003 8 10.892 8 10.8836C8 10.8753 8 10.8669 8 10.8586C8 10.8503 8 10.8419 8 10.8336C8 10.8252 8 10.8169 8 10.8085C8 10.8001 8 10.7918 8 10.7834C8 10.7751 8 10.7667 8 10.7584C8 10.75 8 10.7416 8 10.7333C8 10.7249 8 10.7166 8 10.7082C8 10.6998 8 10.6915 8 10.6831C8 10.6747 8 10.6664 8 10.658C8 10.6496 8 10.6413 8 10.6329C8 10.6245 8 10.6162 8 10.6078C8 10.5994 8 10.591 8 10.5827C8 10.5743 8 10.5659 8 10.5576C8 10.5492 8 10.5408 8 10.5324C8 10.5241 8 10.5157 8 10.5073C8 10.4989 8 10.4906 8 10.4822C8 10.4738 8 10.4654 8 10.4571C8 10.4487 8 10.4403 8 10.4319C8 10.4236 8 10.4152 8 10.4068C8 10.3984 8 10.3901 8 10.3817C8 10.3733 8 10.3649 8 10.3565C8 10.3482 8 10.3398 8 10.3314C8 10.323 8 10.3147 8 10.3063C8 10.2979 8 10.2895 8 10.2812C8 10.2728 8 10.2644 8 10.2561C8 10.2477 8 10.2393 8 10.2309C8 10.2226 8 10.2142 8 10.2058C8 10.1975 8 10.1891 8 10.1807C8 10.1723 8 10.164 8 10.1556C8 10.1472 8 10.1389 8 10.1305C8 10.1221 8 10.1138 8 10.1054C8 10.0971 8 10.0887 8 10.0803C8 10.072 8 10.0636 8 10.0553C8 10.0469 8 10.0385 8 10.0302C8 10.0218 8 10.0135 8 10.0051C8 9.99677 8 9.98842 8 9.98007C8 9.97172 8 9.96337 8 9.95503C8 9.94668 8 9.93834 8 9.92999C8 9.92165 8 9.91331 8 9.90497C8 9.89663 8 9.88829 8 9.87995C8 9.87162 8 9.86328 8 9.85495C8 9.84662 8 9.83829 8 9.82996C8 9.82163 8 9.81331 8 9.80498C8 9.79666 8 9.78834 8 9.78002C8 9.7717 8 9.76338 8 9.75507C8 9.74676 8 9.73844 8 9.73013C8 9.72182 8 9.71352 8 9.70521C8 9.69691 8 9.6886 8 9.68031C8 9.67201 8 9.66371 8 9.65541C8 9.64712 8 9.63883 8 9.63054C8 9.62225 8 9.61397 8 9.60568C8 9.5974 8 9.58912 8 9.58084C8 9.57257 8 9.56429 8 9.55602C8 9.54775 8 9.53948 8 9.53122C8 9.52295 8 9.51469 8 9.50643C8 9.49817 8 9.48992 8 9.48167C8 9.47342 8 9.46517 8 9.45692C8 9.44868 8 9.44044 8 9.4322C8 9.42396 8 9.41573 8 9.4075C8 9.39927 8 9.39104 8 9.38282C8 9.37459 8 9.36637 8 9.35816C8 9.34994 8 9.34173 8 9.33352C8 9.32531 8 9.31711 8 9.30891C8 9.30071 8 9.29251 8 9.28432C8 9.27613 8 9.26794 8 9.25976C8 9.25157 8 9.24339 8 9.23522C8 9.22704 8 9.21887 8 9.21071C8 9.20254 8 9.19438 8 9.18622C8 9.17806 8 9.16991 8 9.16176C8 9.15361 8 9.14547 8 9.13733C8 9.12919 8 9.12105 8 9.11292C8 9.10479 8 9.09667 8 9.08854C8 9.08042 8 9.07231 8 9.0642C8 9.05609 8 9.04798 8 9.03988C8 9.03178 8 9.02368 8 9.01559C8 9.0075 8 8.99941 8 8.99133C8 8.98325 8 8.97518 8 8.9671C8 8.95903 8 8.95097 8 8.94291C8 8.93485 8 8.9268 8 8.91875C8 8.9107 8 8.90265 8 8.89462C8 8.88658 8 8.87855 8 8.87052C8 8.86249 8 8.85447 8 8.84646C8 8.83844 8 8.83043 8 8.82243C8 8.81442 8 8.80642 8 8.79843C8 8.79044 8 8.78245 8 8.77447C8 8.76649 8 8.75852 8 8.75055C8 8.74258 8 8.73462 8 8.72666C8 8.71871 8 8.71076 8 8.70281C8 8.69487 8 8.68693 8 8.679C8 8.67107 8 8.66315 8 8.65523C8 8.64731 8 8.6394 8 8.63149C8 8.62359 8 8.61569 8 8.6078C8 8.5999 8 8.59202 8 8.58414C8 8.57626 8 8.56839 8 8.56052C8 8.55266 8 8.5448 8 8.53695C8 8.5291 8 8.52125 8 8.51342C8 8.50558 8 8.49775 8 8.48992C8 8.4821 8 8.47428 8 8.46648C8 8.45867 8 8.45086 8 8.44307C8 8.43527 8 8.42749 8 8.41971C8 8.41193 8 8.40415 8 8.39639C8 8.38862 8 8.38086 8 8.37311C8 8.36536 8 8.35762 8 8.34988C8 8.34215 8 8.33442 8 8.3267C8 8.31898 8 8.31127 8 8.30357C8 8.29586 8 8.28816 8 8.28048C8 8.27279 8 8.26511 8 8.25743C8 8.24976 8 8.2421 8 8.23444C8 8.22678 8 8.21913 8 8.21149C8 8.20385 8 8.19622 8 8.1886C8 8.18097 8 8.17336 8 8.16575C8 8.15814 8 8.15054 8 8.14295C8 8.13536 8 8.12778 8 8.1202C8 8.11263 8 8.10506 8 8.09751C8 8.08995 8 8.0824 8 8.07486C8 8.06732 8 8.05979 8 8.05227C8 8.04475 8 8.03724 8 8.02973C8 8.02223 8 8.01473 8 8.00725C8 7.99976 8 7.99228 8 7.98482C8 7.97735 8 7.96989 8 7.96244C8 7.95499 8 7.94755 8 7.94012C8 7.93269 8 7.92526 8 7.91785C8 7.91044 8 7.90303 8 7.89564C8 7.88825 8 7.88086 8 7.87349C8 7.86611 8 7.85875 8 7.85139C8 7.84403 8 7.83669 8 7.82935C8 7.82201 8 7.81469 8 7.80737C8 7.80005 8 7.79275 8 7.78545C8 7.77815 8 7.77086 8 7.76359C8 7.75631 8 7.74904 8 7.74178C8 7.73452 8 7.72728 8 7.72004C8 7.7128 8 7.70558 8 7.69836C8 7.69114 8 7.68394 8 7.67674C8 7.66954 8 7.66236 8 7.65518C8 7.64801 8 7.64084 8 7.63369C8 7.62653 8 7.61939 8 7.61225C8 7.60512 8 7.598 8 7.59089C8 7.58377 8 7.57667 8 7.56958C8 7.56249 8 7.55541 8 7.54834C8 7.54127 8 7.53422 8 7.52717C8 7.52012 8 7.51309 8 7.50606C8 7.49904 8 7.49202 8 7.48502C8 7.47802 8 7.47102 8 7.46404C8 7.45706 8 7.45009 8 7.44314C8 7.43618 8 7.42923 8 7.4223C8 7.41536 8 7.40844 8 7.40153C8 7.39461 8 7.38771 8 7.38083C8 7.37394 8 7.36706 8 7.36019C8 7.35333 8 7.34647 8 7.33963C8 7.33279 8 7.32596 8 7.31914C8 7.31232 8 7.30552 8 7.29872C8 7.29193 8 7.28514 8 7.27837C8 7.2716 8 7.26485 8 7.2581C8 7.25135 8 7.24462 8 7.2379C8 7.23117 8 7.22447 8 7.21777C8 7.21107 8 7.20439 8 7.19771C8 7.19104 8 7.18438 8 7.17773C8 7.17109 8 7.16445 8 7.15783C8 7.15121 8 7.1446 8 7.138C8 7.1314 8 7.12482 8 7.11825C8 7.11167 8 7.10511 8 7.09857C8 7.09202 8 7.08549 8 7.07897C8 7.07245 8 7.06594 8 7.05945C8 7.05295 8 7.04647 8 7.04001C8 7.03354 8 7.02708 8 7.02064C8 7.0142 8 7.00777 8 7.00136C8 6.99494 8 6.98854 8 6.98215C8 6.97576 8 6.96939 8 6.96303C8 6.95667 8 6.95032 8 6.94399C8 6.93765 8 6.93133 8 6.92502C8 6.91872 8 6.91242 8 6.90615C8 6.89987 8 6.8936 8 6.88735C8 6.8811 8 6.87486 8 6.86864C8 6.86241 8 6.8562 8 6.85001C8 6.84381 8 6.83763 8 6.83146C8 6.82529 8 6.81914 8 6.813C8 6.80686 8 6.80074 8 6.79463C8 6.78852 8 6.78242 8 6.77634C8 6.77026 8 6.76419 8 6.75814C8 6.75208 8 6.74605 8 6.74002C8 6.734 8 6.72799 8 6.722C8 6.716 8 6.71002 8 6.70406C8 6.69809 8 6.69214 8 6.68621C8 6.68027 8 6.67435 8 6.66845C8 6.66254 8 6.65665 8 6.65077C8 6.6449 8 6.63904 8 6.63319C8 6.62735 8 6.62152 8 6.6157C8 6.60989 8 6.60409 8 6.59831C8 6.59252 8 6.58675 8 6.581C8 6.57525 8 6.56951 8 6.56378C8 6.55806 8 6.55236 8 6.54666C8 6.54097 8 6.5353 8 6.52964C8 6.52398 8 6.51833 8 6.5127C8 6.50707 8 6.50146 8 6.49586C8 6.49027 8 6.48469 8 6.47912C8 6.47356 8 6.46801 8 6.46247C8 6.45694 8 6.45142 8 6.44592C8 6.44042 8 6.43494 8 6.42947C8 6.424 8 6.41855 8 6.41311C8 6.40768 8 6.40226 8 6.39685C8 6.39145 8 6.38606 8 6.38069C8 6.37532 8 6.36997 8 6.36463C8 6.3593 8 6.35397 8 6.34867C8 6.34337 8 6.33808 8 6.33281C8 6.32754 8 6.32229 8 6.31705C8 6.31181 8 6.30659 8 6.30139C8 6.29619 8 6.291 8 6.28583C8 6.28066 8 6.27551 8 6.27038C8 6.26524 8 6.26012 8 6.25502C8 6.24992 8 6.24484 8 6.23977C8 6.23471 8 6.22966 8 6.22463C8 6.2196 8 6.21458 8 6.20959C8 6.20459 8 6.19961 8 6.19465C8 6.18969 8 6.18475 8 6.17982C8 6.1749 8 6.16999 8 6.1651C8 6.16021 8 6.15534 8 6.15048C8 6.14563 8 6.14079 8 6.13597C8 6.13115 8 6.12635 8 6.12157C8 6.11679 8 6.11202 8 6.10728C8 6.10253 8 6.0978 8 6.09309C8 6.08838 8 6.08369 8 6.07901C8 6.07434 8 6.06969 8 6.06505C8 6.06041 8 6.05579 8 6.05119C8 6.04659 8 6.04201 8 6.03745C8 6.03289 8 6.02834 8 6.02382C8 6.01929 8 6.01478 8 6.0103C8 6.00581 8 6.00134 8 5.99689H6C6 6.00134 6 6.00581 6 6.0103C6 6.01478 6 6.01929 6 6.02382C6 6.02834 6 6.03289 6 6.03745C6 6.04201 6 6.04659 6 6.05119C6 6.05579 6 6.06041 6 6.06505C6 6.06969 6 6.07434 6 6.07901C6 6.08369 6 6.08838 6 6.09309C6 6.0978 6 6.10253 6 6.10728C6 6.11202 6 6.11679 6 6.12157C6 6.12635 6 6.13115 6 6.13597C6 6.14079 6 6.14563 6 6.15048C6 6.15534 6 6.16021 6 6.1651C6 6.16999 6 6.1749 6 6.17982C6 6.18475 6 6.18969 6 6.19465C6 6.19961 6 6.20459 6 6.20959C6 6.21458 6 6.2196 6 6.22463C6 6.22966 6 6.23471 6 6.23977C6 6.24484 6 6.24992 6 6.25502C6 6.26012 6 6.26524 6 6.27038C6 6.27551 6 6.28066 6 6.28583C6 6.291 6 6.29619 6 6.30139C6 6.30659 6 6.31181 6 6.31705C6 6.32229 6 6.32754 6 6.33281C6 6.33808 6 6.34337 6 6.34867C6 6.35397 6 6.3593 6 6.36463C6 6.36997 6 6.37532 6 6.38069C6 6.38606 6 6.39145 6 6.39685C6 6.40226 6 6.40768 6 6.41311C6 6.41855 6 6.424 6 6.42947C6 6.43494 6 6.44042 6 6.44592C6 6.45142 6 6.45694 6 6.46247C6 6.46801 6 6.47356 6 6.47912C6 6.48469 6 6.49027 6 6.49586C6 6.50146 6 6.50707 6 6.5127C6 6.51833 6 6.52398 6 6.52964C6 6.5353 6 6.54097 6 6.54666C6 6.55236 6 6.55806 6 6.56378C6 6.56951 6 6.57525 6 6.581C6 6.58675 6 6.59252 6 6.59831C6 6.60409 6 6.60989 6 6.6157C6 6.62152 6 6.62735 6 6.63319C6 6.63904 6 6.6449 6 6.65077C6 6.65665 6 6.66254 6 6.66845C6 6.67435 6 6.68027 6 6.68621C6 6.69214 6 6.69809 6 6.70406C6 6.71002 6 6.716 6 6.722C6 6.72799 6 6.734 6 6.74002C6 6.74605 6 6.75208 6 6.75814C6 6.76419 6 6.77026 6 6.77634C6 6.78242 6 6.78852 6 6.79463C6 6.80074 6 6.80686 6 6.813C6 6.81914 6 6.82529 6 6.83146C6 6.83763 6 6.84381 6 6.85001C6 6.8562 6 6.86241 6 6.86864C6 6.87486 6 6.8811 6 6.88735C6 6.8936 6 6.89987 6 6.90615C6 6.91242 6 6.91872 6 6.92502C6 6.93133 6 6.93765 6 6.94399C6 6.95032 6 6.95667 6 6.96303C6 6.96939 6 6.97576 6 6.98215C6 6.98854 6 6.99494 6 7.00136C6 7.00777 6 7.0142 6 7.02064C6 7.02708 6 7.03354 6 7.04001C6 7.04647 6 7.05295 6 7.05945C6 7.06594 6 7.07245 6 7.07897C6 7.08549 6 7.09202 6 7.09857C6 7.10511 6 7.11167 6 7.11825C6 7.12482 6 7.1314 6 7.138C6 7.1446 6 7.15121 6 7.15783C6 7.16445 6 7.17109 6 7.17773C6 7.18438 6 7.19104 6 7.19771C6 7.20439 6 7.21107 6 7.21777C6 7.22447 6 7.23117 6 7.2379C6 7.24462 6 7.25135 6 7.2581C6 7.26485 6 7.2716 6 7.27837C6 7.28514 6 7.29193 6 7.29872C6 7.30552 6 7.31232 6 7.31914C6 7.32596 6 7.33279 6 7.33963C6 7.34647 6 7.35333 6 7.36019C6 7.36706 6 7.37394 6 7.38083C6 7.38771 6 7.39461 6 7.40153C6 7.40844 6 7.41536 6 7.4223C6 7.42923 6 7.43618 6 7.44314C6 7.45009 6 7.45706 6 7.46404C6 7.47102 6 7.47802 6 7.48502C6 7.49202 6 7.49904 6 7.50606C6 7.51309 6 7.52012 6 7.52717C6 7.53422 6 7.54127 6 7.54834C6 7.55541 6 7.56249 6 7.56958C6 7.57667 6 7.58377 6 7.59089C6 7.598 6 7.60512 6 7.61225C6 7.61939 6 7.62653 6 7.63369C6 7.64084 6 7.64801 6 7.65518C6 7.66236 6 7.66954 6 7.67674C6 7.68394 6 7.69114 6 7.69836C6 7.70558 6 7.7128 6 7.72004C6 7.72728 6 7.73452 6 7.74178C6 7.74904 6 7.75631 6 7.76359C6 7.77086 6 7.77815 6 7.78545C6 7.79275 6 7.80005 6 7.80737C6 7.81469 6 7.82201 6 7.82935C6 7.83669 6 7.84403 6 7.85139C6 7.85875 6 7.86611 6 7.87349C6 7.88086 6 7.88825 6 7.89564C6 7.90303 6 7.91044 6 7.91785C6 7.92526 6 7.93269 6 7.94012C6 7.94755 6 7.95499 6 7.96244C6 7.96989 6 7.97735 6 7.98482C6 7.99228 6 7.99976 6 8.00725C6 8.01473 6 8.02223 6 8.02973C6 8.03724 6 8.04475 6 8.05227C6 8.05979 6 8.06732 6 8.07486C6 8.0824 6 8.08995 6 8.09751C6 8.10506 6 8.11263 6 8.1202C6 8.12778 6 8.13536 6 8.14295C6 8.15054 6 8.15814 6 8.16575C6 8.17336 6 8.18097 6 8.1886C6 8.19622 6 8.20385 6 8.21149C6 8.21913 6 8.22678 6 8.23444C6 8.2421 6 8.24976 6 8.25743C6 8.26511 6 8.27279 6 8.28048C6 8.28816 6 8.29586 6 8.30357C6 8.31127 6 8.31898 6 8.3267C6 8.33442 6 8.34215 6 8.34988C6 8.35762 6 8.36536 6 8.37311C6 8.38086 6 8.38862 6 8.39639C6 8.40415 6 8.41193 6 8.41971C6 8.42749 6 8.43527 6 8.44307C6 8.45086 6 8.45867 6 8.46648C6 8.47428 6 8.4821 6 8.48992C6 8.49775 6 8.50558 6 8.51342C6 8.52125 6 8.5291 6 8.53695C6 8.5448 6 8.55266 6 8.56052C6 8.56839 6 8.57626 6 8.58414C6 8.59202 6 8.5999 6 8.6078C6 8.61569 6 8.62359 6 8.63149C6 8.6394 6 8.64731 6 8.65523C6 8.66315 6 8.67107 6 8.679C6 8.68693 6 8.69487 6 8.70281C6 8.71076 6 8.71871 6 8.72666C6 8.73462 6 8.74258 6 8.75055C6 8.75852 6 8.76649 6 8.77447C6 8.78245 6 8.79044 6 8.79843C6 8.80642 6 8.81442 6 8.82243C6 8.83043 6 8.83844 6 8.84646C6 8.85447 6 8.86249 6 8.87052C6 8.87855 6 8.88658 6 8.89462C6 8.90265 6 8.9107 6 8.91875C6 8.9268 6 8.93485 6 8.94291C6 8.95097 6 8.95903 6 8.9671C6 8.97518 6 8.98325 6 8.99133C6 8.99941 6 9.0075 6 9.01559C6 9.02368 6 9.03178 6 9.03988C6 9.04798 6 9.05609 6 9.0642C6 9.07231 6 9.08042 6 9.08854C6 9.09667 6 9.10479 6 9.11292C6 9.12105 6 9.12919 6 9.13733C6 9.14547 6 9.15361 6 9.16176C6 9.16991 6 9.17806 6 9.18622C6 9.19438 6 9.20254 6 9.21071C6 9.21887 6 9.22704 6 9.23522C6 9.24339 6 9.25157 6 9.25976C6 9.26794 6 9.27613 6 9.28432C6 9.29251 6 9.30071 6 9.30891C6 9.31711 6 9.32531 6 9.33352C6 9.34173 6 9.34994 6 9.35816C6 9.36637 6 9.37459 6 9.38282C6 9.39104 6 9.39927 6 9.4075C6 9.41573 6 9.42396 6 9.4322C6 9.44044 6 9.44868 6 9.45692C6 9.46517 6 9.47342 6 9.48167C6 9.48992 6 9.49817 6 9.50643C6 9.51469 6 9.52295 6 9.53122C6 9.53948 6 9.54775 6 9.55602C6 9.56429 6 9.57257 6 9.58084C6 9.58912 6 9.5974 6 9.60568C6 9.61397 6 9.62225 6 9.63054C6 9.63883 6 9.64712 6 9.65541C6 9.66371 6 9.67201 6 9.68031C6 9.6886 6 9.69691 6 9.70521C6 9.71352 6 9.72182 6 9.73013C6 9.73844 6 9.74676 6 9.75507C6 9.76338 6 9.7717 6 9.78002C6 9.78834 6 9.79666 6 9.80498C6 9.81331 6 9.82163 6 9.82996C6 9.83829 6 9.84662 6 9.85495C6 9.86328 6 9.87162 6 9.87995C6 9.88829 6 9.89663 6 9.90497C6 9.91331 6 9.92165 6 9.92999C6 9.93834 6 9.94668 6 9.95503C6 9.96337 6 9.97172 6 9.98007C6 9.98842 6 9.99677 6 10.0051C6 10.0135 6 10.0218 6 10.0302C6 10.0385 6 10.0469 6 10.0553C6 10.0636 6 10.072 6 10.0803C6 10.0887 6 10.0971 6 10.1054C6 10.1138 6 10.1221 6 10.1305C6 10.1389 6 10.1472 6 10.1556C6 10.164 6 10.1723 6 10.1807C6 10.1891 6 10.1975 6 10.2058C6 10.2142 6 10.2226 6 10.2309C6 10.2393 6 10.2477 6 10.2561C6 10.2644 6 10.2728 6 10.2812C6 10.2895 6 10.2979 6 10.3063C6 10.3147 6 10.323 6 10.3314C6 10.3398 6 10.3482 6 10.3565C6 10.3649 6 10.3733 6 10.3817C6 10.3901 6 10.3984 6 10.4068C6 10.4152 6 10.4236 6 10.4319C6 10.4403 6 10.4487 6 10.4571C6 10.4654 6 10.4738 6 10.4822C6 10.4906 6 10.4989 6 10.5073C6 10.5157 6 10.5241 6 10.5324C6 10.5408 6 10.5492 6 10.5576C6 10.5659 6 10.5743 6 10.5827C6 10.591 6 10.5994 6 10.6078C6 10.6162 6 10.6245 6 10.6329C6 10.6413 6 10.6496 6 10.658C6 10.6664 6 10.6747 6 10.6831C6 10.6915 6 10.6998 6 10.7082C6 10.7166 6 10.7249 6 10.7333C6 10.7416 6 10.75 6 10.7584C6 10.7667 6 10.7751 6 10.7834C6 10.7918 6 10.8001 6 10.8085C6 10.8169 6 10.8252 6 10.8336C6 10.8419 6 10.8503 6 10.8586C6 10.8669 6 10.8753 6 10.8836C6 10.892 6 10.9003 6 10.9087C6 10.917 6 10.9253 6 10.9337C6 10.942 6 10.9503 6 10.9587C6 10.967 6 10.9753 6 10.9837C6 10.992 6 11.0003 6 11.0086C6 11.017 6 11.0253 6 11.0336C6 11.0419 6 11.0503 6 11.0586C6 11.0669 6 11.0752 6 11.0835C6 11.0918 6 11.1001 6 11.1084C6 11.1167 6 11.125 6 11.1333C6 11.1416 6 11.1499 6 11.1582C6 11.1665 6 11.1748 6 11.1831C6 11.1914 6 11.1997 6 11.208C6 11.2163 6 11.2245 6 11.2328C6 11.2411 6 11.2494 6 11.2576C6 11.2659 6 11.2742 6 11.2824C6 11.2907 6 11.299 6 11.3072C6 11.3155 6 11.3237 6 11.332C6 11.3402 6 11.3485 6 11.3567C6 11.365 6 11.3732 6 11.3815C6 11.3897 6 11.3979 6 11.4062C6 11.4144 6 11.4226 6 11.4309C6 11.4391 6 11.4473 6 11.4555C6 11.4637 6 11.472 6 11.4802C6 11.4884 6 11.4966 6 11.5048C6 11.513 6 11.5212 6 11.5294C6 11.5376 6 11.5458 6 11.5539C6 11.5621 6 11.5703 6 11.5785C6 11.5867 6 11.5948 6 11.603C6 11.6112 6 11.6193 6 11.6275C6 11.6356 6 11.6438 6 11.6519C6 11.6601 6 11.6682 6 11.6764C6 11.6845 6 11.6927 6 11.7008C6 11.7089 6 11.7171 6 11.7252C6 11.7333 6 11.7414 6 11.7495C6 11.7576 6 11.7657 6 11.7738C6 11.782 6 11.7901 6 11.7981C6 11.8062 6 11.8143 6 11.8224C6 11.8305 6 11.8386 6 11.8466C6 11.8547 6 11.8628 6 11.8708C6 11.8789 6 11.887 6 11.895C6 11.9031 6 11.9111 6 11.9191C6 11.9272 6 11.9352 6 11.9432C6 11.9513 6 11.9593 6 11.9673C6 11.9753 6 11.9833 6 11.9913C6 11.9993 6 12.0073 6 12.0153C6 12.0233 6 12.0313 6 12.0393C6 12.0473 6 12.0553 6 12.0632C6 12.0712 6 12.0792 6 12.0871C6 12.0951 6 12.103 6 12.111C6 12.1189 6 12.1269 6 12.1348C6 12.1427 6 12.1507 6 12.1586C6 12.1665 6 12.1744 6 12.1823C6 12.1902 6 12.1981 6 12.206C6 12.2139 6 12.2218 6 12.2297C6 12.2376 6 12.2454 6 12.2533C6 12.2612 6 12.269 6 12.2769C6 12.2847 6 12.2926 6 12.3004C6 12.3083 6 12.3161 6 12.3239C6 12.3317 6 12.3396 6 12.3474C6 12.3552 6 12.363 6 12.3708C6 12.3786 6 12.3864 6 12.3942C6 12.4019 6 12.4097 6 12.4175C6 12.4253 6 12.433 6 12.4408C6 12.4485 6 12.4563 6 12.464C6 12.4717 6 12.4795 6 12.4872C6 12.4949 6 12.5026 6 12.5103C6 12.518 6 12.5257 6 12.5334C6 12.5411 6 12.5488 6 12.5565C6 12.5642 6 12.5718 6 12.5795C6 12.5871 6 12.5948 6 12.6024C6 12.6101 6 12.6177 6 12.6253C6 12.633 6 12.6406 6 12.6482C6 12.6558 6 12.6634 6 12.671C6 12.6786 6 12.6862 6 12.6937C6 12.7013 6 12.7089 6 12.7164C6 12.724 6 12.7316 6 12.7391C6 12.7466 6 12.7542 6 12.7617C6 12.7692 6 12.7767 6 12.7842C6 12.7918 6 12.7993 6 12.8067C6 12.8142 6 12.8217 6 12.8292C6 12.8366 6 12.8441 6 12.8516C6 12.859 6 12.8665 6 12.8739C6 12.8813 6 12.8888 6 12.8962C6 12.9036 6 12.911 6 12.9184C6 12.9258 6 12.9332 6 12.9405C6 12.9479 6 12.9553 6 12.9627C6 12.97 6 12.9774 6 12.9847C6 12.992 6 12.9994 6 13.0067C6 13.014 6 13.0213 6 13.0286C6 13.0359 6 13.0432 6 13.0505C6 13.0578 6 13.065 6 13.0723C6 13.0796 6 13.0868 6 13.0941C6 13.1013 6 13.1085 6 13.1157C6 13.123 6 13.1302 6 13.1374C6 13.1446 6 13.1518 6 13.1589C6 13.1661 6 13.1733 6 13.1804C6 13.1876 6 13.1947 6 13.2019C6 13.209 6 13.2161 6 13.2233C6 13.2304 6 13.2375 6 13.2446C6 13.2517 6 13.2587 6 13.2658C6 13.2729 6 13.28 6 13.287C6 13.2941 6 13.3011 6 13.3081C6 13.3151 6 13.3222 6 13.3292C6 13.3362 6 13.3432 6 13.3502C6 13.3571 6 13.3641 6 13.3711C6 13.378 6 13.385 6 13.3919C6 13.3989 6 13.4058 6 13.4127C6 13.4196 6 13.4265 6 13.4334C6 13.4403 6 13.4472 6 13.4541C6 13.4609 6 13.4678 6 13.4746C6 13.4815 6 13.4883 6 13.4951C6 13.5019 6 13.5088 6 13.5156C6 13.5224 6 13.5291 6 13.5359C6 13.5427 6 13.5495 6 13.5562C6 13.563 6 13.5697 6 13.5764C6 13.5831 6 13.5899 6 13.5966C6 13.6033 6 13.6099 6 13.6166C6 13.6233 6 13.63 6 13.6366C6 13.6433 6 13.6499 6 13.6565C6 13.6631 6 13.6698 6 13.6764C6 13.683 6 13.6896 6 13.6961C6 13.7027 6 13.7093 6 13.7158C6 13.7224 6 13.7289 6 13.7354C6 13.7419 6 13.7485 6 13.755C6 13.7615 6 13.7679 6 13.7744C6 13.7809 6 13.7873 6 13.7938C6 13.8002 6 13.8067 6 13.8131C6 13.8195 6 13.8259 6 13.8323C6 13.8387 6 13.8451 6 13.8514C6 13.8578 6 13.8641 6 13.8705C6 13.8768 6 13.8831 6 13.8895C6 13.8958 6 13.9021 6 13.9083C6 13.9146 6 13.9209 6 13.9272C6 13.9334 6 13.9397 6 13.9459C6 13.9521 6 13.9583 6 13.9645C6 13.9707 6 13.9769 6 13.9831C6 13.9893 6 13.9954 6 14.0016C6 14.0077 6 14.0138 6 14.0199C6 14.0261 6 14.0322 6 14.0382C6 14.0443 6 14.0504 6 14.0565C6 14.0625 6 14.0686 6 14.0746C6 14.0806 6 14.0866 6 14.0926C6 14.0986 6 14.1046 6 14.1106C6 14.1165 6 14.1225 6 14.1284C6 14.1344 6 14.1403 6 14.1462C6 14.1521 6 14.158 6 14.1639C6 14.1698 6 14.1756 6 14.1815C6 14.1873 6 14.1932 6 14.199C6 14.2048 6 14.2106 6 14.2164C6 14.2222 6 14.228 6 14.2337C6 14.2395 6 14.2452 6 14.2509C6 14.2567 6 14.2624 6 14.2681C6 14.2738 6 14.2795 6 14.2851C6 14.2908 6 14.2964 6 14.3021C6 14.3077 6 14.3133 6 14.3189C6 14.3245 6 14.3301 6 14.3357C6 14.3412 6 14.3468 6 14.3523C6 14.3579 6 14.3634 6 14.3689C6 14.3744 6 14.3799 6 14.3854C6 14.3908 6 14.3963 6 14.4017C6 14.4072 6 14.4126 6 14.418C6 14.4234 6 14.4288 6 14.4342C6 14.4396 6 14.4449 6 14.4503C6 14.4556 6 14.4609 6 14.4662C6 14.4715 6 14.4768 6 14.4821C6 14.4874 6 14.4926 6 14.4979C6 14.5031 6 14.5084 6 14.5136C6 14.5188 6 14.524 6 14.5291C6 14.5343 6 14.5395 6 14.5446C6 14.5497 6 14.5549 6 14.56C6 14.5651 6 14.5702 6 14.5752C6 14.5803 6 14.5854 6 14.5904C6 14.5954 6 14.6004 6 14.6054C6 14.6104 6 14.6154 6 14.6204C6 14.6254 6 14.6303 6 14.6352C6 14.6402 6 14.6451 6 14.65C6 14.6549 6 14.6598 6 14.6646C6 14.6695 6 14.6743 6 14.6791C6 14.684 6 14.6888 6 14.6936C6 14.6983 6 14.7031 6 14.7079C6 14.7126 6 14.7174 6 14.7221C6 14.7268 6 14.7315 6 14.7362C6 14.7408 6 14.7455 6 14.7501C6 14.7548 6 14.7594 6 14.764C6 14.7686 6 14.7732 6 14.7778C6 14.7823 6 14.7869 6 14.7914C6 14.7959 6 14.8005 6 14.805C6 14.8094 6 14.8139 6 14.8184C6 14.8228 6 14.8273 6 14.8317C6 14.8361 6 14.8405 6 14.8449C6 14.8493 6 14.8536 6 14.858C6 14.8623 6 14.8666 6 14.8709C6 14.8752 6 14.8795 6 14.8838C6 14.8881 6 14.8923 6 14.8965C6 14.9008 6 14.905 6 14.9091C6 14.9133 6 14.9175 6 14.9217C6 14.9258 6 14.9299 6 14.934C6 14.9381 6 14.9422 6 14.9463C6 14.9504 6 14.9544 6 14.9585C6 14.9625 6 14.9665 6 14.9705C6 14.9745 6 14.9784 6 14.9824C6 14.9863 6 14.9903 6 14.9942C6 14.9981 6 15.002 6 15.0059C6 15.0097 6 15.0136 6 15.0174C6 15.0212 6 15.025 6 15.0288C6 15.0326 6 15.0364 6 15.0401C6 15.0439 6 15.0476 6 15.0513C6 15.055 6 15.0587 6 15.0624C6 15.066 6 15.0697 6 15.0733C6 15.0769 6 15.0805 6 15.0841C6 15.0877 6 15.0913 6 15.0948C6 15.0983 6 15.1019 6 15.1054C6 15.1089 6 15.1123 6 15.1158C6 15.1192 6 15.1227 6 15.1261C6 15.1295 6 15.1329 6 15.1363C6 15.1396 6 15.143 6 15.1463C6 15.1497 6 15.153 6 15.1562C6 15.1595 6 15.1628 6 15.166C6 15.1693 6 15.1725 6 15.1757C6 15.1789 6 15.1821 6 15.1852C6 15.1884 6 15.1915 6 15.1946C6 15.1978 6 15.2008 6 15.2039C6 15.207 6 15.21 6 15.2131C6 15.2161 6 15.2191 6 15.2221C6 15.225 6 15.228 6 15.2309C6 15.2339 6 15.2368 6 15.2397C6 15.2426 6 15.2454 6 15.2483C6 15.2511 6 15.254 6 15.2568C6 15.2596 6 15.2623 6 15.2651C6 15.2679 6 15.2706 6 15.2733C6 15.276 6 15.2787 6 15.2814C6 15.284 6 15.2867 6 15.2893C6 15.2919 6 15.2945 6 15.2971C6 15.2997 6 15.3022 6 15.3048C6 15.3073 6 15.3098 6 15.3123C6 15.3148 6 15.3172 6 15.3197C6 15.3221 6 15.3245 6 15.3269C6 15.3293 6 15.3317 6 15.334C6 15.3363 6 15.3387 6 15.341C6 15.3433 6 15.3455 6 15.3478C6 15.35 6 15.3523 6 15.3545C6 15.3567 6 15.3588 6 15.361C6 15.3631 6 15.3653 6 15.3674C6 15.3695 6 15.3716 6 15.3736C6 15.3757 6 15.3777 6 15.3797C6 15.3818 6 15.3837 6 15.3857C6 15.3877 6 15.3896 6 15.3915C6 15.3934 6 15.3953 6 15.3972C6 15.3991 6 15.4009 6 15.4027C6 15.4045 6 15.4063 6 15.4081C6 15.4099 6 15.4116 6 15.4133C6 15.4151 6 15.4168 6 15.4184C6 15.4201 6 15.4217 6 15.4234C6 15.425 6 15.4266 6 15.4282C6 15.4297 6 15.4313 6 15.4328C6 15.4343 6 15.4358 6 15.4373C6 15.4388 6 15.4402 6 15.4416C6 15.4431 6 15.4445 6 15.4458C6 15.4472 6 15.4485 6 15.4499C6 15.4512 6 15.4525 6 15.4538C6 15.455 6 15.4563 6 15.4575C6 15.4587 6 15.4599 6 15.4611C6 15.4622 6 15.4634 6 15.4645C6 15.4656 6 15.4667 6 15.4678C6 15.4688 6 15.4699 6 15.4709C6 15.4719 6 15.4729 6 15.4739C6 15.4748 6 15.4758 6 15.4767C6 15.4776 6 15.4785 6 15.4793C6 15.4802 6 15.481 6 15.4818C6 15.4826 6 15.4834 6 15.4842C6 15.4849 6 15.4856 6 15.4863C6 15.4871 6 15.4877 6 15.4884C6 15.489 6 15.4896 6 15.4902C6 15.4908 6 15.4914 6 15.4919C6 15.4925 6 15.493 6 15.4935C6 15.494 6 15.4944 6 15.4949C6 15.4953 6 15.4957 6 15.4961C6 15.4965 6 15.4968 6 15.4972C6 15.4969 6 15.4975 6 15.4972C6 15.4974 6 15.4986 6 15.4988C6 15.4989 6 15.5 6 15.5C6 15.5001 6 15.5001 7 15.5001ZM8 5.99689C8 5.73236 8.10499 5.47932 8.2921 5.29284L6.88025 3.87626C6.31605 4.43857 6 5.20158 6 5.99689H8ZM8.29283 5.2921C8.47928 5.10589 8.73342 5.00049 9.00035 5.00049V3.00049C8.20606 3.00049 7.44281 3.31441 6.87951 3.87699L8.29283 5.2921ZM9.00035 5.00049C9.00654 5.00049 9.01275 5.00049 9.01896 5.00049C9.02517 5.00049 9.0314 5.00049 9.03763 5.00049C9.04386 5.00049 9.05011 5.00049 9.05636 5.00049C9.06261 5.00049 9.06887 5.00049 9.07515 5.00049C9.08142 5.00049 9.0877 5.00049 9.09399 5.00049C9.10028 5.00049 9.10659 5.00049 9.1129 5.00049C9.11921 5.00049 9.12553 5.00049 9.13186 5.00049C9.13819 5.00049 9.14453 5.00049 9.15088 5.00049C9.15723 5.00049 9.16359 5.00049 9.16995 5.00049C9.17632 5.00049 9.1827 5.00049 9.18909 5.00049C9.19547 5.00049 9.20187 5.00049 9.20827 5.00049C9.21468 5.00049 9.22109 5.00049 9.22752 5.00049C9.23394 5.00049 9.24037 5.00049 9.24682 5.00049C9.25326 5.00049 9.25971 5.00049 9.26617 5.00049C9.27263 5.00049 9.2791 5.00049 9.28558 5.00049C9.29206 5.00049 9.29855 5.00049 9.30504 5.00049C9.31154 5.00049 9.31805 5.00049 9.32456 5.00049C9.33107 5.00049 9.3376 5.00049 9.34413 5.00049C9.35066 5.00049 9.3572 5.00049 9.36375 5.00049C9.3703 5.00049 9.37686 5.00049 9.38343 5.00049C9.39 5.00049 9.39657 5.00049 9.40316 5.00049C9.40974 5.00049 9.41634 5.00049 9.42294 5.00049C9.42954 5.00049 9.43615 5.00049 9.44277 5.00049C9.44939 5.00049 9.45602 5.00049 9.46265 5.00049C9.46929 5.00049 9.47593 5.00049 9.48259 5.00049C9.48924 5.00049 9.4959 5.00049 9.50257 5.00049C9.50924 5.00049 9.51592 5.00049 9.52261 5.00049C9.52929 5.00049 9.53599 5.00049 9.54269 5.00049C9.54939 5.00049 9.5561 5.00049 9.56282 5.00049C9.56954 5.00049 9.57627 5.00049 9.583 5.00049C9.58974 5.00049 9.59648 5.00049 9.60324 5.00049C9.60999 5.00049 9.61675 5.00049 9.62351 5.00049C9.63028 5.00049 9.63706 5.00049 9.64384 5.00049C9.65062 5.00049 9.65742 5.00049 9.66422 5.00049C9.67101 5.00049 9.67782 5.00049 9.68464 5.00049C9.69145 5.00049 9.69827 5.00049 9.7051 5.00049C9.71194 5.00049 9.71877 5.00049 9.72562 5.00049C9.73246 5.00049 9.73932 5.00049 9.74618 5.00049C9.75304 5.00049 9.75991 5.00049 9.76678 5.00049C9.77366 5.00049 9.78054 5.00049 9.78744 5.00049C9.79433 5.00049 9.80123 5.00049 9.80813 5.00049C9.81504 5.00049 9.82195 5.00049 9.82887 5.00049C9.83579 5.00049 9.84272 5.00049 9.84966 5.00049C9.85659 5.00049 9.86353 5.00049 9.87048 5.00049C9.87743 5.00049 9.88439 5.00049 9.89136 5.00049C9.89832 5.00049 9.90529 5.00049 9.91227 5.00049C9.91925 5.00049 9.92623 5.00049 9.93323 5.00049C9.94022 5.00049 9.94722 5.00049 9.95422 5.00049C9.96123 5.00049 9.96825 5.00049 9.97527 5.00049C9.98229 5.00049 9.98931 5.00049 9.99635 5.00049C10.0034 5.00049 10.0104 5.00049 10.0175 5.00049C10.0245 5.00049 10.0316 5.00049 10.0386 5.00049C10.0457 5.00049 10.0528 5.00049 10.0598 5.00049C10.0669 5.00049 10.074 5.00049 10.0811 5.00049C10.0882 5.00049 10.0953 5.00049 10.1024 5.00049C10.1095 5.00049 10.1166 5.00049 10.1237 5.00049C10.1308 5.00049 10.1379 5.00049 10.1451 5.00049C10.1522 5.00049 10.1593 5.00049 10.1665 5.00049C10.1736 5.00049 10.1807 5.00049 10.1879 5.00049C10.195 5.00049 10.2022 5.00049 10.2094 5.00049C10.2165 5.00049 10.2237 5.00049 10.2309 5.00049C10.2381 5.00049 10.2452 5.00049 10.2524 5.00049C10.2596 5.00049 10.2668 5.00049 10.274 5.00049C10.2812 5.00049 10.2884 5.00049 10.2956 5.00049C10.3028 5.00049 10.3101 5.00049 10.3173 5.00049C10.3245 5.00049 10.3318 5.00049 10.339 5.00049C10.3462 5.00049 10.3535 5.00049 10.3607 5.00049C10.368 5.00049 10.3752 5.00049 10.3825 5.00049C10.3897 5.00049 10.397 5.00049 10.4043 5.00049C10.4116 5.00049 10.4188 5.00049 10.4261 5.00049C10.4334 5.00049 10.4407 5.00049 10.448 5.00049C10.4553 5.00049 10.4626 5.00049 10.4699 5.00049C10.4772 5.00049 10.4845 5.00049 10.4918 5.00049C10.4991 5.00049 10.5064 5.00049 10.5138 5.00049C10.5211 5.00049 10.5284 5.00049 10.5358 5.00049C10.5431 5.00049 10.5504 5.00049 10.5578 5.00049C10.5651 5.00049 10.5725 5.00049 10.5799 5.00049C10.5872 5.00049 10.5946 5.00049 10.6019 5.00049C10.6093 5.00049 10.6167 5.00049 10.6241 5.00049C10.6314 5.00049 10.6388 5.00049 10.6462 5.00049C10.6536 5.00049 10.661 5.00049 10.6684 5.00049C10.6758 5.00049 10.6832 5.00049 10.6906 5.00049C10.698 5.00049 10.7054 5.00049 10.7128 5.00049C10.7203 5.00049 10.7277 5.00049 10.7351 5.00049C10.7425 5.00049 10.75 5.00049 10.7574 5.00049C10.7648 5.00049 10.7723 5.00049 10.7797 5.00049C10.7872 5.00049 10.7946 5.00049 10.8021 5.00049C10.8095 5.00049 10.817 5.00049 10.8245 5.00049C10.8319 5.00049 10.8394 5.00049 10.8469 5.00049C10.8543 5.00049 10.8618 5.00049 10.8693 5.00049C10.8768 5.00049 10.8843 5.00049 10.8917 5.00049C10.8992 5.00049 10.9067 5.00049 10.9142 5.00049C10.9217 5.00049 10.9292 5.00049 10.9367 5.00049C10.9442 5.00049 10.9518 5.00049 10.9593 5.00049C10.9668 5.00049 10.9743 5.00049 10.9818 5.00049C10.9894 5.00049 10.9969 5.00049 11.0044 5.00049C11.0119 5.00049 11.0195 5.00049 11.027 5.00049C11.0346 5.00049 11.0421 5.00049 11.0496 5.00049C11.0572 5.00049 11.0647 5.00049 11.0723 5.00049C11.0799 5.00049 11.0874 5.00049 11.095 5.00049C11.1025 5.00049 11.1101 5.00049 11.1177 5.00049C11.1252 5.00049 11.1328 5.00049 11.1404 5.00049C11.148 5.00049 11.1555 5.00049 11.1631 5.00049C11.1707 5.00049 11.1783 5.00049 11.1859 5.00049C11.1935 5.00049 11.2011 5.00049 11.2087 5.00049C11.2163 5.00049 11.2239 5.00049 11.2315 5.00049C11.2391 5.00049 11.2467 5.00049 11.2543 5.00049C11.2619 5.00049 11.2695 5.00049 11.2771 5.00049C11.2848 5.00049 11.2924 5.00049 11.3 5.00049C11.3076 5.00049 11.3153 5.00049 11.3229 5.00049C11.3305 5.00049 11.3381 5.00049 11.3458 5.00049C11.3534 5.00049 11.3611 5.00049 11.3687 5.00049C11.3763 5.00049 11.384 5.00049 11.3916 5.00049C11.3993 5.00049 11.4069 5.00049 11.4146 5.00049C11.4222 5.00049 11.4299 5.00049 11.4376 5.00049C11.4452 5.00049 11.4529 5.00049 11.4605 5.00049C11.4682 5.00049 11.4759 5.00049 11.4835 5.00049C11.4912 5.00049 11.4989 5.00049 11.5066 5.00049C11.5142 5.00049 11.5219 5.00049 11.5296 5.00049C11.5373 5.00049 11.545 5.00049 11.5526 5.00049C11.5603 5.00049 11.568 5.00049 11.5757 5.00049C11.5834 5.00049 11.5911 5.00049 11.5988 5.00049C11.6065 5.00049 11.6142 5.00049 11.6219 5.00049C11.6296 5.00049 11.6373 5.00049 11.645 5.00049C11.6527 5.00049 11.6604 5.00049 11.6681 5.00049C11.6758 5.00049 11.6835 5.00049 11.6912 5.00049C11.6989 5.00049 11.7067 5.00049 11.7144 5.00049C11.7221 5.00049 11.7298 5.00049 11.7375 5.00049C11.7453 5.00049 11.753 5.00049 11.7607 5.00049C11.7684 5.00049 11.7762 5.00049 11.7839 5.00049C11.7916 5.00049 11.7993 5.00049 11.8071 5.00049C11.8148 5.00049 11.8225 5.00049 11.8303 5.00049C11.838 5.00049 11.8457 5.00049 11.8535 5.00049C11.8612 5.00049 11.869 5.00049 11.8767 5.00049C11.8845 5.00049 11.8922 5.00049 11.8999 5.00049C11.9077 5.00049 11.9154 5.00049 11.9232 5.00049C11.9309 5.00049 11.9387 5.00049 11.9464 5.00049C11.9542 5.00049 11.9619 5.00049 11.9697 5.00049C11.9774 5.00049 11.9852 5.00049 11.993 5.00049C12.0007 5.00049 12.0085 5.00049 12.0162 5.00049C12.024 5.00049 12.0317 5.00049 12.0395 5.00049C12.0473 5.00049 12.055 5.00049 12.0628 5.00049C12.0706 5.00049 12.0783 5.00049 12.0861 5.00049C12.0939 5.00049 12.1016 5.00049 12.1094 5.00049C12.1172 5.00049 12.1249 5.00049 12.1327 5.00049C12.1405 5.00049 12.1482 5.00049 12.156 5.00049C12.1638 5.00049 12.1715 5.00049 12.1793 5.00049C12.1871 5.00049 12.1949 5.00049 12.2026 5.00049C12.2104 5.00049 12.2182 5.00049 12.226 5.00049C12.2337 5.00049 12.2415 5.00049 12.2493 5.00049C12.2571 5.00049 12.2648 5.00049 12.2726 5.00049C12.2804 5.00049 12.2882 5.00049 12.296 5.00049C12.3037 5.00049 12.3115 5.00049 12.3193 5.00049C12.3271 5.00049 12.3349 5.00049 12.3426 5.00049C12.3504 5.00049 12.3582 5.00049 12.366 5.00049C12.3738 5.00049 12.3815 5.00049 12.3893 5.00049C12.3971 5.00049 12.4049 5.00049 12.4127 5.00049C12.4205 5.00049 12.4282 5.00049 12.436 5.00049C12.4438 5.00049 12.4516 5.00049 12.4594 5.00049C12.4671 5.00049 12.4749 5.00049 12.4827 5.00049C12.4905 5.00049 12.4983 5.00049 12.5061 5.00049C12.5138 5.00049 12.5216 5.00049 12.5294 5.00049C12.5372 5.00049 12.545 5.00049 12.5527 5.00049C12.5605 5.00049 12.5683 5.00049 12.5761 5.00049C12.5839 5.00049 12.5917 5.00049 12.5994 5.00049C12.6072 5.00049 12.615 5.00049 12.6228 5.00049C12.6306 5.00049 12.6383 5.00049 12.6461 5.00049C12.6539 5.00049 12.6617 5.00049 12.6694 5.00049C12.6772 5.00049 12.685 5.00049 12.6928 5.00049C12.7006 5.00049 12.7083 5.00049 12.7161 5.00049C12.7239 5.00049 12.7317 5.00049 12.7394 5.00049C12.7472 5.00049 12.755 5.00049 12.7627 5.00049C12.7705 5.00049 12.7783 5.00049 12.7861 5.00049C12.7938 5.00049 12.8016 5.00049 12.8094 5.00049C12.8171 5.00049 12.8249 5.00049 12.8327 5.00049C12.8404 5.00049 12.8482 5.00049 12.856 5.00049C12.8637 5.00049 12.8715 5.00049 12.8793 5.00049C12.887 5.00049 12.8948 5.00049 12.9025 5.00049C12.9103 5.00049 12.9181 5.00049 12.9258 5.00049C12.9336 5.00049 12.9413 5.00049 12.9491 5.00049C12.9569 5.00049 12.9646 5.00049 12.9724 5.00049C12.9801 5.00049 12.9879 5.00049 12.9956 5.00049C13.0034 5.00049 13.0111 5.00049 13.0189 5.00049C13.0266 5.00049 13.0344 5.00049 13.0421 5.00049C13.0498 5.00049 13.0576 5.00049 13.0653 5.00049C13.0731 5.00049 13.0808 5.00049 13.0885 5.00049C13.0963 5.00049 13.104 5.00049 13.1118 5.00049C13.1195 5.00049 13.1272 5.00049 13.1349 5.00049C13.1427 5.00049 13.1504 5.00049 13.1581 5.00049C13.1659 5.00049 13.1736 5.00049 13.1813 5.00049C13.189 5.00049 13.1968 5.00049 13.2045 5.00049C13.2122 5.00049 13.2199 5.00049 13.2276 5.00049C13.2353 5.00049 13.2431 5.00049 13.2508 5.00049C13.2585 5.00049 13.2662 5.00049 13.2739 5.00049C13.2816 5.00049 13.2893 5.00049 13.297 5.00049C13.3047 5.00049 13.3124 5.00049 13.3201 5.00049C13.3278 5.00049 13.3355 5.00049 13.3432 5.00049C13.3509 5.00049 13.3586 5.00049 13.3663 5.00049C13.374 5.00049 13.3817 5.00049 13.3893 5.00049C13.397 5.00049 13.4047 5.00049 13.4124 5.00049C13.4201 5.00049 13.4277 5.00049 13.4354 5.00049C13.4431 5.00049 13.4508 5.00049 13.4584 5.00049C13.4661 5.00049 13.4738 5.00049 13.4814 5.00049C13.4891 5.00049 13.4967 5.00049 13.5044 5.00049C13.5121 5.00049 13.5197 5.00049 13.5274 5.00049C13.535 5.00049 13.5427 5.00049 13.5503 5.00049C13.558 5.00049 13.5656 5.00049 13.5732 5.00049C13.5809 5.00049 13.5885 5.00049 13.5961 5.00049C13.6038 5.00049 13.6114 5.00049 13.619 5.00049C13.6267 5.00049 13.6343 5.00049 13.6419 5.00049C13.6495 5.00049 13.6572 5.00049 13.6648 5.00049C13.6724 5.00049 13.68 5.00049 13.6876 5.00049C13.6952 5.00049 13.7028 5.00049 13.7104 5.00049C13.718 5.00049 13.7256 5.00049 13.7332 5.00049C13.7408 5.00049 13.7484 5.00049 13.756 5.00049C13.7636 5.00049 13.7712 5.00049 13.7788 5.00049C13.7863 5.00049 13.7939 5.00049 13.8015 5.00049C13.8091 5.00049 13.8166 5.00049 13.8242 5.00049C13.8318 5.00049 13.8393 5.00049 13.8469 5.00049C13.8544 5.00049 13.862 5.00049 13.8696 5.00049C13.8771 5.00049 13.8847 5.00049 13.8922 5.00049C13.8997 5.00049 13.9073 5.00049 13.9148 5.00049C13.9224 5.00049 13.9299 5.00049 13.9374 5.00049C13.9449 5.00049 13.9525 5.00049 13.96 5.00049C13.9675 5.00049 13.975 5.00049 13.9825 5.00049C13.9901 5.00049 13.9976 5.00049 14.0051 5.00049C14.0126 5.00049 14.0201 5.00049 14.0276 5.00049C14.0351 5.00049 14.0426 5.00049 14.05 5.00049C14.0575 5.00049 14.065 5.00049 14.0725 5.00049C14.08 5.00049 14.0874 5.00049 14.0949 5.00049C14.1024 5.00049 14.1098 5.00049 14.1173 5.00049C14.1248 5.00049 14.1322 5.00049 14.1397 5.00049C14.1471 5.00049 14.1546 5.00049 14.162 5.00049C14.1695 5.00049 14.1769 5.00049 14.1843 5.00049C14.1918 5.00049 14.1992 5.00049 14.2066 5.00049C14.214 5.00049 14.2215 5.00049 14.2289 5.00049C14.2363 5.00049 14.2437 5.00049 14.2511 5.00049C14.2585 5.00049 14.2659 5.00049 14.2733 5.00049C14.2807 5.00049 14.2881 5.00049 14.2955 5.00049C14.3029 5.00049 14.3102 5.00049 14.3176 5.00049C14.325 5.00049 14.3324 5.00049 14.3397 5.00049C14.3471 5.00049 14.3545 5.00049 14.3618 5.00049C14.3692 5.00049 14.3765 5.00049 14.3839 5.00049C14.3912 5.00049 14.3985 5.00049 14.4059 5.00049C14.4132 5.00049 14.4205 5.00049 14.4279 5.00049C14.4352 5.00049 14.4425 5.00049 14.4498 5.00049C14.4571 5.00049 14.4644 5.00049 14.4717 5.00049C14.479 5.00049 14.4863 5.00049 14.4936 5.00049C14.5009 5.00049 14.5082 5.00049 14.5155 5.00049C14.5228 5.00049 14.53 5.00049 14.5373 5.00049C14.5446 5.00049 14.5518 5.00049 14.5591 5.00049C14.5663 5.00049 14.5736 5.00049 14.5808 5.00049C14.5881 5.00049 14.5953 5.00049 14.6026 5.00049C14.6098 5.00049 14.617 5.00049 14.6242 5.00049C14.6315 5.00049 14.6387 5.00049 14.6459 5.00049C14.6531 5.00049 14.6603 5.00049 14.6675 5.00049C14.6747 5.00049 14.6819 5.00049 14.6891 5.00049C14.6963 5.00049 14.7034 5.00049 14.7106 5.00049C14.7178 5.00049 14.7249 5.00049 14.7321 5.00049C14.7393 5.00049 14.7464 5.00049 14.7536 5.00049C14.7607 5.00049 14.7679 5.00049 14.775 5.00049C14.7821 5.00049 14.7893 5.00049 14.7964 5.00049C14.8035 5.00049 14.8106 5.00049 14.8177 5.00049C14.8248 5.00049 14.8319 5.00049 14.839 5.00049C14.8461 5.00049 14.8532 5.00049 14.8603 5.00049C14.8674 5.00049 14.8745 5.00049 14.8815 5.00049C14.8886 5.00049 14.8957 5.00049 14.9027 5.00049C14.9098 5.00049 14.9168 5.00049 14.9239 5.00049C14.9309 5.00049 14.938 5.00049 14.945 5.00049C14.952 5.00049 14.9591 5.00049 14.9661 5.00049C14.9731 5.00049 14.9801 5.00049 14.9871 5.00049C14.9941 5.00049 15.0011 5.00049 15.0081 5.00049C15.0151 5.00049 15.0221 5.00049 15.029 5.00049C15.036 5.00049 15.043 5.00049 15.0499 5.00049C15.0569 5.00049 15.0638 5.00049 15.0708 5.00049C15.0777 5.00049 15.0847 5.00049 15.0916 5.00049C15.0985 5.00049 15.1055 5.00049 15.1124 5.00049C15.1193 5.00049 15.1262 5.00049 15.1331 5.00049C15.14 5.00049 15.1469 5.00049 15.1538 5.00049C15.1607 5.00049 15.1675 5.00049 15.1744 5.00049C15.1813 5.00049 15.1881 5.00049 15.195 5.00049C15.2019 5.00049 15.2087 5.00049 15.2155 5.00049C15.2224 5.00049 15.2292 5.00049 15.236 5.00049C15.2429 5.00049 15.2497 5.00049 15.2565 5.00049C15.2633 5.00049 15.2701 5.00049 15.2769 5.00049C15.2837 5.00049 15.2905 5.00049 15.2973 5.00049C15.304 5.00049 15.3108 5.00049 15.3176 5.00049C15.3243 5.00049 15.3311 5.00049 15.3378 5.00049C15.3446 5.00049 15.3513 5.00049 15.3581 5.00049C15.3648 5.00049 15.3715 5.00049 15.3782 5.00049C15.3849 5.00049 15.3916 5.00049 15.3983 5.00049C15.405 5.00049 15.4117 5.00049 15.4184 5.00049C15.4251 5.00049 15.4318 5.00049 15.4384 5.00049C15.4451 5.00049 15.4517 5.00049 15.4584 5.00049C15.465 5.00049 15.4717 5.00049 15.4783 5.00049C15.4849 5.00049 15.4916 5.00049 15.4982 5.00049C15.5048 5.00049 15.5114 5.00049 15.518 5.00049C15.5246 5.00049 15.5312 5.00049 15.5378 5.00049C15.5443 5.00049 15.5509 5.00049 15.5575 5.00049C15.564 5.00049 15.5706 5.00049 15.5771 5.00049C15.5837 5.00049 15.5902 5.00049 15.5967 5.00049C15.6033 5.00049 15.6098 5.00049 15.6163 5.00049C15.6228 5.00049 15.6293 5.00049 15.6358 5.00049C15.6423 5.00049 15.6488 5.00049 15.6552 5.00049C15.6617 5.00049 15.6682 5.00049 15.6746 5.00049C15.6811 5.00049 15.6875 5.00049 15.694 5.00049C15.7004 5.00049 15.7068 5.00049 15.7132 5.00049C15.7197 5.00049 15.7261 5.00049 15.7325 5.00049C15.7389 5.00049 15.7453 5.00049 15.7516 5.00049C15.758 5.00049 15.7644 5.00049 15.7707 5.00049C15.7771 5.00049 15.7835 5.00049 15.7898 5.00049C15.7961 5.00049 15.8025 5.00049 15.8088 5.00049C15.8151 5.00049 15.8214 5.00049 15.8278 5.00049C15.8341 5.00049 15.8404 5.00049 15.8466 5.00049C15.8529 5.00049 15.8592 5.00049 15.8655 5.00049C15.8717 5.00049 15.878 5.00049 15.8842 5.00049C15.8905 5.00049 15.8967 5.00049 15.9029 5.00049C15.9092 5.00049 15.9154 5.00049 15.9216 5.00049C15.9278 5.00049 15.934 5.00049 15.9402 5.00049C15.9464 5.00049 15.9525 5.00049 15.9587 5.00049C15.9649 5.00049 15.971 5.00049 15.9772 5.00049C15.9833 5.00049 15.9895 5.00049 15.9956 5.00049C16.0017 5.00049 16.0078 5.00049 16.0139 5.00049C16.0201 5.00049 16.0261 5.00049 16.0322 5.00049C16.0383 5.00049 16.0444 5.00049 16.0505 5.00049C16.0565 5.00049 16.0626 5.00049 16.0686 5.00049C16.0747 5.00049 16.0807 5.00049 16.0867 5.00049C16.0928 5.00049 16.0988 5.00049 16.1048 5.00049C16.1108 5.00049 16.1168 5.00049 16.1227 5.00049C16.1287 5.00049 16.1347 5.00049 16.1407 5.00049C16.1466 5.00049 16.1526 5.00049 16.1585 5.00049C16.1644 5.00049 16.1704 5.00049 16.1763 5.00049C16.1822 5.00049 16.1881 5.00049 16.194 5.00049C16.1999 5.00049 16.2058 5.00049 16.2117 5.00049C16.2175 5.00049 16.2234 5.00049 16.2292 5.00049C16.2351 5.00049 16.2409 5.00049 16.2468 5.00049C16.2526 5.00049 16.2584 5.00049 16.2642 5.00049C16.27 5.00049 16.2758 5.00049 16.2816 5.00049C16.2874 5.00049 16.2932 5.00049 16.2989 5.00049C16.3047 5.00049 16.3104 5.00049 16.3162 5.00049C16.3219 5.00049 16.3276 5.00049 16.3334 5.00049C16.3391 5.00049 16.3448 5.00049 16.3505 5.00049C16.3562 5.00049 16.3619 5.00049 16.3675 5.00049C16.3732 5.00049 16.3789 5.00049 16.3845 5.00049C16.3902 5.00049 16.3958 5.00049 16.4014 5.00049C16.407 5.00049 16.4127 5.00049 16.4183 5.00049C16.4239 5.00049 16.4295 5.00049 16.435 5.00049C16.4406 5.00049 16.4462 5.00049 16.4517 5.00049C16.4573 5.00049 16.4628 5.00049 16.4684 5.00049C16.4739 5.00049 16.4794 5.00049 16.4849 5.00049C16.4904 5.00049 16.4959 5.00049 16.5014 5.00049C16.5069 5.00049 16.5124 5.00049 16.5178 5.00049C16.5233 5.00049 16.5287 5.00049 16.5342 5.00049C16.5396 5.00049 16.545 5.00049 16.5504 5.00049C16.5559 5.00049 16.5613 5.00049 16.5666 5.00049C16.572 5.00049 16.5774 5.00049 16.5828 5.00049C16.5881 5.00049 16.5935 5.00049 16.5988 5.00049C16.6041 5.00049 16.6095 5.00049 16.6148 5.00049C16.6201 5.00049 16.6254 5.00049 16.6307 5.00049C16.636 5.00049 16.6412 5.00049 16.6465 5.00049C16.6518 5.00049 16.657 5.00049 16.6623 5.00049C16.6675 5.00049 16.6727 5.00049 16.6779 5.00049C16.6832 5.00049 16.6883 5.00049 16.6935 5.00049C16.6987 5.00049 16.7039 5.00049 16.7091 5.00049C16.7142 5.00049 16.7194 5.00049 16.7245 5.00049C16.7296 5.00049 16.7348 5.00049 16.7399 5.00049C16.745 5.00049 16.7501 5.00049 16.7552 5.00049C16.7602 5.00049 16.7653 5.00049 16.7704 5.00049C16.7754 5.00049 16.7805 5.00049 16.7855 5.00049C16.7905 5.00049 16.7956 5.00049 16.8006 5.00049C16.8056 5.00049 16.8106 5.00049 16.8155 5.00049C16.8205 5.00049 16.8255 5.00049 16.8304 5.00049C16.8354 5.00049 16.8403 5.00049 16.8453 5.00049C16.8502 5.00049 16.8551 5.00049 16.86 5.00049C16.8649 5.00049 16.8698 5.00049 16.8747 5.00049C16.8795 5.00049 16.8844 5.00049 16.8892 5.00049C16.8941 5.00049 16.8989 5.00049 16.9037 5.00049C16.9085 5.00049 16.9133 5.00049 16.9181 5.00049C16.9229 5.00049 16.9277 5.00049 16.9325 5.00049C16.9372 5.00049 16.942 5.00049 16.9467 5.00049C16.9514 5.00049 16.9562 5.00049 16.9609 5.00049C16.9656 5.00049 16.9703 5.00049 16.975 5.00049C16.9796 5.00049 16.9843 5.00049 16.989 5.00049C16.9936 5.00049 16.9982 5.00049 17.0029 5.00049C17.0075 5.00049 17.0121 5.00049 17.0167 5.00049C17.0213 5.00049 17.0259 5.00049 17.0304 5.00049C17.035 5.00049 17.0396 5.00049 17.0441 5.00049C17.0486 5.00049 17.0532 5.00049 17.0577 5.00049C17.0622 5.00049 17.0667 5.00049 17.0712 5.00049C17.0756 5.00049 17.0801 5.00049 17.0846 5.00049C17.089 5.00049 17.0935 5.00049 17.0979 5.00049C17.1023 5.00049 17.1067 5.00049 17.1111 5.00049C17.1155 5.00049 17.1199 5.00049 17.1243 5.00049C17.1286 5.00049 17.133 5.00049 17.1373 5.00049C17.1416 5.00049 17.146 5.00049 17.1503 5.00049C17.1546 5.00049 17.1589 5.00049 17.1632 5.00049C17.1674 5.00049 17.1717 5.00049 17.1759 5.00049C17.1802 5.00049 17.1844 5.00049 17.1886 5.00049C17.1929 5.00049 17.1971 5.00049 17.2013 5.00049C17.2054 5.00049 17.2096 5.00049 17.2138 5.00049C17.2179 5.00049 17.2221 5.00049 17.2262 5.00049C17.2303 5.00049 17.2344 5.00049 17.2385 5.00049C17.2426 5.00049 17.2467 5.00049 17.2508 5.00049C17.2549 5.00049 17.2589 5.00049 17.2629 5.00049C17.267 5.00049 17.271 5.00049 17.275 5.00049C17.279 5.00049 17.283 5.00049 17.287 5.00049C17.291 5.00049 17.2949 5.00049 17.2989 5.00049C17.3028 5.00049 17.3067 5.00049 17.3106 5.00049C17.3146 5.00049 17.3185 5.00049 17.3223 5.00049C17.3262 5.00049 17.3301 5.00049 17.3339 5.00049C17.3378 5.00049 17.3416 5.00049 17.3454 5.00049C17.3493 5.00049 17.3531 5.00049 17.3568 5.00049C17.3606 5.00049 17.3644 5.00049 17.3682 5.00049C17.3719 5.00049 17.3757 5.00049 17.3794 5.00049C17.3831 5.00049 17.3868 5.00049 17.3905 5.00049C17.3942 5.00049 17.3979 5.00049 17.4015 5.00049C17.4052 5.00049 17.4088 5.00049 17.4125 5.00049C17.4161 5.00049 17.4197 5.00049 17.4233 5.00049C17.4269 5.00049 17.4305 5.00049 17.434 5.00049C17.4376 5.00049 17.4412 5.00049 17.4447 5.00049C17.4482 5.00049 17.4517 5.00049 17.4552 5.00049C17.4587 5.00049 17.4622 5.00049 17.4657 5.00049C17.4691 5.00049 17.4726 5.00049 17.476 5.00049C17.4795 5.00049 17.4829 5.00049 17.4863 5.00049C17.4897 5.00049 17.4931 5.00049 17.4964 5.00049C17.4998 5.00049 17.5031 5.00049 17.5065 5.00049C17.5098 5.00049 17.5131 5.00049 17.5164 5.00049C17.5197 5.00049 17.523 5.00049 17.5263 5.00049C17.5295 5.00049 17.5328 5.00049 17.536 5.00049C17.5392 5.00049 17.5425 5.00049 17.5457 5.00049C17.5489 5.00049 17.552 5.00049 17.5552 5.00049C17.5584 5.00049 17.5615 5.00049 17.5646 5.00049C17.5678 5.00049 17.5709 5.00049 17.574 5.00049C17.5771 5.00049 17.5802 5.00049 17.5832 5.00049C17.5863 5.00049 17.5893 5.00049 17.5924 5.00049C17.5954 5.00049 17.5984 5.00049 17.6014 5.00049C17.6044 5.00049 17.6074 5.00049 17.6103 5.00049C17.6133 5.00049 17.6162 5.00049 17.6191 5.00049C17.6221 5.00049 17.625 5.00049 17.6278 5.00049C17.6307 5.00049 17.6336 5.00049 17.6365 5.00049C17.6393 5.00049 17.6421 5.00049 17.645 5.00049C17.6478 5.00049 17.6506 5.00049 17.6534 5.00049C17.6562 5.00049 17.6589 5.00049 17.6617 5.00049C17.6644 5.00049 17.6671 5.00049 17.6699 5.00049C17.6726 5.00049 17.6753 5.00049 17.6779 5.00049C17.6806 5.00049 17.6833 5.00049 17.6859 5.00049C17.6885 5.00049 17.6912 5.00049 17.6938 5.00049C17.6964 5.00049 17.699 5.00049 17.7015 5.00049C17.7041 5.00049 17.7067 5.00049 17.7092 5.00049C17.7117 5.00049 17.7142 5.00049 17.7167 5.00049C17.7192 5.00049 17.7217 5.00049 17.7242 5.00049C17.7266 5.00049 17.7291 5.00049 17.7315 5.00049C17.7339 5.00049 17.7363 5.00049 17.7387 5.00049C17.7411 5.00049 17.7435 5.00049 17.7458 5.00049C17.7482 5.00049 17.7505 5.00049 17.7528 5.00049C17.7551 5.00049 17.7574 5.00049 17.7597 5.00049C17.762 5.00049 17.7642 5.00049 17.7664 5.00049C17.7687 5.00049 17.7709 5.00049 17.7731 5.00049C17.7753 5.00049 17.7775 5.00049 17.7797 5.00049C17.7818 5.00049 17.784 5.00049 17.7861 5.00049C17.7882 5.00049 17.7903 5.00049 17.7924 5.00049C17.7945 5.00049 17.7966 5.00049 17.7986 5.00049C17.8007 5.00049 17.8027 5.00049 17.8047 5.00049C17.8067 5.00049 17.8087 5.00049 17.8107 5.00049C17.8127 5.00049 17.8146 5.00049 17.8166 5.00049C17.8185 5.00049 17.8204 5.00049 17.8223 5.00049C17.8242 5.00049 17.8261 5.00049 17.8279 5.00049C17.8298 5.00049 17.8316 5.00049 17.8335 5.00049C17.8353 5.00049 17.8371 5.00049 17.8389 5.00049C17.8406 5.00049 17.8424 5.00049 17.8442 5.00049C17.8459 5.00049 17.8476 5.00049 17.8493 5.00049C17.851 5.00049 17.8527 5.00049 17.8544 5.00049C17.856 5.00049 17.8577 5.00049 17.8593 5.00049C17.8609 5.00049 17.8625 5.00049 17.8641 5.00049C17.8657 5.00049 17.8673 5.00049 17.8688 5.00049C17.8704 5.00049 17.8719 5.00049 17.8734 5.00049C17.8749 5.00049 17.8764 5.00049 17.8779 5.00049C17.8793 5.00049 17.8808 5.00049 17.8822 5.00049C17.8837 5.00049 17.8851 5.00049 17.8865 5.00049C17.8878 5.00049 17.8892 5.00049 17.8906 5.00049C17.8919 5.00049 17.8932 5.00049 17.8945 5.00049C17.8958 5.00049 17.8971 5.00049 17.8984 5.00049C17.8997 5.00049 17.9009 5.00049 17.9021 5.00049C17.9034 5.00049 17.9046 5.00049 17.9058 5.00049C17.907 5.00049 17.9081 5.00049 17.9093 5.00049C17.9104 5.00049 17.9115 5.00049 17.9126 5.00049C17.9137 5.00049 17.9148 5.00049 17.9159 5.00049C17.917 5.00049 17.918 5.00049 17.919 5.00049C17.9201 5.00049 17.9211 5.00049 17.922 5.00049C17.923 5.00049 17.924 5.00049 17.9249 5.00049C17.9259 5.00049 17.9268 5.00049 17.9277 5.00049C17.9286 5.00049 17.9295 5.00049 17.9303 5.00049C17.9312 5.00049 17.932 5.00049 17.9328 5.00049C17.9336 5.00049 17.9344 5.00049 17.9352 5.00049C17.936 5.00049 17.9367 5.00049 17.9375 5.00049C17.9382 5.00049 17.9389 5.00049 17.9396 5.00049C17.9403 5.00049 17.941 5.00049 17.9416 5.00049C17.9423 5.00049 17.9429 5.00049 17.9435 5.00049C17.9441 5.00049 17.9447 5.00049 17.9452 5.00049C17.9458 5.00049 17.9464 5.00049 17.9469 5.00049C17.9474 5.00049 17.9479 5.00049 17.9484 5.00049C17.9488 5.00049 17.9493 5.00049 17.9497 5.00049C17.9502 5.00049 17.9506 5.00049 17.951 5.00049C17.9514 5.00049 17.9517 5.00049 17.9521 5.00049C17.9518 5.00049 17.9524 5.00049 17.9521 5.00049C17.9524 5.00049 17.9537 5.00049 17.9539 5.00049C17.9537 5.00049 17.9542 5.00049 17.9539 5.00049C17.9542 5.00049 17.9551 5.00049 17.9552 5.00049C17.9553 5.00049 17.9563 5.00049 17.9563 4.00049C17.9563 3.00049 17.9564 3.00049 17.9563 3.00049C17.9562 3.00049 17.9564 3.00049 17.9563 3.00049C17.9562 3.00049 17.9554 3.00049 17.9552 3.00049C17.9551 3.00049 17.9555 3.00049 17.9552 3.00049C17.955 3.00049 17.9542 3.00049 17.9539 3.00049C17.9537 3.00049 17.9542 3.00049 17.9539 3.00049C17.9536 3.00049 17.9524 3.00049 17.9521 3.00049C17.9517 3.00049 17.9514 3.00049 17.951 3.00049C17.9506 3.00049 17.9502 3.00049 17.9497 3.00049C17.9493 3.00049 17.9488 3.00049 17.9484 3.00049C17.9479 3.00049 17.9474 3.00049 17.9469 3.00049C17.9464 3.00049 17.9458 3.00049 17.9452 3.00049C17.9447 3.00049 17.9441 3.00049 17.9435 3.00049C17.9429 3.00049 17.9423 3.00049 17.9416 3.00049C17.941 3.00049 17.9403 3.00049 17.9396 3.00049C17.9389 3.00049 17.9382 3.00049 17.9375 3.00049C17.9367 3.00049 17.936 3.00049 17.9352 3.00049C17.9344 3.00049 17.9336 3.00049 17.9328 3.00049C17.932 3.00049 17.9312 3.00049 17.9303 3.00049C17.9295 3.00049 17.9286 3.00049 17.9277 3.00049C17.9268 3.00049 17.9259 3.00049 17.9249 3.00049C17.924 3.00049 17.923 3.00049 17.922 3.00049C17.9211 3.00049 17.9201 3.00049 17.919 3.00049C17.918 3.00049 17.917 3.00049 17.9159 3.00049C17.9148 3.00049 17.9137 3.00049 17.9126 3.00049C17.9115 3.00049 17.9104 3.00049 17.9093 3.00049C17.9081 3.00049 17.907 3.00049 17.9058 3.00049C17.9046 3.00049 17.9034 3.00049 17.9021 3.00049C17.9009 3.00049 17.8997 3.00049 17.8984 3.00049C17.8971 3.00049 17.8958 3.00049 17.8945 3.00049C17.8932 3.00049 17.8919 3.00049 17.8906 3.00049C17.8892 3.00049 17.8878 3.00049 17.8865 3.00049C17.8851 3.00049 17.8837 3.00049 17.8822 3.00049C17.8808 3.00049 17.8793 3.00049 17.8779 3.00049C17.8764 3.00049 17.8749 3.00049 17.8734 3.00049C17.8719 3.00049 17.8704 3.00049 17.8688 3.00049C17.8673 3.00049 17.8657 3.00049 17.8641 3.00049C17.8625 3.00049 17.8609 3.00049 17.8593 3.00049C17.8577 3.00049 17.856 3.00049 17.8544 3.00049C17.8527 3.00049 17.851 3.00049 17.8493 3.00049C17.8476 3.00049 17.8459 3.00049 17.8442 3.00049C17.8424 3.00049 17.8406 3.00049 17.8389 3.00049C17.8371 3.00049 17.8353 3.00049 17.8335 3.00049C17.8316 3.00049 17.8298 3.00049 17.8279 3.00049C17.8261 3.00049 17.8242 3.00049 17.8223 3.00049C17.8204 3.00049 17.8185 3.00049 17.8166 3.00049C17.8146 3.00049 17.8127 3.00049 17.8107 3.00049C17.8087 3.00049 17.8067 3.00049 17.8047 3.00049C17.8027 3.00049 17.8007 3.00049 17.7986 3.00049C17.7966 3.00049 17.7945 3.00049 17.7924 3.00049C17.7903 3.00049 17.7882 3.00049 17.7861 3.00049C17.784 3.00049 17.7818 3.00049 17.7797 3.00049C17.7775 3.00049 17.7753 3.00049 17.7731 3.00049C17.7709 3.00049 17.7687 3.00049 17.7664 3.00049C17.7642 3.00049 17.762 3.00049 17.7597 3.00049C17.7574 3.00049 17.7551 3.00049 17.7528 3.00049C17.7505 3.00049 17.7482 3.00049 17.7458 3.00049C17.7435 3.00049 17.7411 3.00049 17.7387 3.00049C17.7363 3.00049 17.7339 3.00049 17.7315 3.00049C17.7291 3.00049 17.7266 3.00049 17.7242 3.00049C17.7217 3.00049 17.7192 3.00049 17.7167 3.00049C17.7142 3.00049 17.7117 3.00049 17.7092 3.00049C17.7067 3.00049 17.7041 3.00049 17.7015 3.00049C17.699 3.00049 17.6964 3.00049 17.6938 3.00049C17.6912 3.00049 17.6885 3.00049 17.6859 3.00049C17.6833 3.00049 17.6806 3.00049 17.6779 3.00049C17.6753 3.00049 17.6726 3.00049 17.6699 3.00049C17.6671 3.00049 17.6644 3.00049 17.6617 3.00049C17.6589 3.00049 17.6562 3.00049 17.6534 3.00049C17.6506 3.00049 17.6478 3.00049 17.645 3.00049C17.6421 3.00049 17.6393 3.00049 17.6365 3.00049C17.6336 3.00049 17.6307 3.00049 17.6278 3.00049C17.625 3.00049 17.6221 3.00049 17.6191 3.00049C17.6162 3.00049 17.6133 3.00049 17.6103 3.00049C17.6074 3.00049 17.6044 3.00049 17.6014 3.00049C17.5984 3.00049 17.5954 3.00049 17.5924 3.00049C17.5893 3.00049 17.5863 3.00049 17.5832 3.00049C17.5802 3.00049 17.5771 3.00049 17.574 3.00049C17.5709 3.00049 17.5678 3.00049 17.5646 3.00049C17.5615 3.00049 17.5584 3.00049 17.5552 3.00049C17.552 3.00049 17.5489 3.00049 17.5457 3.00049C17.5425 3.00049 17.5392 3.00049 17.536 3.00049C17.5328 3.00049 17.5295 3.00049 17.5263 3.00049C17.523 3.00049 17.5197 3.00049 17.5164 3.00049C17.5131 3.00049 17.5098 3.00049 17.5065 3.00049C17.5031 3.00049 17.4998 3.00049 17.4964 3.00049C17.4931 3.00049 17.4897 3.00049 17.4863 3.00049C17.4829 3.00049 17.4795 3.00049 17.476 3.00049C17.4726 3.00049 17.4691 3.00049 17.4657 3.00049C17.4622 3.00049 17.4587 3.00049 17.4552 3.00049C17.4517 3.00049 17.4482 3.00049 17.4447 3.00049C17.4412 3.00049 17.4376 3.00049 17.434 3.00049C17.4305 3.00049 17.4269 3.00049 17.4233 3.00049C17.4197 3.00049 17.4161 3.00049 17.4125 3.00049C17.4088 3.00049 17.4052 3.00049 17.4015 3.00049C17.3979 3.00049 17.3942 3.00049 17.3905 3.00049C17.3868 3.00049 17.3831 3.00049 17.3794 3.00049C17.3757 3.00049 17.3719 3.00049 17.3682 3.00049C17.3644 3.00049 17.3606 3.00049 17.3568 3.00049C17.3531 3.00049 17.3493 3.00049 17.3454 3.00049C17.3416 3.00049 17.3378 3.00049 17.3339 3.00049C17.3301 3.00049 17.3262 3.00049 17.3223 3.00049C17.3185 3.00049 17.3146 3.00049 17.3106 3.00049C17.3067 3.00049 17.3028 3.00049 17.2989 3.00049C17.2949 3.00049 17.291 3.00049 17.287 3.00049C17.283 3.00049 17.279 3.00049 17.275 3.00049C17.271 3.00049 17.267 3.00049 17.2629 3.00049C17.2589 3.00049 17.2549 3.00049 17.2508 3.00049C17.2467 3.00049 17.2426 3.00049 17.2385 3.00049C17.2344 3.00049 17.2303 3.00049 17.2262 3.00049C17.2221 3.00049 17.2179 3.00049 17.2138 3.00049C17.2096 3.00049 17.2054 3.00049 17.2013 3.00049C17.1971 3.00049 17.1929 3.00049 17.1886 3.00049C17.1844 3.00049 17.1802 3.00049 17.1759 3.00049C17.1717 3.00049 17.1674 3.00049 17.1632 3.00049C17.1589 3.00049 17.1546 3.00049 17.1503 3.00049C17.146 3.00049 17.1416 3.00049 17.1373 3.00049C17.133 3.00049 17.1286 3.00049 17.1243 3.00049C17.1199 3.00049 17.1155 3.00049 17.1111 3.00049C17.1067 3.00049 17.1023 3.00049 17.0979 3.00049C17.0935 3.00049 17.089 3.00049 17.0846 3.00049C17.0801 3.00049 17.0756 3.00049 17.0712 3.00049C17.0667 3.00049 17.0622 3.00049 17.0577 3.00049C17.0532 3.00049 17.0486 3.00049 17.0441 3.00049C17.0396 3.00049 17.035 3.00049 17.0304 3.00049C17.0259 3.00049 17.0213 3.00049 17.0167 3.00049C17.0121 3.00049 17.0075 3.00049 17.0029 3.00049C16.9982 3.00049 16.9936 3.00049 16.989 3.00049C16.9843 3.00049 16.9796 3.00049 16.975 3.00049C16.9703 3.00049 16.9656 3.00049 16.9609 3.00049C16.9562 3.00049 16.9514 3.00049 16.9467 3.00049C16.942 3.00049 16.9372 3.00049 16.9325 3.00049C16.9277 3.00049 16.9229 3.00049 16.9181 3.00049C16.9133 3.00049 16.9085 3.00049 16.9037 3.00049C16.8989 3.00049 16.8941 3.00049 16.8892 3.00049C16.8844 3.00049 16.8795 3.00049 16.8747 3.00049C16.8698 3.00049 16.8649 3.00049 16.86 3.00049C16.8551 3.00049 16.8502 3.00049 16.8453 3.00049C16.8403 3.00049 16.8354 3.00049 16.8304 3.00049C16.8255 3.00049 16.8205 3.00049 16.8155 3.00049C16.8106 3.00049 16.8056 3.00049 16.8006 3.00049C16.7956 3.00049 16.7905 3.00049 16.7855 3.00049C16.7805 3.00049 16.7754 3.00049 16.7704 3.00049C16.7653 3.00049 16.7602 3.00049 16.7552 3.00049C16.7501 3.00049 16.745 3.00049 16.7399 3.00049C16.7348 3.00049 16.7296 3.00049 16.7245 3.00049C16.7194 3.00049 16.7142 3.00049 16.7091 3.00049C16.7039 3.00049 16.6987 3.00049 16.6935 3.00049C16.6883 3.00049 16.6832 3.00049 16.6779 3.00049C16.6727 3.00049 16.6675 3.00049 16.6623 3.00049C16.657 3.00049 16.6518 3.00049 16.6465 3.00049C16.6412 3.00049 16.636 3.00049 16.6307 3.00049C16.6254 3.00049 16.6201 3.00049 16.6148 3.00049C16.6095 3.00049 16.6041 3.00049 16.5988 3.00049C16.5935 3.00049 16.5881 3.00049 16.5828 3.00049C16.5774 3.00049 16.572 3.00049 16.5666 3.00049C16.5613 3.00049 16.5559 3.00049 16.5504 3.00049C16.545 3.00049 16.5396 3.00049 16.5342 3.00049C16.5287 3.00049 16.5233 3.00049 16.5178 3.00049C16.5124 3.00049 16.5069 3.00049 16.5014 3.00049C16.4959 3.00049 16.4904 3.00049 16.4849 3.00049C16.4794 3.00049 16.4739 3.00049 16.4684 3.00049C16.4628 3.00049 16.4573 3.00049 16.4517 3.00049C16.4462 3.00049 16.4406 3.00049 16.435 3.00049C16.4295 3.00049 16.4239 3.00049 16.4183 3.00049C16.4127 3.00049 16.407 3.00049 16.4014 3.00049C16.3958 3.00049 16.3902 3.00049 16.3845 3.00049C16.3789 3.00049 16.3732 3.00049 16.3675 3.00049C16.3619 3.00049 16.3562 3.00049 16.3505 3.00049C16.3448 3.00049 16.3391 3.00049 16.3334 3.00049C16.3276 3.00049 16.3219 3.00049 16.3162 3.00049C16.3104 3.00049 16.3047 3.00049 16.2989 3.00049C16.2932 3.00049 16.2874 3.00049 16.2816 3.00049C16.2758 3.00049 16.27 3.00049 16.2642 3.00049C16.2584 3.00049 16.2526 3.00049 16.2468 3.00049C16.2409 3.00049 16.2351 3.00049 16.2292 3.00049C16.2234 3.00049 16.2175 3.00049 16.2117 3.00049C16.2058 3.00049 16.1999 3.00049 16.194 3.00049C16.1881 3.00049 16.1822 3.00049 16.1763 3.00049C16.1704 3.00049 16.1644 3.00049 16.1585 3.00049C16.1526 3.00049 16.1466 3.00049 16.1407 3.00049C16.1347 3.00049 16.1287 3.00049 16.1227 3.00049C16.1168 3.00049 16.1108 3.00049 16.1048 3.00049C16.0988 3.00049 16.0928 3.00049 16.0867 3.00049C16.0807 3.00049 16.0747 3.00049 16.0686 3.00049C16.0626 3.00049 16.0565 3.00049 16.0505 3.00049C16.0444 3.00049 16.0383 3.00049 16.0322 3.00049C16.0261 3.00049 16.0201 3.00049 16.0139 3.00049C16.0078 3.00049 16.0017 3.00049 15.9956 3.00049C15.9895 3.00049 15.9833 3.00049 15.9772 3.00049C15.971 3.00049 15.9649 3.00049 15.9587 3.00049C15.9525 3.00049 15.9464 3.00049 15.9402 3.00049C15.934 3.00049 15.9278 3.00049 15.9216 3.00049C15.9154 3.00049 15.9092 3.00049 15.9029 3.00049C15.8967 3.00049 15.8905 3.00049 15.8842 3.00049C15.878 3.00049 15.8717 3.00049 15.8655 3.00049C15.8592 3.00049 15.8529 3.00049 15.8466 3.00049C15.8404 3.00049 15.8341 3.00049 15.8278 3.00049C15.8214 3.00049 15.8151 3.00049 15.8088 3.00049C15.8025 3.00049 15.7961 3.00049 15.7898 3.00049C15.7835 3.00049 15.7771 3.00049 15.7707 3.00049C15.7644 3.00049 15.758 3.00049 15.7516 3.00049C15.7453 3.00049 15.7389 3.00049 15.7325 3.00049C15.7261 3.00049 15.7197 3.00049 15.7132 3.00049C15.7068 3.00049 15.7004 3.00049 15.694 3.00049C15.6875 3.00049 15.6811 3.00049 15.6746 3.00049C15.6682 3.00049 15.6617 3.00049 15.6552 3.00049C15.6488 3.00049 15.6423 3.00049 15.6358 3.00049C15.6293 3.00049 15.6228 3.00049 15.6163 3.00049C15.6098 3.00049 15.6033 3.00049 15.5967 3.00049C15.5902 3.00049 15.5837 3.00049 15.5771 3.00049C15.5706 3.00049 15.564 3.00049 15.5575 3.00049C15.5509 3.00049 15.5443 3.00049 15.5378 3.00049C15.5312 3.00049 15.5246 3.00049 15.518 3.00049C15.5114 3.00049 15.5048 3.00049 15.4982 3.00049C15.4916 3.00049 15.4849 3.00049 15.4783 3.00049C15.4717 3.00049 15.465 3.00049 15.4584 3.00049C15.4517 3.00049 15.4451 3.00049 15.4384 3.00049C15.4318 3.00049 15.4251 3.00049 15.4184 3.00049C15.4117 3.00049 15.405 3.00049 15.3983 3.00049C15.3916 3.00049 15.3849 3.00049 15.3782 3.00049C15.3715 3.00049 15.3648 3.00049 15.3581 3.00049C15.3513 3.00049 15.3446 3.00049 15.3378 3.00049C15.3311 3.00049 15.3243 3.00049 15.3176 3.00049C15.3108 3.00049 15.304 3.00049 15.2973 3.00049C15.2905 3.00049 15.2837 3.00049 15.2769 3.00049C15.2701 3.00049 15.2633 3.00049 15.2565 3.00049C15.2497 3.00049 15.2429 3.00049 15.236 3.00049C15.2292 3.00049 15.2224 3.00049 15.2155 3.00049C15.2087 3.00049 15.2019 3.00049 15.195 3.00049C15.1881 3.00049 15.1813 3.00049 15.1744 3.00049C15.1675 3.00049 15.1607 3.00049 15.1538 3.00049C15.1469 3.00049 15.14 3.00049 15.1331 3.00049C15.1262 3.00049 15.1193 3.00049 15.1124 3.00049C15.1055 3.00049 15.0985 3.00049 15.0916 3.00049C15.0847 3.00049 15.0777 3.00049 15.0708 3.00049C15.0638 3.00049 15.0569 3.00049 15.0499 3.00049C15.043 3.00049 15.036 3.00049 15.029 3.00049C15.0221 3.00049 15.0151 3.00049 15.0081 3.00049C15.0011 3.00049 14.9941 3.00049 14.9871 3.00049C14.9801 3.00049 14.9731 3.00049 14.9661 3.00049C14.9591 3.00049 14.952 3.00049 14.945 3.00049C14.938 3.00049 14.9309 3.00049 14.9239 3.00049C14.9168 3.00049 14.9098 3.00049 14.9027 3.00049C14.8957 3.00049 14.8886 3.00049 14.8815 3.00049C14.8745 3.00049 14.8674 3.00049 14.8603 3.00049C14.8532 3.00049 14.8461 3.00049 14.839 3.00049C14.8319 3.00049 14.8248 3.00049 14.8177 3.00049C14.8106 3.00049 14.8035 3.00049 14.7964 3.00049C14.7893 3.00049 14.7821 3.00049 14.775 3.00049C14.7679 3.00049 14.7607 3.00049 14.7536 3.00049C14.7464 3.00049 14.7393 3.00049 14.7321 3.00049C14.7249 3.00049 14.7178 3.00049 14.7106 3.00049C14.7034 3.00049 14.6963 3.00049 14.6891 3.00049C14.6819 3.00049 14.6747 3.00049 14.6675 3.00049C14.6603 3.00049 14.6531 3.00049 14.6459 3.00049C14.6387 3.00049 14.6315 3.00049 14.6242 3.00049C14.617 3.00049 14.6098 3.00049 14.6026 3.00049C14.5953 3.00049 14.5881 3.00049 14.5808 3.00049C14.5736 3.00049 14.5663 3.00049 14.5591 3.00049C14.5518 3.00049 14.5446 3.00049 14.5373 3.00049C14.53 3.00049 14.5228 3.00049 14.5155 3.00049C14.5082 3.00049 14.5009 3.00049 14.4936 3.00049C14.4863 3.00049 14.479 3.00049 14.4717 3.00049C14.4644 3.00049 14.4571 3.00049 14.4498 3.00049C14.4425 3.00049 14.4352 3.00049 14.4279 3.00049C14.4205 3.00049 14.4132 3.00049 14.4059 3.00049C14.3985 3.00049 14.3912 3.00049 14.3839 3.00049C14.3765 3.00049 14.3692 3.00049 14.3618 3.00049C14.3545 3.00049 14.3471 3.00049 14.3397 3.00049C14.3324 3.00049 14.325 3.00049 14.3176 3.00049C14.3102 3.00049 14.3029 3.00049 14.2955 3.00049C14.2881 3.00049 14.2807 3.00049 14.2733 3.00049C14.2659 3.00049 14.2585 3.00049 14.2511 3.00049C14.2437 3.00049 14.2363 3.00049 14.2289 3.00049C14.2215 3.00049 14.214 3.00049 14.2066 3.00049C14.1992 3.00049 14.1918 3.00049 14.1843 3.00049C14.1769 3.00049 14.1695 3.00049 14.162 3.00049C14.1546 3.00049 14.1471 3.00049 14.1397 3.00049C14.1322 3.00049 14.1248 3.00049 14.1173 3.00049C14.1098 3.00049 14.1024 3.00049 14.0949 3.00049C14.0874 3.00049 14.08 3.00049 14.0725 3.00049C14.065 3.00049 14.0575 3.00049 14.05 3.00049C14.0426 3.00049 14.0351 3.00049 14.0276 3.00049C14.0201 3.00049 14.0126 3.00049 14.0051 3.00049C13.9976 3.00049 13.9901 3.00049 13.9825 3.00049C13.975 3.00049 13.9675 3.00049 13.96 3.00049C13.9525 3.00049 13.9449 3.00049 13.9374 3.00049C13.9299 3.00049 13.9224 3.00049 13.9148 3.00049C13.9073 3.00049 13.8997 3.00049 13.8922 3.00049C13.8847 3.00049 13.8771 3.00049 13.8696 3.00049C13.862 3.00049 13.8544 3.00049 13.8469 3.00049C13.8393 3.00049 13.8318 3.00049 13.8242 3.00049C13.8166 3.00049 13.8091 3.00049 13.8015 3.00049C13.7939 3.00049 13.7863 3.00049 13.7788 3.00049C13.7712 3.00049 13.7636 3.00049 13.756 3.00049C13.7484 3.00049 13.7408 3.00049 13.7332 3.00049C13.7256 3.00049 13.718 3.00049 13.7104 3.00049C13.7028 3.00049 13.6952 3.00049 13.6876 3.00049C13.68 3.00049 13.6724 3.00049 13.6648 3.00049C13.6572 3.00049 13.6495 3.00049 13.6419 3.00049C13.6343 3.00049 13.6267 3.00049 13.619 3.00049C13.6114 3.00049 13.6038 3.00049 13.5961 3.00049C13.5885 3.00049 13.5809 3.00049 13.5732 3.00049C13.5656 3.00049 13.558 3.00049 13.5503 3.00049C13.5427 3.00049 13.535 3.00049 13.5274 3.00049C13.5197 3.00049 13.5121 3.00049 13.5044 3.00049C13.4967 3.00049 13.4891 3.00049 13.4814 3.00049C13.4738 3.00049 13.4661 3.00049 13.4584 3.00049C13.4508 3.00049 13.4431 3.00049 13.4354 3.00049C13.4277 3.00049 13.4201 3.00049 13.4124 3.00049C13.4047 3.00049 13.397 3.00049 13.3893 3.00049C13.3817 3.00049 13.374 3.00049 13.3663 3.00049C13.3586 3.00049 13.3509 3.00049 13.3432 3.00049C13.3355 3.00049 13.3278 3.00049 13.3201 3.00049C13.3124 3.00049 13.3047 3.00049 13.297 3.00049C13.2893 3.00049 13.2816 3.00049 13.2739 3.00049C13.2662 3.00049 13.2585 3.00049 13.2508 3.00049C13.2431 3.00049 13.2353 3.00049 13.2276 3.00049C13.2199 3.00049 13.2122 3.00049 13.2045 3.00049C13.1968 3.00049 13.189 3.00049 13.1813 3.00049C13.1736 3.00049 13.1659 3.00049 13.1581 3.00049C13.1504 3.00049 13.1427 3.00049 13.1349 3.00049C13.1272 3.00049 13.1195 3.00049 13.1118 3.00049C13.104 3.00049 13.0963 3.00049 13.0885 3.00049C13.0808 3.00049 13.0731 3.00049 13.0653 3.00049C13.0576 3.00049 13.0498 3.00049 13.0421 3.00049C13.0344 3.00049 13.0266 3.00049 13.0189 3.00049C13.0111 3.00049 13.0034 3.00049 12.9956 3.00049C12.9879 3.00049 12.9801 3.00049 12.9724 3.00049C12.9646 3.00049 12.9569 3.00049 12.9491 3.00049C12.9413 3.00049 12.9336 3.00049 12.9258 3.00049C12.9181 3.00049 12.9103 3.00049 12.9025 3.00049C12.8948 3.00049 12.887 3.00049 12.8793 3.00049C12.8715 3.00049 12.8637 3.00049 12.856 3.00049C12.8482 3.00049 12.8404 3.00049 12.8327 3.00049C12.8249 3.00049 12.8171 3.00049 12.8094 3.00049C12.8016 3.00049 12.7938 3.00049 12.7861 3.00049C12.7783 3.00049 12.7705 3.00049 12.7627 3.00049C12.755 3.00049 12.7472 3.00049 12.7394 3.00049C12.7317 3.00049 12.7239 3.00049 12.7161 3.00049C12.7083 3.00049 12.7006 3.00049 12.6928 3.00049C12.685 3.00049 12.6772 3.00049 12.6694 3.00049C12.6617 3.00049 12.6539 3.00049 12.6461 3.00049C12.6383 3.00049 12.6306 3.00049 12.6228 3.00049C12.615 3.00049 12.6072 3.00049 12.5994 3.00049C12.5917 3.00049 12.5839 3.00049 12.5761 3.00049C12.5683 3.00049 12.5605 3.00049 12.5527 3.00049C12.545 3.00049 12.5372 3.00049 12.5294 3.00049C12.5216 3.00049 12.5138 3.00049 12.5061 3.00049C12.4983 3.00049 12.4905 3.00049 12.4827 3.00049C12.4749 3.00049 12.4671 3.00049 12.4594 3.00049C12.4516 3.00049 12.4438 3.00049 12.436 3.00049C12.4282 3.00049 12.4205 3.00049 12.4127 3.00049C12.4049 3.00049 12.3971 3.00049 12.3893 3.00049C12.3815 3.00049 12.3738 3.00049 12.366 3.00049C12.3582 3.00049 12.3504 3.00049 12.3426 3.00049C12.3349 3.00049 12.3271 3.00049 12.3193 3.00049C12.3115 3.00049 12.3037 3.00049 12.296 3.00049C12.2882 3.00049 12.2804 3.00049 12.2726 3.00049C12.2648 3.00049 12.2571 3.00049 12.2493 3.00049C12.2415 3.00049 12.2337 3.00049 12.226 3.00049C12.2182 3.00049 12.2104 3.00049 12.2026 3.00049C12.1949 3.00049 12.1871 3.00049 12.1793 3.00049C12.1715 3.00049 12.1638 3.00049 12.156 3.00049C12.1482 3.00049 12.1405 3.00049 12.1327 3.00049C12.1249 3.00049 12.1172 3.00049 12.1094 3.00049C12.1016 3.00049 12.0939 3.00049 12.0861 3.00049C12.0783 3.00049 12.0706 3.00049 12.0628 3.00049C12.055 3.00049 12.0473 3.00049 12.0395 3.00049C12.0317 3.00049 12.024 3.00049 12.0162 3.00049C12.0085 3.00049 12.0007 3.00049 11.993 3.00049C11.9852 3.00049 11.9774 3.00049 11.9697 3.00049C11.9619 3.00049 11.9542 3.00049 11.9464 3.00049C11.9387 3.00049 11.9309 3.00049 11.9232 3.00049C11.9154 3.00049 11.9077 3.00049 11.8999 3.00049C11.8922 3.00049 11.8845 3.00049 11.8767 3.00049C11.869 3.00049 11.8612 3.00049 11.8535 3.00049C11.8457 3.00049 11.838 3.00049 11.8303 3.00049C11.8225 3.00049 11.8148 3.00049 11.8071 3.00049C11.7993 3.00049 11.7916 3.00049 11.7839 3.00049C11.7762 3.00049 11.7684 3.00049 11.7607 3.00049C11.753 3.00049 11.7453 3.00049 11.7375 3.00049C11.7298 3.00049 11.7221 3.00049 11.7144 3.00049C11.7067 3.00049 11.6989 3.00049 11.6912 3.00049C11.6835 3.00049 11.6758 3.00049 11.6681 3.00049C11.6604 3.00049 11.6527 3.00049 11.645 3.00049C11.6373 3.00049 11.6296 3.00049 11.6219 3.00049C11.6142 3.00049 11.6065 3.00049 11.5988 3.00049C11.5911 3.00049 11.5834 3.00049 11.5757 3.00049C11.568 3.00049 11.5603 3.00049 11.5526 3.00049C11.545 3.00049 11.5373 3.00049 11.5296 3.00049C11.5219 3.00049 11.5142 3.00049 11.5066 3.00049C11.4989 3.00049 11.4912 3.00049 11.4835 3.00049C11.4759 3.00049 11.4682 3.00049 11.4605 3.00049C11.4529 3.00049 11.4452 3.00049 11.4376 3.00049C11.4299 3.00049 11.4222 3.00049 11.4146 3.00049C11.4069 3.00049 11.3993 3.00049 11.3916 3.00049C11.384 3.00049 11.3763 3.00049 11.3687 3.00049C11.3611 3.00049 11.3534 3.00049 11.3458 3.00049C11.3381 3.00049 11.3305 3.00049 11.3229 3.00049C11.3153 3.00049 11.3076 3.00049 11.3 3.00049C11.2924 3.00049 11.2848 3.00049 11.2771 3.00049C11.2695 3.00049 11.2619 3.00049 11.2543 3.00049C11.2467 3.00049 11.2391 3.00049 11.2315 3.00049C11.2239 3.00049 11.2163 3.00049 11.2087 3.00049C11.2011 3.00049 11.1935 3.00049 11.1859 3.00049C11.1783 3.00049 11.1707 3.00049 11.1631 3.00049C11.1555 3.00049 11.148 3.00049 11.1404 3.00049C11.1328 3.00049 11.1252 3.00049 11.1177 3.00049C11.1101 3.00049 11.1025 3.00049 11.095 3.00049C11.0874 3.00049 11.0799 3.00049 11.0723 3.00049C11.0647 3.00049 11.0572 3.00049 11.0496 3.00049C11.0421 3.00049 11.0346 3.00049 11.027 3.00049C11.0195 3.00049 11.0119 3.00049 11.0044 3.00049C10.9969 3.00049 10.9894 3.00049 10.9818 3.00049C10.9743 3.00049 10.9668 3.00049 10.9593 3.00049C10.9518 3.00049 10.9442 3.00049 10.9367 3.00049C10.9292 3.00049 10.9217 3.00049 10.9142 3.00049C10.9067 3.00049 10.8992 3.00049 10.8917 3.00049C10.8843 3.00049 10.8768 3.00049 10.8693 3.00049C10.8618 3.00049 10.8543 3.00049 10.8469 3.00049C10.8394 3.00049 10.8319 3.00049 10.8245 3.00049C10.817 3.00049 10.8095 3.00049 10.8021 3.00049C10.7946 3.00049 10.7872 3.00049 10.7797 3.00049C10.7723 3.00049 10.7648 3.00049 10.7574 3.00049C10.75 3.00049 10.7425 3.00049 10.7351 3.00049C10.7277 3.00049 10.7203 3.00049 10.7128 3.00049C10.7054 3.00049 10.698 3.00049 10.6906 3.00049C10.6832 3.00049 10.6758 3.00049 10.6684 3.00049C10.661 3.00049 10.6536 3.00049 10.6462 3.00049C10.6388 3.00049 10.6314 3.00049 10.6241 3.00049C10.6167 3.00049 10.6093 3.00049 10.6019 3.00049C10.5946 3.00049 10.5872 3.00049 10.5799 3.00049C10.5725 3.00049 10.5651 3.00049 10.5578 3.00049C10.5504 3.00049 10.5431 3.00049 10.5358 3.00049C10.5284 3.00049 10.5211 3.00049 10.5138 3.00049C10.5064 3.00049 10.4991 3.00049 10.4918 3.00049C10.4845 3.00049 10.4772 3.00049 10.4699 3.00049C10.4626 3.00049 10.4553 3.00049 10.448 3.00049C10.4407 3.00049 10.4334 3.00049 10.4261 3.00049C10.4188 3.00049 10.4116 3.00049 10.4043 3.00049C10.397 3.00049 10.3897 3.00049 10.3825 3.00049C10.3752 3.00049 10.368 3.00049 10.3607 3.00049C10.3535 3.00049 10.3462 3.00049 10.339 3.00049C10.3318 3.00049 10.3245 3.00049 10.3173 3.00049C10.3101 3.00049 10.3028 3.00049 10.2956 3.00049C10.2884 3.00049 10.2812 3.00049 10.274 3.00049C10.2668 3.00049 10.2596 3.00049 10.2524 3.00049C10.2452 3.00049 10.2381 3.00049 10.2309 3.00049C10.2237 3.00049 10.2165 3.00049 10.2094 3.00049C10.2022 3.00049 10.195 3.00049 10.1879 3.00049C10.1807 3.00049 10.1736 3.00049 10.1665 3.00049C10.1593 3.00049 10.1522 3.00049 10.1451 3.00049C10.1379 3.00049 10.1308 3.00049 10.1237 3.00049C10.1166 3.00049 10.1095 3.00049 10.1024 3.00049C10.0953 3.00049 10.0882 3.00049 10.0811 3.00049C10.074 3.00049 10.0669 3.00049 10.0598 3.00049C10.0528 3.00049 10.0457 3.00049 10.0386 3.00049C10.0316 3.00049 10.0245 3.00049 10.0175 3.00049C10.0104 3.00049 10.0034 3.00049 9.99635 3.00049C9.98931 3.00049 9.98229 3.00049 9.97527 3.00049C9.96825 3.00049 9.96123 3.00049 9.95422 3.00049C9.94722 3.00049 9.94022 3.00049 9.93323 3.00049C9.92623 3.00049 9.91925 3.00049 9.91227 3.00049C9.90529 3.00049 9.89832 3.00049 9.89136 3.00049C9.88439 3.00049 9.87743 3.00049 9.87048 3.00049C9.86353 3.00049 9.85659 3.00049 9.84966 3.00049C9.84272 3.00049 9.83579 3.00049 9.82887 3.00049C9.82195 3.00049 9.81504 3.00049 9.80813 3.00049C9.80123 3.00049 9.79433 3.00049 9.78744 3.00049C9.78054 3.00049 9.77366 3.00049 9.76678 3.00049C9.75991 3.00049 9.75304 3.00049 9.74618 3.00049C9.73932 3.00049 9.73246 3.00049 9.72562 3.00049C9.71877 3.00049 9.71194 3.00049 9.7051 3.00049C9.69827 3.00049 9.69145 3.00049 9.68464 3.00049C9.67782 3.00049 9.67101 3.00049 9.66422 3.00049C9.65742 3.00049 9.65062 3.00049 9.64384 3.00049C9.63706 3.00049 9.63028 3.00049 9.62351 3.00049C9.61675 3.00049 9.60999 3.00049 9.60324 3.00049C9.59648 3.00049 9.58974 3.00049 9.583 3.00049C9.57627 3.00049 9.56954 3.00049 9.56282 3.00049C9.5561 3.00049 9.54939 3.00049 9.54269 3.00049C9.53599 3.00049 9.52929 3.00049 9.52261 3.00049C9.51592 3.00049 9.50924 3.00049 9.50257 3.00049C9.4959 3.00049 9.48924 3.00049 9.48259 3.00049C9.47593 3.00049 9.46929 3.00049 9.46265 3.00049C9.45602 3.00049 9.44939 3.00049 9.44277 3.00049C9.43615 3.00049 9.42954 3.00049 9.42294 3.00049C9.41634 3.00049 9.40974 3.00049 9.40316 3.00049C9.39657 3.00049 9.39 3.00049 9.38343 3.00049C9.37686 3.00049 9.3703 3.00049 9.36375 3.00049C9.3572 3.00049 9.35066 3.00049 9.34413 3.00049C9.3376 3.00049 9.33107 3.00049 9.32456 3.00049C9.31805 3.00049 9.31154 3.00049 9.30504 3.00049C9.29855 3.00049 9.29206 3.00049 9.28558 3.00049C9.2791 3.00049 9.27263 3.00049 9.26617 3.00049C9.25971 3.00049 9.25326 3.00049 9.24682 3.00049C9.24037 3.00049 9.23394 3.00049 9.22752 3.00049C9.22109 3.00049 9.21468 3.00049 9.20827 3.00049C9.20187 3.00049 9.19547 3.00049 9.18909 3.00049C9.1827 3.00049 9.17632 3.00049 9.16995 3.00049C9.16359 3.00049 9.15723 3.00049 9.15088 3.00049C9.14453 3.00049 9.13819 3.00049 9.13186 3.00049C9.12553 3.00049 9.11921 3.00049 9.1129 3.00049C9.10659 3.00049 9.10028 3.00049 9.09399 3.00049C9.0877 3.00049 9.08142 3.00049 9.07515 3.00049C9.06887 3.00049 9.06261 3.00049 9.05636 3.00049C9.05011 3.00049 9.04386 3.00049 9.03763 3.00049C9.0314 3.00049 9.02517 3.00049 9.01896 3.00049C9.01275 3.00049 9.00654 3.00049 9.00035 3.00049V5.00049Z" fill="black"/>
<path d="M13.9974 20H6.0329C5.49368 20 4.97658 19.7859 4.59526 19.4047C4.21395 19.0235 4 18.5063 4 17.9675C4 16.9783 4 16 4 16C7.51472 16 9.48528 16 13 16V18.002C13 19.105 13.895 20 14.998 20H15.002C16.105 20 17 19.105 17 18.002V9" stroke="black" stroke-width="2" stroke-miterlimit="1.5" stroke-linecap="square"/>
<path fill-rule="evenodd" clip-rule="evenodd" d="M19 4C19.5304 4 20.0393 4.21077 20.4143 4.58585C20.7892 4.96092 21 5.46954 21 6C21 7.3923 21 9 21 9H17V6C17 5.46954 17.2108 4.96092 17.5857 4.58585C17.9607 4.21077 18.4696 4 19 4Z" stroke="black" stroke-width="2" stroke-miterlimit="1.5" stroke-linecap="round"/>
<path d="M11 8H13" stroke="black" stroke-width="2" stroke-miterlimit="1.5" stroke-linecap="square"/>
<path d="M11 12H12" stroke="black" stroke-width="2" stroke-miterlimit="1.5" stroke-linecap="square"/>
</svg>
