<svg width="24" height="24" viewBox="0 0 24 24" fill="none" xmlns="http://www.w3.org/2000/svg">
<path d="M20 12.0001H22M20 12.0001C20 10.5427 19.6103 9.17627 18.9293 7.99943M20 12.0001C20 13.4575 19.6102 14.8239 18.9293 16.0008M20 12.0001H14M18.9293 7.99943L20.6602 7.0001M18.9293 7.99943C18.2269 6.78545 17.2147 5.77317 16.0007 5.07076M18.9293 16.0008L20.6602 17.0002M18.9293 16.0008C18.2269 17.2148 17.2146 18.227 16.0006 18.9294M14 12.0001C14 13.1046 13.1045 14.0001 12 14.0001C11.6356 14.0001 11.294 13.9026 10.9998 13.7324M14 12.0001C14 10.8955 13.1045 10.0001 12 10.0001C11.6356 10.0001 11.294 10.0975 10.9998 10.2677M16.0007 5.07076C14.8238 4.38983 13.4574 4.0001 12 4.0001M16.0007 5.07076L17 3.33994M16.0006 18.9294C14.8238 19.6104 13.4574 20.0001 12 20.0001M16.0006 18.9294L17 20.6603M12 20.0001C10.5426 20.0001 9.17618 19.6104 7.99934 18.9295M12 20.0001V22M7.99934 18.9295L6.99998 20.6604M7.99934 18.9295C6.78533 18.227 5.77304 17.2147 5.07062 16.0007M7.99934 18.9295L10.9998 13.7324M5.07062 16.0007C4.3897 14.8239 3.99998 13.4575 3.99998 12.0001M5.07062 16.0007L3.33972 17.0001M10.9998 13.7324C10.4021 13.3866 9.99998 12.7403 9.99998 12.0001C9.99998 11.2599 10.4021 10.6136 10.9998 10.2677M3.99998 12.0001C3.99998 10.5427 4.38969 9.17632 5.07058 7.99949M3.99998 12.0001L2 12M5.07058 7.99949L3.33972 7.00019M5.07058 7.99949C5.773 6.78547 6.7853 5.77316 7.99931 5.07074M7.99931 5.07074C9.17615 4.38982 10.5426 4.0001 12 4.0001M7.99931 5.07074L6.99998 3.33984M7.99931 5.07074L10.9998 10.2677M12 4.0001V2" stroke="black" stroke-width="2" stroke-linecap="square"/>
</svg>
