<svg width="24" height="24" viewBox="0 0 24 24" fill="none" xmlns="http://www.w3.org/2000/svg">
<path fill-rule="evenodd" clip-rule="evenodd" d="M17 10C18.6575 10 20 8.6575 20 7C20 5.3425 18.6575 4 17 4C15.3425 4 14 5.3425 14 7C14 8.6575 15.3425 10 17 10Z" stroke="black" stroke-width="2" stroke-linecap="square"/>
<path fill-rule="evenodd" clip-rule="evenodd" d="M9 20C10.6575 20 12 18.6575 12 17C12 15.3425 10.6575 14 9 14C7.3425 14 6 15.3425 6 17C6 18.6575 7.3425 20 9 20Z" stroke="black" stroke-width="2" stroke-linecap="square"/>
<path d="M13.5 7H4" stroke="black" stroke-width="2" stroke-linecap="square"/>
<path d="M5.5 17H4" stroke="black" stroke-width="2" stroke-linecap="square"/>
<path d="M20 17H12.5" stroke="black" stroke-width="2" stroke-linecap="square"/>
</svg>
