<svg width="24" height="24" viewBox="0 0 24 24" fill="none" xmlns="http://www.w3.org/2000/svg">
<path d="M16.0462 12.9564L19.5453 9.48869C20.1069 8.93212 21.0174 8.93212 21.579 9.48869C22.1301 10.0348 22.1428 10.9148 21.6014 11.4704C20.369 12.7353 18.2012 14.9296 16.5479 16.4373C15.7251 17.1878 14.7212 18.0496 13.75 18.8638C11.6916 20.5894 8.62844 20.3106 6.86268 18.2914L4.63018 15.7386C3.89886 14.9023 3.46991 13.8482 3.41122 12.7431L3 5H3.55233C4.74211 5 5.82029 5.6944 6.3035 6.77188L7.51598 9.47548L9.0213 7.98366M9.0213 7.98366L10.025 6.98901C10.5792 6.43974 11.4779 6.43974 12.0321 6.98901C12.5864 7.53829 12.5864 8.42884 12.0321 8.97811L11.0286 9.97267C10.4743 10.5219 9.5757 10.5219 9.02145 9.97267C8.46721 9.42339 8.46706 8.53293 9.0213 7.98366ZM13.5374 11.4645L14.541 10.4699C15.0952 9.92067 15.0952 9.03011 14.541 8.48084C13.9867 7.93156 13.0881 7.93156 12.5339 8.48084L11.5303 9.47539C10.9761 10.0247 10.9761 10.9152 11.5303 11.4645C12.0846 12.0138 12.9832 12.0138 13.5374 11.4645ZM13.5374 11.4645L15.0428 9.97267C15.597 9.42339 16.4956 9.42339 17.0499 9.97267C17.6041 10.5219 17.6041 11.4125 17.0499 11.9618L15.5445 13.4536C14.9903 14.0029 14.0917 14.0029 13.5374 13.4536C12.9832 12.9043 12.9832 12.0138 13.5374 11.4645Z" stroke="black" stroke-width="2" stroke-linecap="square"/>
</svg>
