<svg width="24" height="24" viewBox="0 0 24 24" fill="none" xmlns="http://www.w3.org/2000/svg">
<path d="M7.00027 11.7L5.78331 5.14717C5.65983 4.48227 5.07975 4 4.40349 4C3.59051 4 2.94761 4.68861 3.00337 5.49968L3.61606 14.4115C3.83239 17.5581 6.44794 20 9.60193 20H11.5003C13.7036 20 15.7783 18.9626 17.1003 17.2L21.0003 12L20.7393 11.7391C19.7281 10.7279 18.1438 10.571 16.9539 11.3642L16.0003 12M10.0003 11.5V8.5C10.0003 7.67157 9.3287 7 8.50027 7C7.67184 7 7.00027 7.67157 7.00027 8.5V11.5C7.00027 12.3284 7.67184 13 8.50027 13C9.3287 13 10.0003 12.3284 10.0003 11.5ZM10.0003 11.5V9C10.0003 8.17157 10.6718 7.5 11.5003 7.5C12.3287 7.5 13.0003 8.17157 13.0003 9V11.5M10.0003 11.5C10.0003 12.3284 10.6718 13 11.5003 13C12.3287 13 13.0003 12.3284 13.0003 11.5M13.0003 11.5V9.5C13.0003 8.67157 13.6718 8 14.5003 8C15.3287 8 16.0003 8.67157 16.0003 9.5V11.5C16.0003 12.3284 15.3287 13 14.5003 13C13.6718 13 13.0003 12.3284 13.0003 11.5Z" stroke="black" stroke-width="2"/>
</svg>
