<svg width="24" height="24" viewBox="0 0 24 24" fill="none" xmlns="http://www.w3.org/2000/svg">
<path d="M4 14H10V20H4V14Z" stroke="black" stroke-width="2" stroke-linecap="square"/>
<path d="M14 7C14 5.34315 15.3431 4 17 4C18.6569 4 20 5.34315 20 7C20 8.65685 18.6569 10 17 10C15.3431 10 14 8.65685 14 7Z" stroke="black" stroke-width="2" stroke-linecap="square"/>
<path d="M7 4V7M7 7V10M7 7H4M7 7H10" stroke="black" stroke-width="2" stroke-linecap="square"/>
<path d="M19.1211 14.8784L16.9997 16.9997M16.9997 16.9997L14.8784 19.1211M16.9997 16.9997L14.8784 14.8784M16.9997 16.9997L19.1211 19.1211" stroke="black" stroke-width="2" stroke-linecap="square"/>
</svg>
