<svg width="24" height="24" viewBox="0 0 24 24" fill="none" xmlns="http://www.w3.org/2000/svg">
<path d="M8.66455 13.3799L14.3354 16.6204" stroke="black" stroke-width="2"/>
<path d="M9 12C9 12.4975 8.8789 12.9667 8.66458 13.3798C8.16512 14.3424 7.15936 15 6 15C4.34315 15 3 13.6569 3 12C3 10.3431 4.34315 9 6 9C7.15936 9 8.16512 9.65765 8.66458 10.6202C8.8789 11.0333 9 11.5025 9 12Z" stroke="black" stroke-width="2"/>
<path d="M20 6C20 7.65685 18.6569 9 17 9C15.8406 9 14.8349 8.34235 14.3354 7.37976C14.1211 6.9667 14 6.49749 14 6C14 4.34315 15.3431 3 17 3C18.6569 3 20 4.34315 20 6Z" stroke="black" stroke-width="2"/>
<path d="M20 18C20 19.6569 18.6569 21 17 21C15.3431 21 14 19.6569 14 18C14 17.5025 14.1211 17.0333 14.3354 16.6202C14.8349 15.6576 15.8406 15 17 15C18.6569 15 20 16.3431 20 18Z" stroke="black" stroke-width="2"/>
<path d="M14.3354 7.37988L8.66455 10.6204" stroke="black" stroke-width="2"/>
</svg>
