<svg width="24" height="24" viewBox="0 0 24 24" fill="none" xmlns="http://www.w3.org/2000/svg">
<path d="M6.49996 8V7H5.64204L5.51159 7.84794L6.49996 8ZM17.5 8L18.4884 7.84794L18.3579 7H17.5V8ZM4.49996 21L3.51159 20.8479L3.33435 22H4.49996V21ZM8.99996 22H9.99996V20H8.99996V22ZM16.8193 10.1521L16.9714 11.1404L18.9481 10.8363L18.7961 9.84794L16.8193 10.1521ZM14 8V9H16V8H14ZM7.99996 8V9H9.99996V8H7.99996ZM6.49996 9H17.5V7H6.49996V9ZM5.48833 21.1521L7.48833 8.15206L5.51159 7.84794L3.51159 20.8479L5.48833 21.1521ZM8.99996 20H4.49996V22H8.99996V20ZM16.5116 8.15206L16.8193 10.1521L18.7961 9.84794L18.4884 7.84794L16.5116 8.15206ZM14 6V8H16V6H14ZM9.99996 8V6H7.99996V8H9.99996ZM12 4C13.1046 4 14 4.89543 14 6H16C16 3.79086 14.2091 2 12 2V4ZM12 2C9.79082 2 7.99996 3.79086 7.99996 6H9.99996C9.99996 4.89543 10.8954 4 12 4V2ZM20.5355 20.1213L14.8787 14.4645L13.4645 15.8787L19.1213 21.5355L20.5355 20.1213ZM14.8787 15.8787C15.4823 15.275 16.2773 14.9825 17.07 15.0008L17.1163 13.0013C15.8 12.9709 14.4703 13.4586 13.4645 14.4645L14.8787 15.8787ZM17.07 15.0008C17.8156 15.0181 18.553 15.3104 19.1213 15.8787L20.5355 14.4645C19.5891 13.5181 18.3555 13.03 17.1163 13.0013L17.07 15.0008ZM14.8787 20.1213C14.3104 19.553 14.0181 18.8157 14.0008 18.0701L12.0013 18.1164C12.0301 19.3556 12.5181 20.5892 13.4645 21.5355L14.8787 20.1213ZM14.0008 18.0701C13.9824 17.2774 14.275 16.4823 14.8787 15.8787L13.4645 14.4645C12.4586 15.4703 11.9708 16.8001 12.0013 18.1164L14.0008 18.0701ZM19.1213 15.8787C19.725 16.4823 20.0176 17.2774 19.9992 18.0701L21.9986 18.1164C22.0292 16.8001 21.5414 15.4703 20.5355 14.4645L19.1213 15.8787ZM19.9992 18.0701C19.9819 18.8157 19.6896 19.553 19.1213 20.1213L20.5355 21.5355C21.4819 20.5892 21.9699 19.3556 21.9986 18.1164L19.9992 18.0701ZM19.1213 20.1213C18.553 20.6896 17.8156 20.9819 17.07 20.9992L17.1163 22.9987C18.3555 22.97 19.5891 22.4819 20.5355 21.5355L19.1213 20.1213ZM17.07 20.9992C16.2773 21.0175 15.4823 20.725 14.8787 20.1213L13.4645 21.5355C14.4703 22.5414 15.8 23.0291 17.1163 22.9987L17.07 20.9992Z" fill="black"/>
</svg>
