<svg width="24" height="24" viewBox="0 0 24 24" fill="none" xmlns="http://www.w3.org/2000/svg">
<path d="M12 11C12.8284 11 13.5 10.3284 13.5 9.5C13.5 8.67157 12.8284 8 12 8C11.1716 8 10.5 8.67157 10.5 9.5C10.5 10.3284 11.1716 11 12 11Z" stroke="black" stroke-width="2"/>
<path d="M8 21L11.75 10H12.25L16 21" stroke="black" stroke-width="2" stroke-linecap="square"/>
<path d="M9.5 18H14.5" stroke="black" stroke-width="2" stroke-linecap="square"/>
<path d="M7.75693 13.0001C6.08102 10.9734 6.08103 8.02679 7.75693 6M16.2431 6C17.919 8.02679 17.919 10.9734 16.2431 13.0001" stroke="black" stroke-width="2" stroke-linecap="square" stroke-linejoin="round"/>
<path d="M5.06494 3.0074C1.64285 6.65823 1.64502 12.3518 5.07145 16M18.9281 3C22.3572 6.65053 22.3573 12.3493 18.9285 16" stroke="black" stroke-width="2" stroke-linecap="square" stroke-linejoin="round"/>
</svg>
