<svg width="24" height="24" viewBox="0 0 24 24" fill="none" xmlns="http://www.w3.org/2000/svg">
<path d="M6.36124 14.5771C6.36124 15.7105 5.44596 16.6265 4.31349 16.6265C3.18103 16.6265 2.26575 15.7105 2.26575 14.5771C2.26575 13.4438 3.18103 12.5278 4.31349 12.5278H6.36124V14.5771ZM7.38511 14.5771C7.38511 13.4438 8.30039 12.5278 9.43285 12.5278C10.5653 12.5278 11.4806 13.4438 11.4806 14.5771V19.7005C11.4806 20.8339 10.5653 21.7499 9.43285 21.7499C8.30039 21.7499 7.38511 20.8339 7.38511 19.7005V14.5771Z" fill="black"/>
<path d="M9.43262 6.34872C8.30016 6.34872 7.38488 5.43272 7.38488 4.29936C7.38488 3.166 8.30016 2.25 9.43262 2.25C10.5651 2.25 11.4804 3.166 11.4804 4.29936V6.34872H9.43262ZM9.43262 7.38893C10.5651 7.38893 11.4804 8.30493 11.4804 9.43829C11.4804 10.5717 10.5651 11.4877 9.43262 11.4877H4.29775C3.16528 11.4877 2.25 10.5717 2.25 9.43829C2.25 8.30493 3.16528 7.38893 4.29775 7.38893H9.43262Z" fill="black"/>
<path d="M17.6391 9.43829C17.6391 8.30493 18.5544 7.38893 19.6868 7.38893C20.8193 7.38893 21.7346 8.30493 21.7346 9.43829C21.7346 10.5717 20.8193 11.4877 19.6868 11.4877H17.6391V9.43829ZM16.6152 9.43829C16.6152 10.5717 15.6999 11.4877 14.5675 11.4877C13.435 11.4877 12.5197 10.5717 12.5197 9.43829V4.29936C12.5197 3.166 13.435 2.25 14.5675 2.25C15.6999 2.25 16.6152 3.166 16.6152 4.29936V9.43829Z" fill="black"/>
<path d="M14.5675 17.6512C15.6999 17.6512 16.6152 18.5672 16.6152 19.7005C16.6152 20.8339 15.6999 21.7499 14.5675 21.7499C13.435 21.7499 12.5197 20.8339 12.5197 19.7005V17.6512H14.5675ZM14.5675 16.6265C13.435 16.6265 12.5197 15.7105 12.5197 14.5771C12.5197 13.4438 13.435 12.5278 14.5675 12.5278H19.7024C20.8348 12.5278 21.7501 13.4438 21.7501 14.5771C21.7501 15.7105 20.8348 16.6265 19.7024 16.6265H14.5675Z" fill="black"/>
</svg>
