<svg width="24" height="24" viewBox="0 0 24 24" fill="none" xmlns="http://www.w3.org/2000/svg">
<path d="M8 2V1H7.10496L7.00612 1.88957L8 2ZM16 2L16.9939 1.88957L16.895 1H16V2ZM13 9V8H11V9H13ZM12 12H11V12.4142L11.2929 12.7071L12 12ZM12.7929 14.2071L13.5 14.9142L14.9142 13.5L14.2071 12.7929L12.7929 14.2071ZM8 22L7.00612 22.1104L7.10496 23H8V22ZM16 22V23H16.895L16.9939 22.1104L16 22ZM8.49388 6.61043L8.99388 2.11043L7.00612 1.88957L6.50612 6.38957L8.49388 6.61043ZM8 3H16V1H8V3ZM15.0061 2.11043L15.5061 6.61043L17.4939 6.38957L16.9939 1.88957L15.0061 2.11043ZM18 12C18 15.3137 15.3137 18 12 18V20C16.4183 20 20 16.4183 20 12H18ZM12 18C8.68629 18 6 15.3137 6 12H4C4 16.4183 7.58172 20 12 20V18ZM12 6C13.0564 6 14.0462 6.27215 14.9063 6.7494L15.8767 5.0006C14.7273 4.36282 13.4045 4 12 4V6ZM14.9063 6.7494C16.7535 7.77438 18 9.74231 18 12H20C20 8.98665 18.3335 6.36389 15.8767 5.0006L14.9063 6.7494ZM6 12C6 9.74231 7.24655 7.77438 9.0937 6.7494L8.12329 5.0006C5.66646 6.36389 4 8.98665 4 12H6ZM9.0937 6.7494C9.95377 6.27215 10.9436 6 12 6V4C10.5955 4 9.27266 4.36282 8.12329 5.0006L9.0937 6.7494ZM11 9V12H13V9H11ZM11.2929 12.7071L12.7929 14.2071L14.2071 12.7929L12.7071 11.2929L11.2929 12.7071ZM6.50612 17.6104L7.00612 22.1104L8.99388 21.8896L8.49388 17.3896L6.50612 17.6104ZM8 23H16V21H8V23ZM16.9939 22.1104L17.4939 17.6104L15.5061 17.3896L15.0061 21.8896L16.9939 22.1104Z" fill="black"/>
</svg>
