<svg width="24" height="24" viewBox="0 0 24 24" fill="none" xmlns="http://www.w3.org/2000/svg">
<path d="M11.9974 5.5V18.5M11.9974 5.5L9.49735 3M11.9974 5.5L14.4974 3M11.9974 18.5L9.49735 21M11.9974 18.5L14.4974 21M6.36819 8.75L17.6265 15.25M6.36819 8.75L2.95312 9.66506M6.36819 8.75L5.45313 5.33494M17.6265 15.25L18.5416 18.6651M17.6265 15.25L21.0416 14.3349M6.36946 15.25L17.6278 8.74998M6.36946 15.25L5.45439 18.665M6.36946 15.25L2.95439 14.3349M17.6278 8.74998L21.0428 9.66504M17.6278 8.74998L18.5428 5.33491" stroke="black" stroke-width="2" stroke-linecap="square"/>
</svg>
