<svg width="24" height="24" viewBox="0 0 24 24" fill="none" xmlns="http://www.w3.org/2000/svg">
<path d="M5.29168 18C6.93964 16.1588 9.3345 15 12 15C14.6655 15 17.0604 16.1588 18.7083 18M5.29168 18C6.93964 19.8412 9.3345 21 12 21C14.6655 21 17.0604 19.8412 18.7083 18M5.29168 18C3.86656 16.4077 3 14.3051 3 12C3 7.02944 7.02944 3 12 3C16.9706 3 21 7.02944 21 12C21 14.3051 20.1334 16.4077 18.7083 18" stroke="black" stroke-width="2"/>
<path d="M8.5 9L10.8333 7.83333L12 5.5L13.1667 7.83333L15.5 9L13.1667 10.1667L12 12.5L10.8333 10.1667L8.5 9Z" fill="black"/>
</svg>
