<svg width="24" height="24" viewBox="0 0 24 24" fill="none" xmlns="http://www.w3.org/2000/svg">
<path d="M4 11V20H10V15H14V20H20V11" stroke="black" stroke-width="2" stroke-linecap="square"/>
<path d="M14.4996 4H9.49956L9.2133 8.00762C9.0978 9.62461 10.3785 11 11.9996 11C13.6207 11 14.9013 9.62461 14.7858 8.00763L14.4996 4Z" stroke="black" stroke-width="2"/>
<path d="M9.50047 4H4.00047L3.4699 7.71396C3.22214 9.44831 4.56792 11 6.31987 11C7.83025 11 9.08385 9.83276 9.19146 8.32621L9.50047 4Z" stroke="black" stroke-width="2"/>
<path d="M20 4H14.5L14.809 8.32621C14.9166 9.83276 16.1702 11 17.6806 11C19.4326 11 20.7783 9.44831 20.5306 7.71396L20 4Z" stroke="black" stroke-width="2"/>
</svg>
