<svg width="24" height="24" viewBox="0 0 24 24" fill="none" xmlns="http://www.w3.org/2000/svg">
<path d="M4 11.5V20H20V11.5" stroke="black" stroke-width="2" stroke-linecap="square"/>
<path d="M7.49969 8.75C7.49969 10.0561 6.44091 11 5.13484 11C3.56369 11 2.42935 9.49618 2.86098 7.98548L3.99969 4H19.9997L21.1384 7.98548C21.57 9.49618 20.4357 11 18.8645 11C17.5585 11 16.4997 10.0561 16.4997 8.75M7.49969 8.75C7.49969 9.99264 8.50705 11 9.74969 11C10.9923 11 11.9997 9.99264 11.9997 8.75M7.49969 8.75L7.49976 8.74M16.4997 8.75C16.4997 9.99264 15.4923 11 14.2497 11C13.0071 11 11.9997 9.99264 11.9997 8.75M16.4997 8.75V8.74M11.9997 8.75V8.74" stroke="black" stroke-width="2" stroke-linecap="square"/>
</svg>
