<svg width="24" height="24" viewBox="0 0 24 24" fill="none" xmlns="http://www.w3.org/2000/svg">
<path d="M11.9988 2L14.471 4.39155L17.8767 3.90983L18.471 7.29772L21.5094 8.90983L19.9988 12L21.5094 15.0902L18.471 16.7023L17.8767 20.0902L14.471 19.6085L11.9988 22L9.52671 19.6085L6.12099 20.0902L5.52671 16.7023L2.48828 15.0902L3.99885 12L2.48828 8.90983L5.52671 7.29772L6.12099 3.90983L9.52671 4.39155L11.9988 2Z" stroke="black" stroke-width="2"/>
<path d="M11.9982 9.25L12.8064 10.8876L14.6136 11.1502L13.3059 12.4249L13.6146 14.2248L11.9982 13.375L10.3818 14.2248L10.6905 12.4249L9.38281 11.1502L11.19 10.8876L11.9982 9.25Z" stroke="black" stroke-width="2"/>
<path d="M11 12H13.0018" stroke="black" stroke-width="2"/>
</svg>
