<svg width="24" height="24" viewBox="0 0 24 24" fill="none" xmlns="http://www.w3.org/2000/svg">
<path d="M17 20.0006H16V21.0006H17V20.0006ZM21 21.0006H22V19.0006H21V21.0006ZM17 21.0006H21V19.0006H17V21.0006ZM19.0052 14C19.5643 14 20 14.3737 20 15.0497H22C22 13.2555 20.6552 12 19.0052 12V14ZM20 15.0497C20 15.2967 19.9103 15.5006 19.6654 15.7473C19.3862 16.0284 18.9949 16.2776 18.4641 16.6145C17.5669 17.1839 16 18.117 16 20.0006H18C18 19.3836 18.4331 19.003 19.5359 18.303C20.0051 18.0052 20.6138 17.6307 21.0846 17.1564C21.5897 16.6477 22 15.9645 22 15.0497H20ZM18.0108 15.0806C18.0674 14.3802 18.4791 14 19.0052 14V12C17.164 12 16.134 13.4767 16.0173 14.9194L18.0108 15.0806Z" fill="black"/>
<path d="M3 6L13 18M13 6L3 18" stroke="black" stroke-width="2" stroke-linecap="square"/>
</svg>
