<svg width="24" height="24" viewBox="0 0 24 24" fill="none" xmlns="http://www.w3.org/2000/svg">
<path d="M6 10H4.5C3.67157 10 3 10.6716 3 11.5V15C3 15.8284 3.67157 16.5 4.5 16.5H6V10Z" stroke="black" stroke-width="2" stroke-linecap="square"/>
<path d="M20 10H18.5V16.5H20C20.8284 16.5 21.5 15.8284 21.5 15V11.5C21.5 10.6716 20.8284 10 20 10Z" stroke="black" stroke-width="2" stroke-linecap="square"/>
<path d="M19.5 10V9.75C19.5 6.02208 16.2541 3 12.25 3C8.24594 3 5 6.02208 5 9.75V10" stroke="black" stroke-width="2" stroke-linecap="square"/>
<path d="M12 19V21H15.25C17.7353 21 19.75 18.9853 19.75 16.5" stroke="black" stroke-width="2" stroke-linecap="square"/>
</svg>
