<svg width="24" height="24" viewBox="0 0 24 24" fill="none" xmlns="http://www.w3.org/2000/svg">
<path d="M9 17.5C9 18.8807 7.88071 20 6.5 20C5.11929 20 4 18.8807 4 17.5C4 16.1193 5.11929 15 6.5 15C7.88071 15 9 16.1193 9 17.5Z" stroke="black" stroke-width="2" stroke-linecap="square"/>
<path d="M4 6L6 8M6 8L8 10M6 8L8 6M6 8L4 10" stroke="black" stroke-width="2" stroke-linecap="square"/>
<path d="M16 16L18 18M18 18L20 20M18 18L20 16M18 18L16 20" stroke="black" stroke-width="2" stroke-linecap="square"/>
<path d="M14 7L16 4L19 6.00001" stroke="black" stroke-width="2" stroke-linecap="square"/>
<path d="M16.25 5.5C18 10 13.5 12.5 12 13.5" stroke="black" stroke-width="2" stroke-linecap="square"/>
</svg>
