<svg width="24" height="24" viewBox="0 0 24 24" fill="none" xmlns="http://www.w3.org/2000/svg">
<path d="M2 5V4H1V5H2ZM22 5H23V4H22V5ZM22 19V20H23V19H22ZM2 19H1V20H2V19ZM8.5 13C7.94772 13 7.5 13.4477 7.5 14C7.5 14.5523 7.94772 15 8.5 15V13ZM15.5 15C16.0523 15 16.5 14.5523 16.5 14C16.5 13.4477 16.0523 13 15.5 13V15ZM2 6H22V4H2V6ZM21 5V19H23V5H21ZM22 18H2V20H22V18ZM3 19V5H1V19H3ZM9.20711 11.2929C9.59763 11.6834 9.59764 12.3166 9.20711 12.7071L10.6213 14.1213C11.7929 12.9497 11.7929 11.0503 10.6213 9.87868L9.20711 11.2929ZM9.20711 12.7071C8.81659 13.0976 8.18342 13.0976 7.79289 12.7071L6.37868 14.1213C7.55025 15.2929 9.44975 15.2929 10.6213 14.1213L9.20711 12.7071ZM7.79289 12.7071C7.40237 12.3166 7.40237 11.6834 7.79289 11.2929L6.37868 9.87868C5.20711 11.0503 5.20711 12.9498 6.37868 14.1213L7.79289 12.7071ZM7.79289 11.2929C8.18342 10.9024 8.81658 10.9024 9.20711 11.2929L10.6213 9.87868C9.44975 8.70711 7.55025 8.70711 6.37868 9.87868L7.79289 11.2929ZM16.2071 11.2929C16.5976 11.6834 16.5976 12.3166 16.2071 12.7071L17.6213 14.1213C18.7929 12.9497 18.7929 11.0503 17.6213 9.87868L16.2071 11.2929ZM16.2071 12.7071C15.8166 13.0976 15.1834 13.0976 14.7929 12.7071L13.3787 14.1213C14.5503 15.2929 16.4497 15.2929 17.6213 14.1213L16.2071 12.7071ZM14.7929 12.7071C14.4024 12.3166 14.4024 11.6834 14.7929 11.2929L13.3787 9.87868C12.2071 11.0503 12.2071 12.9498 13.3787 14.1213L14.7929 12.7071ZM14.7929 11.2929C15.1834 10.9024 15.8166 10.9024 16.2071 11.2929L17.6213 9.87868C16.4497 8.70711 14.5503 8.70711 13.3787 9.87868L14.7929 11.2929ZM8.5 15H15.5V13H8.5V15Z" fill="black"/>
</svg>
