<svg width="24" height="24" viewBox="0 0 24 24" fill="none" xmlns="http://www.w3.org/2000/svg">
<path d="M6.13187 10.332L2.3731 11.7001C1.85412 11.889 1.58653 12.4628 1.77542 12.9818L2.45946 14.8612C2.64836 15.3802 3.2222 15.6478 3.74118 15.4589L7.49995 14.0908" stroke="black" stroke-width="2"/>
<path d="M11.4269 7.33936L7.19832 8.87845C6.41985 9.16178 6.01847 10.0225 6.30181 10.801L7.32787 13.6201C7.61121 14.3986 8.47197 14.7999 9.25044 14.5166L13.4791 12.9775" stroke="black" stroke-width="2"/>
<path d="M12.9649 5.71592L19.5428 3.32178L22.279 10.8393L15.7011 13.2335C14.6631 13.6112 13.5155 13.0761 13.1377 12.0381L11.7696 8.27934C11.3918 7.24139 11.927 6.0937 12.9649 5.71592Z" stroke="black" stroke-width="2" stroke-linecap="round"/>
<path d="M11 20V14" stroke="black" stroke-width="2"/>
<path d="M7 20H15" stroke="black" stroke-width="2"/>
</svg>
