<svg width="24" height="24" viewBox="0 0 24 24" fill="none" xmlns="http://www.w3.org/2000/svg">
<path d="M4 7V19H13" stroke="black" stroke-width="2" stroke-linecap="square"/>
<path d="M20 17V5H11" stroke="black" stroke-width="2" stroke-linecap="square"/>
<path d="M4 7C5.10457 7 6 6.10457 6 5C6 3.89543 5.10457 3 4 3C2.89543 3 2 3.89543 2 5C2 6.10457 2.89543 7 4 7Z" stroke="black" stroke-width="2"/>
<path d="M20 21C21.1046 21 22 20.1046 22 19C22 17.8954 21.1046 17 20 17C18.8954 17 18 17.8954 18 19C18 20.1046 18.8954 21 20 21Z" stroke="black" stroke-width="2"/>
<path d="M9 10H15" stroke="black" stroke-width="2" stroke-linecap="square"/>
<path d="M9 14H13" stroke="black" stroke-width="2" stroke-linecap="square"/>
</svg>
