<svg width="24" height="24" viewBox="0 0 24 24" fill="none" xmlns="http://www.w3.org/2000/svg">
<path d="M10.5066 4.90137C10.0458 4.74311 9.55164 4.65723 9.0375 4.65723C6.53151 4.65723 4.5 6.69753 4.5 9.21437C4.5 10.8145 5.32119 12.2221 6.56341 13.0351C6.61232 15.5094 8.62469 17.5 11.1 17.5C12.4358 17.5 13.6368 16.9203 14.4672 15.9976C14.9642 16.166 15.4966 16.2573 16.0501 16.2573C18.784 16.2573 21.0001 14.0315 21.0001 11.2858C21.0001 9.80565 20.356 8.47654 19.334 7.56581C19.1285 5.00988 16.998 3 14.4002 3C12.8201 3 11.4128 3.74359 10.5066 4.90137Z" stroke="black" stroke-width="2"/>
<path d="M6 20C6 21.1046 5.10457 22 4 22C2.89543 22 2 21.1046 2 20C2 18.8954 2.89543 18 4 18C5.10457 18 6 18.8954 6 20Z" stroke="black" stroke-width="2"/>
</svg>
