<svg width="24" height="24" viewBox="0 0 24 24" fill="none" xmlns="http://www.w3.org/2000/svg">
<path d="M10.5475 20.9434L11.0012 21.0001C11.9658 18.6913 13.4072 16.6967 15.108 14.9026C15.6664 14.3135 16.0012 13.542 16.0012 12.7303V6.27495C16.0012 5.49733 15.5542 4.77864 14.8235 4.51256C12.3439 3.60964 9.75014 3.41649 7.12803 3.64372C5.52677 3.78249 4.27198 5.01907 3.91916 6.58713L3.07441 10.3416C2.6524 12.2172 4.07875 14.0002 6.00124 14.0002H9.00125L8.05227 17.0843C7.50387 18.8666 8.69714 20.7121 10.5475 20.9434Z" stroke="black" stroke-width="2"/>
<path d="M21 14H16V4H21V14Z" stroke="black" stroke-width="2"/>
</svg>
