<svg width="24" height="24" viewBox="0 0 24 24" fill="none" xmlns="http://www.w3.org/2000/svg">
<path d="M17.5 9C17.5 5.68629 14.8137 3 11.5 3C8.18629 3 5.5 5.68629 5.5 9C5.5 9.70127 5.62031 10.3744 5.84141 11M13 12V9C13 8.17157 12.3284 7.5 11.5 7.5C10.6716 7.5 10 8.17157 10 9V13.5L9.94413 13.4721C8.89757 12.9488 7.6273 13.4317 7.19275 14.5181L7 15L9.81253 19.2188C10.5544 20.3316 11.8033 21 13.1407 21H14C16.7614 21 19 18.7614 19 16V15C19 13.3431 17.6569 12 16 12H13Z" stroke="black" stroke-width="2"/>
</svg>
