<svg width="24" height="24" viewBox="0 0 24 24" fill="none" xmlns="http://www.w3.org/2000/svg">
<path d="M7 3H17L20 5.5V17H4V5.5L7 3Z" stroke="black" stroke-width="2"/>
<path d="M6.88281 17L4.38281 22H6.61888L8.8953 17.4472L8.00098 17H6.88281Z" fill="black"/>
<path d="M16.0008 17L15.1064 17.4472L17.3829 22H19.6189L17.1189 17H16.0008Z" fill="black"/>
<path d="M5 11H19" stroke="black" stroke-width="2"/>
<path d="M8 15C8.55228 15 9 14.5523 9 14C9 13.4477 8.55228 13 8 13C7.44772 13 7 13.4477 7 14C7 14.5523 7.44772 15 8 15Z" fill="black"/>
<path d="M16 15C16.5523 15 17 14.5523 17 14C17 13.4477 16.5523 13 16 13C15.4477 13 15 13.4477 15 14C15 14.5523 15.4477 15 16 15Z" fill="black"/>
</svg>
