<svg width="24" height="24" viewBox="0 0 24 24" fill="none" xmlns="http://www.w3.org/2000/svg">
<path d="M6.00002 21L5.00239 21.0688L5.06661 22H6.00002V21ZM18 21V22H18.9334L18.9976 21.0688L18 21ZM19.9976 6.56879L20.0664 5.57116L18.0712 5.43356L18.0024 6.43119L19.9976 6.56879ZM6.00002 21V22H18V21V20H6.00002V21ZM18 21L18.9976 21.0688L19.9976 6.56879L19 6.49999L18.0024 6.43119L17.0024 20.9312L18 21ZM5.0345 6.99999L4.03687 7.06879L5.00239 21.0688L6.00002 21L6.99765 20.9312L6.03214 6.93119L5.0345 6.99999Z" fill="black"/>
<path d="M3.89209 3.44727L20.6338 6.39928" stroke="black" stroke-width="2" stroke-linecap="square"/>
<path d="M8.43774 3.99085C9.10597 2.23139 10.949 1.13737 12.8709 1.47623C14.7927 1.8151 16.1504 3.47351 16.1765 5.35541" stroke="black" stroke-width="2" stroke-linecap="square"/>
<path d="M12 17V11" stroke="black" stroke-width="2"/>
<path d="M9 13L12 10L15 13" stroke="black" stroke-width="2"/>
</svg>
