<svg width="24" height="24" viewBox="0 0 24 24" fill="none" xmlns="http://www.w3.org/2000/svg">
<path d="M21 5H3V15H21V5Z" stroke="black" stroke-width="2"/>
<path d="M3 19H21" stroke="black" stroke-width="2" stroke-linecap="square"/>
<path d="M3.5 12L7.5 9L14.5 14.5" stroke="black" stroke-width="2" stroke-linecap="square"/>
<path d="M16.5 9.5H16.51M17 9.5C17 9.77614 16.7761 10 16.5 10C16.2239 10 16 9.77614 16 9.5C16 9.22386 16.2239 9 16.5 9C16.7761 9 17 9.22386 17 9.5Z" stroke="black" stroke-width="2" stroke-linecap="round"/>
<path d="M7 20C7.55228 20 8 19.5523 8 19C8 18.4477 7.55228 18 7 18C6.44772 18 6 18.4477 6 19C6 19.5523 6.44772 20 7 20Z" stroke="black" stroke-width="2"/>
</svg>
