<svg width="24" height="24" viewBox="0 0 24 24" fill="none" xmlns="http://www.w3.org/2000/svg">
<path d="M21 12C21 16.9706 16.9706 21 12 21C7.02944 21 3 16.9706 3 12C3 7.02944 7.02944 3 12 3C16.9706 3 21 7.02944 21 12Z" stroke="black" stroke-width="2"/>
<path d="M13 7.5C13 8.05228 12.5523 8.5 12 8.5C11.4477 8.5 11 8.05228 11 7.5C11 6.94772 11.4477 6.5 12 6.5C12.5523 6.5 13 6.94772 13 7.5Z" fill="black"/>
<path d="M17.5 12C17.5 12.5523 17.0523 13 16.5 13C15.9477 13 15.5 12.5523 15.5 12C15.5 11.4477 15.9477 11 16.5 11C17.0523 11 17.5 11.4477 17.5 12Z" fill="black"/>
<path d="M8.5 12C8.5 12.5523 8.05228 13 7.5 13C6.94772 13 6.5 12.5523 6.5 12C6.5 11.4477 6.94772 11 7.5 11C8.05228 11 8.5 11.4477 8.5 12Z" fill="black"/>
<path d="M13 16.5C13 17.0523 12.5523 17.5 12 17.5C11.4477 17.5 11 17.0523 11 16.5C11 15.9477 11.4477 15.5 12 15.5C12.5523 15.5 13 15.9477 13 16.5Z" fill="black"/>
<path d="M9.5251 8.11101C9.91562 8.50154 9.91562 9.1347 9.5251 9.52523C9.13457 9.91575 8.50141 9.91575 8.11088 9.52523C7.72036 9.1347 7.72036 8.50154 8.11088 8.11101C8.50141 7.72049 9.13457 7.72049 9.5251 8.11101Z" fill="black"/>
<path d="M15.8892 8.11101C16.2797 8.50154 16.2797 9.1347 15.8892 9.52523C15.4987 9.91575 14.8655 9.91575 14.475 9.52523C14.0844 9.1347 14.0844 8.50154 14.475 8.11101C14.8655 7.72049 15.4987 7.72049 15.8892 8.11101Z" fill="black"/>
<path d="M9.5251 14.4748C9.91562 14.8653 9.91562 15.4985 9.5251 15.889C9.13457 16.2795 8.50141 16.2795 8.11088 15.889C7.72036 15.4985 7.72036 14.8653 8.11088 14.4748C8.50141 14.0842 9.13457 14.0842 9.5251 14.4748Z" fill="black"/>
<path d="M15.8892 14.4748C16.2797 14.8653 16.2797 15.4985 15.8892 15.889C15.4987 16.2795 14.8655 16.2795 14.475 15.889C14.0844 15.4985 14.0844 14.8653 14.475 14.4748C14.8655 14.0842 15.4987 14.0842 15.8892 14.4748Z" fill="black"/>
</svg>
