<svg width="24" height="24" viewBox="0 0 24 24" fill="none" xmlns="http://www.w3.org/2000/svg">
<path d="M4.11701 7.6523C2.22837 11.073 2.73471 15.4624 5.63604 18.3637C8.53736 21.265 12.9267 21.7714 16.3475 19.8827M7.65254 4.11676C11.0733 2.22813 15.4626 2.73447 18.364 5.63579C21.2653 8.53712 21.7716 12.9265 19.883 16.3472" stroke="black" stroke-width="2" stroke-linecap="square"/>
<path d="M7 12C10.0146 7.33333 13.9854 7.33333 17 12C13.9854 16.6667 10.0146 16.6667 7 12Z" stroke="black" stroke-width="2"/>
<path d="M12 12H12.01M12.25 12C12.25 12.1381 12.1381 12.25 12 12.25C11.8619 12.25 11.75 12.1381 11.75 12C11.75 11.8619 11.8619 11.75 12 11.75C12.1381 11.75 12.25 11.8619 12.25 12Z" stroke="black" stroke-width="2" stroke-linecap="round"/>
</svg>
