<svg width="24" height="24" viewBox="0 0 24 24" fill="none" xmlns="http://www.w3.org/2000/svg">
<path d="M16.5 20C18.9853 20 21 17.9853 21 15.5C21 13.0147 18.9853 11 16.5 11C14.0147 11 12 13.0147 12 15.5C12 17.9853 14.0147 20 16.5 20Z" stroke="black" stroke-width="2"/>
<path d="M16.5 18C17.8807 18 19 16.8807 19 15.5C19 14.1193 17.8807 13 16.5 13C15.1193 13 14 14.1193 14 15.5C14 16.8807 15.1193 18 16.5 18Z" fill="black"/>
<path d="M3.00391 9V11M6.50391 4V16M10.0039 7V10M13.5039 5V7.5" stroke="black" stroke-width="2" stroke-linecap="square"/>
</svg>
