<svg width="24" height="24" viewBox="0 0 24 24" fill="none" xmlns="http://www.w3.org/2000/svg">
<path d="M4 7.5V6.5H2V7.5H4ZM19 5H20V4H19V5ZM21 8H22V7H21V8ZM21 19V20H22V19H21ZM16.4 12.5H15.4V14.5H16.4V12.5ZM16.6 14.5H17.6V12.5H16.6V14.5ZM4 17V7.5H2V17H4ZM5 18C4.44772 18 4 17.5523 4 17H2C2 18.6569 3.34315 20 5 20V18ZM19 4H4.49855V6H19V4ZM4.5 9H21V7H4.5V9ZM20 8V19H22V8H20ZM18 5V7.5H20V5H18ZM2 6.5C2 7.88071 3.11929 9 4.5 9V7C4.22386 7 4 6.77614 4 6.5H2ZM4.49855 4C3.11658 4 2 5.12055 2 6.5H4C4 6.2226 4.22367 6 4.49855 6V4ZM16 13.5C16 13.2239 16.2239 13 16.5 13V15C17.3284 15 18 14.3284 18 13.5H16ZM16.5 13C16.7761 13 17 13.2239 17 13.5H15C15 14.3284 15.6716 15 16.5 15V13ZM17 13.5C17 13.7761 16.7761 14 16.5 14V12C15.6716 12 15 12.6716 15 13.5H17ZM16.5 14C16.2239 14 16 13.7761 16 13.5H18C18 12.6716 17.3284 12 16.5 12V14ZM16.4 14.5H16.6V12.5H16.4V14.5ZM21 18H5V20H21V18Z" fill="black"/>
</svg>
