<svg width="24" height="24" viewBox="0 0 24 24" fill="none" xmlns="http://www.w3.org/2000/svg">
<path d="M2.62966 12.3215C1.57427 12.934 1.00954 13.4824 1.11635 13.881C1.40223 14.9479 6.39104 14.5382 12.2592 12.9658C18.1273 11.3934 22.6526 9.25391 22.3667 8.18698C22.2601 7.78897 21.499 7.59645 20.2819 7.59312M20.6937 9.67054C21.9802 14.4717 19.1309 19.4067 14.3297 20.6932C9.52853 21.9797 4.5935 19.1304 3.30702 14.3292C3.1089 13.5898 3.00886 12.8473 2.99894 12.1153C2.94444 8.09458 5.60919 4.39494 9.67098 3.30658C13.7328 2.21823 17.8903 4.08984 19.8535 7.59918C20.2109 8.23802 20.4956 8.93113 20.6937 9.67054Z" stroke="black" stroke-width="2" stroke-linecap="square"/>
</svg>
