<svg width="24" height="24" viewBox="0 0 24 24" fill="none" xmlns="http://www.w3.org/2000/svg">
<path d="M9.12368 7.45536C9.29564 7.46232 9.48613 7.47047 9.66716 7.87259C9.79046 8.14696 9.99776 8.65786 10.1633 9.06592C10.286 9.36826 10.3858 9.61414 10.4115 9.66553C10.4719 9.78625 10.512 9.92761 10.4316 10.0885C10.4192 10.1132 10.4078 10.1366 10.397 10.1588C10.337 10.2814 10.2928 10.3719 10.1904 10.4912C10.1495 10.5388 10.1072 10.5902 10.0649 10.6416C9.98224 10.7422 9.89969 10.8425 9.82795 10.9142C9.70683 11.0345 9.58071 11.1653 9.72181 11.4069C9.8629 11.6485 10.3475 12.4391 11.0655 13.0793C11.8382 13.7683 12.5092 14.0592 12.8489 14.2065C12.9149 14.2351 12.9683 14.2583 13.0076 14.2779C13.2493 14.3986 13.39 14.3784 13.531 14.2172C13.672 14.056 14.1343 13.5123 14.2954 13.2705C14.4566 13.0288 14.6176 13.0689 14.8389 13.1496C15.0603 13.2302 16.2475 13.8144 16.4892 13.9353C16.5367 13.959 16.5812 13.9805 16.6223 14.0003C16.7904 14.0813 16.9038 14.136 16.9523 14.2172C17.0126 14.3182 17.0124 14.8014 16.8113 15.3654C16.6102 15.9293 15.6242 16.4733 15.1813 16.5135C15.1386 16.5174 15.0962 16.5224 15.0526 16.5275C14.6433 16.5756 14.1268 16.6363 12.2831 15.9092C10.0123 15.0138 8.5156 12.7937 8.20847 12.3381C8.18358 12.3012 8.1665 12.2758 8.15745 12.2637L8.15459 12.2599C8.02381 12.085 7.17139 10.9452 7.17139 9.76602C7.17139 8.65436 7.71768 8.07139 7.96924 7.80293C7.98657 7.78444 8.0025 7.76744 8.01676 7.75186C8.23798 7.51014 8.49967 7.44971 8.66073 7.44971L9.12368 7.45536Z" fill="black"/>
<path fill-rule="evenodd" clip-rule="evenodd" d="M2.33594 21.75L3.70731 16.743C2.86009 15.2741 2.41508 13.6079 2.41712 11.9122C2.41936 6.58441 6.75508 2.25 12.083 2.25C14.6685 2.25131 17.0953 3.25747 18.9204 5.08391C20.7456 6.91034 21.7498 9.33805 21.7488 11.92C21.7465 17.2474 17.4101 21.5826 12.0829 21.5826H12.0787C10.4612 21.582 8.87171 21.1762 7.45988 20.4063L2.33594 21.75ZM12.0859 3.88227C7.65444 3.88227 4.05057 7.48482 4.049 11.9129C4.04681 13.425 4.47261 14.9068 5.27717 16.187L5.46832 16.4909L4.65658 19.4543L7.69727 18.657L7.99088 18.831C9.22404 19.5628 10.638 19.9498 12.0799 19.9506H12.0829C16.511 19.9506 20.1149 16.3477 20.1166 11.9193C20.1199 10.8639 19.9139 9.8182 19.5103 8.8429C19.1068 7.8676 18.5138 6.98203 17.7657 6.23746C17.0217 5.48882 16.1367 4.89519 15.1617 4.49091C14.1868 4.08664 13.1414 3.87977 12.0859 3.88227Z" fill="black"/>
</svg>
