<svg width="24" height="24" viewBox="0 0 24 24" fill="none" xmlns="http://www.w3.org/2000/svg">
<path d="M21 5H22V4H21V5ZM21 18V19H22V18H21ZM3 18H2V19H3V18ZM3 5V4H2V5H3ZM13 3V2H11V3H13ZM21 5H20V18H21H22V5H21ZM3 18H4V5H3H2V18H3ZM3 5V6H12V5V4H3V5ZM12 5V6H21V5V4H12V5ZM12 5H13V3H12H11V5H12ZM21 18V17H3V18V19H21V18Z" fill="black"/>
<path d="M7.77749 18.6675L7 21" stroke="black" stroke-width="2" stroke-linecap="square" stroke-linejoin="round"/>
<path d="M16.2227 18.6675L17.0001 21" stroke="black" stroke-width="2" stroke-linecap="square" stroke-linejoin="round"/>
<path d="M12 18.6675V20" stroke="black" stroke-width="2" stroke-linecap="square" stroke-linejoin="round"/>
</svg>
