<svg width="24" height="24" viewBox="0 0 24 24" fill="none" xmlns="http://www.w3.org/2000/svg">
<path d="M11 12C11 13.933 9.433 15.5 7.5 15.5C5.567 15.5 4 13.933 4 12C4 10.067 5.567 8.5 7.5 8.5C9.433 8.5 11 10.067 11 12Z" stroke="black" stroke-width="2"/>
<path d="M11 20L15 13.75L19 20H11Z" stroke="black" stroke-width="2"/>
<path d="M11.5 5.81129C11.5 5.81129 14.5 3.10075 16 4.31129C18.2353 6.11523 13.5 8.31146 14 9.31129C14.5 10.3111 17.8431 8.15427 19.5 9.81113C20.5 10.8111 19.8661 12.2128 19.5 13.3111" stroke="black" stroke-width="2" stroke-linecap="square"/>
</svg>
